SplineFontDB: 3.0
FontName: Leipzig-4.7
FullName: Leipzig 4.7
FamilyName: Leipzig 4.7
Weight: Book
Copyright: (c) Etienne Darbellay & TPpI Jean-Francois Marti.\n1995-1999 All Rights Reserved
Version: 2.0
ItalicAngle: 0
UnderlinePosition: -123
UnderlineWidth: 20
Ascent: 1638
Descent: 410
sfntRevision: 0x00010000
LayerCount: 2
Layer: 0 1 "Back"  1
Layer: 1 1 "Fore"  0
XUID: [1021 271 1038214641 4586025]
FSType: 2
OS2Version: 0
OS2_WeightWidthSlopeOnly: 0
OS2_UseTypoMetrics: 1
CreationTime: -957401131
ModificationTime: 1338292148
PfmFamily: 81
TTFWeight: 400
TTFWidth: 5
LineGap: 0
VLineGap: 0
Panose: 0 0 0 0 0 0 0 0 0 0
OS2TypoAscent: -455
OS2TypoAOffset: 1
OS2TypoDescent: 1275
OS2TypoDOffset: 1
OS2TypoLinegap: 0
OS2WinAscent: 0
OS2WinAOffset: 1
OS2WinDescent: 0
OS2WinDOffset: 1
HheadAscent: 0
HheadAOffset: 1
HheadDescent: -21
HheadDOffset: 1
OS2SubXSize: 1434
OS2SubYSize: 1331
OS2SubXOff: 0
OS2SubYOff: 293
OS2SupXSize: 1434
OS2SupYSize: 1331
OS2SupXOff: 0
OS2SupYOff: 928
OS2StrikeYSize: 102
OS2StrikeYPos: 530
OS2Vendor: 'Alts'
OS2UnicodeRanges: 00000000.00000000.00000000.00000000
MarkAttachClasses: 1
DEI: 91125
TtTable: prep
NPUSHB
 14
 54
 54
 53
 53
 24
 24
 0
 0
 2
 2
 25
 25
 69
 1
SCANTYPE
PUSHW_1
 511
SCANCTRL
SROUND
RCVT
ROUND[Grey]
WCVTP
RTG
PUSHB_4
 1
 0
 70
 0
CALL
PUSHB_4
 3
 2
 70
 0
CALL
PUSHB_4
 4
 0
 70
 0
CALL
PUSHB_4
 5
 0
 70
 0
CALL
PUSHB_4
 6
 2
 70
 0
CALL
PUSHB_4
 7
 2
 70
 0
CALL
PUSHB_4
 8
 2
 70
 0
CALL
PUSHB_4
 9
 24
 70
 0
CALL
PUSHB_4
 10
 2
 70
 0
CALL
PUSHB_4
 11
 2
 70
 0
CALL
PUSHB_4
 12
 0
 70
 0
CALL
PUSHB_4
 13
 2
 70
 0
CALL
PUSHB_4
 14
 24
 70
 0
CALL
PUSHB_4
 15
 2
 70
 0
CALL
PUSHB_4
 16
 2
 70
 0
CALL
PUSHB_4
 17
 2
 70
 0
CALL
PUSHB_4
 18
 2
 70
 0
CALL
PUSHB_4
 19
 2
 70
 0
CALL
PUSHB_4
 20
 2
 70
 0
CALL
PUSHB_4
 21
 2
 70
 0
CALL
PUSHB_4
 22
 2
 70
 0
CALL
PUSHB_4
 23
 2
 70
 0
CALL
PUSHB_4
 26
 25
 70
 0
CALL
PUSHB_4
 27
 25
 70
 0
CALL
PUSHB_4
 28
 25
 70
 0
CALL
PUSHB_4
 29
 25
 70
 0
CALL
PUSHB_4
 30
 25
 70
 0
CALL

StartChar: .notdef
Encoding: 65536 -1 0
Width: 1024
Flags: W
LayerCount: 2
Fore
SplineSet
64 0 m 1,0,-1
 64 1183 l 1,1,-1
 960 1183 l 1,2,-1
 960 0 l 1,3,-1
 64 0 l 1,0,-1
896 64 m 1,4,-1
 896 1119 l 1,5,-1
 128 1119 l 1,6,-1
 128 64 l 1,7,-1
 896 64 l 1,4,-1
EndSplineSet
Validated: 1
EndChar

StartChar: exclam
Encoding: 33 33 4
Width: 410
Flags: W
LayerCount: 2
Fore
SplineSet
389 507 m 1,0,-1
 243 286 l 1,1,2
 305 254 305 254 339 219 c 0,3,4
 381 175 381 175 381 122 c 0,5,6
 381 74 381 74 346.5 37.5 c 128,-1,7
 312 1 312 1 257 1 c 0,8,9
 227 1 227 1 204 22 c 128,-1,10
 181 43 181 43 181 73 c 0,11,12
 181 89 181 89 194 100 c 128,-1,13
 207 111 207 111 224 111 c 0,14,15
 238 111 238 111 248.5 102 c 128,-1,16
 259 93 259 93 263 73 c 1,17,18
 272 39 272 39 294 39 c 0,19,20
 310 39 310 39 323 52.5 c 128,-1,21
 336 66 336 66 336 93 c 0,22,23
 336 112 336 112 328 125 c 0,24,25
 314 150 314 150 256 182 c 1,26,27
 226 197 226 197 196 212 c 1,28,-1
 62 4 l 1,29,-1
 22 4 l 1,30,-1
 163 227 l 1,31,32
 90 262 90 262 54 307 c 0,33,34
 22 347 22 347 22 391 c 0,35,36
 22 421 22 421 36.5 447.5 c 128,-1,37
 51 474 51 474 76.5 493.5 c 128,-1,38
 102 513 102 513 134 513 c 0,39,40
 170 513 170 513 197.5 490.5 c 128,-1,41
 225 468 225 468 225 436 c 0,42,43
 225 421 225 421 211.5 410.5 c 128,-1,44
 198 400 198 400 180 400 c 0,45,46
 152 400 152 400 145 425 c 2,47,-1
 138 448 l 2,48,49
 130 474 130 474 108 474 c 0,50,51
 92 474 92 474 81 456 c 0,52,53
 76 448 76 448 73 437 c 128,-1,54
 70 426 70 426 70 418 c 0,55,56
 70 372 70 372 148 331 c 0,57,58
 154 328 154 328 210 302 c 1,59,-1
 348 507 l 1,60,-1
 389 507 l 1,0,-1
1 189 m 1,61,62
 0 204 0 204 10.5 216 c 128,-1,63
 21 228 21 228 36 228 c 0,64,65
 52 228 52 228 63.5 217.5 c 128,-1,66
 75 207 75 207 75 192 c 256,67,68
 75 177 75 177 64.5 165.5 c 128,-1,69
 54 154 54 154 39 154 c 0,70,71
 22 154 22 154 11.5 163.5 c 128,-1,72
 1 173 1 173 1 189 c 1,61,62
339 334 m 0,73,74
 347 360 347 360 374 360 c 0,75,76
 377 360 377 360 385 358 c 1,77,78
 411 348 411 348 411 323 c 0,79,80
 411 320 411 320 409 312 c 0,81,82
 401 286 401 286 374 286 c 0,83,84
 371 286 371 286 363 288 c 0,85,86
 337 296 337 296 337 322 c 0,87,88
 337 326 337 326 339 334 c 0,73,74
EndSplineSet
Validated: 1
EndChar

StartChar: quotedbl
Encoding: 34 34 5
Width: 218
Flags: W
LayerCount: 2
Fore
SplineSet
109 -130 m 1,0,-1
 0 130 l 1,1,-1
 -109 -130 l 1,2,-1
 -85 -130 l 1,3,-1
 0 66 l 1,4,-1
 85 -130 l 1,5,-1
 109 -130 l 1,0,-1
EndSplineSet
Validated: 9
EndChar

StartChar: numbersign
Encoding: 35 35 6
Width: 488
Flags: W
LayerCount: 2
Fore
SplineSet
0 21 m 1,0,-1
 0 80 l 1,1,-1
 129 230 l 1,2,-1
 146 240 l 1,3,4
 156 240 156 240 158 234 c 1,5,-1
 264 141 l 1,6,-1
 281 131 l 1,7,-1
 293 137 l 1,8,-1
 373 230 l 1,9,-1
 391 240 l 1,10,11
 399 240 399 240 403 234 c 1,12,-1
 508 141 l 1,13,-1
 517 134 l 1,14,-1
 525 129 l 1,15,16
 533 131 533 131 537 137 c 2,17,-1
 605 217 l 1,18,-1
 605 158 l 1,19,-1
 477 8 l 1,20,21
 463 -2 463 -2 457 -2 c 0,22,23
 452 -2 452 -2 447 4 c 1,24,-1
 342 98 l 2,25,26
 333 105 333 105 322 105 c 0,27,28
 316 105 316 105 313 102 c 2,29,-1
 232 8 l 1,30,31
 221 -2 221 -2 213 -2 c 0,32,33
 208 -2 208 -2 203 4 c 1,34,-1
 98 98 l 2,35,36
 89 107 89 107 78 107 c 0,37,38
 73 107 73 107 68 102 c 2,39,-1
 0 21 l 1,0,-1
EndSplineSet
Validated: 1
EndChar

StartChar: dollar
Encoding: 36 36 7
Width: 488
Flags: W
LayerCount: 2
Fore
SplineSet
0 21 m 1,0,-1
 0 80 l 1,1,-1
 121 223 l 2,2,3
 127 229 127 229 132.5 232 c 128,-1,4
 138 235 138 235 143 236 c 1,5,6
 150 236 150 236 168 219 c 2,7,-1
 275 125 l 1,8,-1
 275 309 l 1,9,-1
 305 309 l 1,10,-1
 305 150 l 1,11,-1
 363 219 l 2,12,13
 380 239 380 239 386 239 c 1,14,-1
 410 223 l 1,15,-1
 494 148 l 1,16,-1
 525 123 l 1,17,18
 529 124 529 124 538 135 c 2,19,-1
 552 150 l 1,20,-1
 586 194 l 1,21,-1
 586 139 l 1,22,-1
 480 14 l 1,23,24
 468 -2 468 -2 457 -2 c 1,25,26
 453 0 453 0 450 2 c 0,27,28
 441 8 441 8 432 16 c 2,29,-1
 354 86 l 1,30,31
 333 107 333 107 320 107 c 1,32,-1
 315 105 l 1,33,-1
 310 100 l 1,34,-1
 305 94 l 1,35,-1
 305 -90 l 1,36,-1
 275 -90 l 1,37,-1
 275 59 l 1,38,-1
 239 14 l 1,39,40
 224 -2 224 -2 215 -2 c 1,41,-1
 208 0 l 1,42,-1
 198 8 l 1,43,-1
 188 16 l 1,44,-1
 100 96 l 2,45,46
 89 106 89 106 80 109 c 1,47,48
 75 109 75 109 63 96 c 2,49,-1
 0 21 l 1,0,-1
EndSplineSet
Validated: 1
EndChar

StartChar: percent
Encoding: 37 37 8
Width: 653
Flags: W
LayerCount: 2
Fore
SplineSet
7 5 m 1,0,1
 -26 53 -26 53 -40 85 c 0,2,3
 -57 125 -57 125 -57 164 c 256,4,5
 -57 203 -57 203 -38.5 243.5 c 128,-1,6
 -20 284 -20 284 20 329 c 1,7,-1
 20 322 l 1,8,9
 -4 271 -4 271 -14 235.5 c 128,-1,10
 -24 200 -24 200 -24 174 c 0,11,12
 -24 146 -24 146 -14 114 c 1,13,14
 -4 88 -4 88 1 74 c 1,15,16
 10 122 10 122 58 180 c 0,17,18
 74 199 74 199 106 230 c 1,19,-1
 123 240 l 1,20,21
 133 240 133 240 135 234 c 1,22,-1
 241 141 l 1,23,-1
 259 131 l 1,24,-1
 270 137 l 1,25,-1
 350 230 l 1,26,-1
 369 240 l 1,27,28
 376 240 376 240 380 234 c 1,29,-1
 485 141 l 1,30,-1
 494 134 l 1,31,-1
 502 129 l 1,32,33
 510 131 510 131 514 137 c 2,34,-1
 582 217 l 1,35,-1
 582 158 l 1,36,-1
 454 8 l 1,37,38
 440 -2 440 -2 434 -2 c 0,39,40
 429 -2 429 -2 424 4 c 1,41,-1
 320 98 l 1,42,43
 309 105 309 105 300 105 c 0,44,45
 293 105 293 105 290 102 c 2,46,-1
 209 8 l 1,47,48
 199 -2 199 -2 190 -2 c 0,49,50
 185 -2 185 -2 180 4 c 1,51,-1
 75 98 l 1,52,53
 67 107 67 107 55 107 c 0,54,55
 52 107 52 107 49.5 105 c 128,-1,56
 47 103 47 103 46 102 c 0,57,58
 37 92 37 92 33 85 c 0,59,60
 20 63 20 63 23 43 c 1,61,62
 23 14 23 14 18 6.5 c 128,-1,63
 13 -1 13 -1 7 5 c 1,0,1
1 74 m 1,64,-1
 7 58 l 1,65,-1
 7 5 l 1,66,67
 4 7 4 7 2 10 c 128,-1,68
 0 13 0 13 0 15 c 2,69,-1
 1 74 l 1,64,-1
EndSplineSet
Validated: 5
EndChar

StartChar: ampersand
Encoding: 38 38 9
Width: 464
Flags: W
LayerCount: 2
Fore
SplineSet
58 -167 m 1,0,1
 18 -122 18 -122 -0.5 -81 c 128,-1,2
 -19 -40 -19 -40 -19 0 c 256,3,4
 -19 40 -19 40 -3 78 c 128,-1,5
 13 116 13 116 46 163 c 1,6,-1
 46 102 l 1,7,8
 35 71 35 71 24.5 41 c 128,-1,9
 14 11 14 11 14 -13 c 0,10,11
 14 -39 14 -39 24.5 -74 c 128,-1,12
 35 -109 35 -109 58 -160 c 1,13,-1
 58 -167 l 1,0,1
0 67 m 1,14,15
 6 114 6 114 56 177 c 0,16,17
 72 198 72 198 106 230 c 1,18,-1
 123 240 l 1,19,20
 133 240 133 240 135 234 c 1,21,-1
 241 141 l 1,22,-1
 259 131 l 1,23,-1
 270 137 l 1,24,-1
 350 230 l 1,25,-1
 369 240 l 1,26,27
 376 240 376 240 380 234 c 1,28,-1
 485 141 l 1,29,-1
 494 134 l 1,30,-1
 502 129 l 1,31,32
 510 131 510 131 514 137 c 2,33,-1
 582 217 l 1,34,-1
 582 158 l 1,35,-1
 454 8 l 1,36,37
 440 -2 440 -2 434 -2 c 0,38,39
 429 -2 429 -2 424 4 c 1,40,-1
 320 98 l 1,41,42
 309 105 309 105 300 105 c 0,43,44
 293 105 293 105 290 102 c 2,45,-1
 209 8 l 1,46,47
 199 -2 199 -2 190 -2 c 0,48,49
 185 -2 185 -2 180 4 c 1,50,-1
 75 98 l 1,51,52
 67 107 67 107 55 107 c 0,53,54
 52 107 52 107 49.5 105 c 128,-1,55
 47 103 47 103 46 102 c 2,56,-1
 0 67 l 1,14,15
EndSplineSet
Validated: 5
EndChar

StartChar: quotesingle
Encoding: 39 39 10
Width: 180
Flags: W
LayerCount: 2
Fore
SplineSet
90 166 m 1,0,-1
 78 164 l 1,1,-1
 70 164 l 2,2,3
 39 164 39 164 19.5 184 c 128,-1,4
 0 204 0 204 0 230 c 0,5,6
 0 259 0 259 23 279 c 1,7,8
 44 300 44 300 86 300 c 0,9,10
 130 300 130 300 155 269 c 128,-1,11
 180 238 180 238 180 193 c 0,12,13
 180 163 180 163 171 134.5 c 128,-1,14
 162 106 162 106 142 78 c 0,15,16
 106 25 106 25 35 0 c 1,17,-1
 31 17 l 1,18,19
 67 31 67 31 87 61.5 c 128,-1,20
 107 92 107 92 107 123 c 0,21,22
 107 153 107 153 90 166 c 1,0,-1
EndSplineSet
Validated: 1
EndChar

StartChar: parenleft
Encoding: 40 40 11
Width: 170
Flags: W
LayerCount: 2
Fore
SplineSet
84 -303 m 1,0,-1
 78 -313 l 1,1,2
 37 -289 37 -289 11 -262 c 1,3,4
 -19 -234 -19 -234 -41 -198 c 0,5,6
 -86 -124 -86 -124 -86 -42 c 0,7,8
 -86 -21 -86 -21 -83 2.5 c 128,-1,9
 -80 26 -80 26 -75 48 c 1,10,11
 -60 97 -60 97 -42 131 c 1,12,13
 12 222 12 222 76 252 c 1,14,-1
 84 243 l 1,15,16
 13 193 13 193 -16 115 c 0,17,18
 -41 47 -41 47 -41 -44 c 0,19,20
 -41 -123 -41 -123 -10 -192 c 128,-1,21
 21 -261 21 -261 84 -303 c 1,0,-1
EndSplineSet
Validated: 1
EndChar

StartChar: parenright
Encoding: 41 41 12
Width: 170
Flags: W
LayerCount: 2
Fore
SplineSet
10 -42 m 0,0,1
 10 -124 10 -124 -35 -198 c 0,2,3
 -57 -234 -57 -234 -86.5 -262.5 c 128,-1,4
 -116 -291 -116 -291 -154 -313 c 1,5,-1
 -160 -303 l 1,6,7
 -97 -261 -97 -261 -66 -192 c 128,-1,8
 -35 -123 -35 -123 -35 -44 c 0,9,10
 -35 47 -35 47 -60 115 c 0,11,12
 -89 193 -89 193 -160 243 c 1,13,-1
 -152 252 l 1,14,15
 -88 222 -88 222 -34 131 c 0,16,17
 -25 115 -25 115 -16.5 93 c 128,-1,18
 -8 71 -8 71 -2 48 c 0,19,20
 10 4 10 4 10 -42 c 0,0,1
EndSplineSet
Validated: 1
EndChar

StartChar: asterisk
Encoding: 42 42 13
Width: 507
Flags: W
LayerCount: 2
Fore
SplineSet
-297 245 m 0,0,1
 -297 230 -297 230 -283 216.5 c 128,-1,2
 -269 203 -269 203 -252 203 c 0,3,4
 -244 203 -244 203 -238 205.5 c 128,-1,5
 -232 208 -232 208 -223 216 c 1,6,7
 -211 231 -211 231 -211 247 c 0,8,9
 -211 265 -211 265 -222.5 276.5 c 128,-1,10
 -234 288 -234 288 -252 288 c 0,11,12
 -271 288 -271 288 -282 277 c 1,13,14
 -297 266 -297 266 -297 245 c 0,0,1
-438 411 m 1,15,16
 -421 434 -421 434 -394 434 c 0,17,18
 -365 434 -365 434 -357 420 c 1,19,20
 -347 408 -347 408 -342 375 c 0,21,22
 -340 363 -340 363 -337.5 353 c 128,-1,23
 -335 343 -335 343 -331 331 c 1,24,25
 -321 317 -321 317 -301 314 c 1,26,-1
 -282 320 l 1,27,28
 -274 324 -274 324 -269.5 330.5 c 128,-1,29
 -265 337 -265 337 -265 349 c 256,30,31
 -265 361 -265 361 -270 369 c 2,32,-1
 -284 390 l 1,33,-1
 -303 411 l 1,34,-1
 -314 437 l 1,35,36
 -314 448 -314 448 -309.5 457 c 128,-1,37
 -305 466 -305 466 -295 477 c 1,38,39
 -278 492 -278 492 -252 492 c 0,40,41
 -227 492 -227 492 -212 477 c 0,42,43
 -193 458 -193 458 -193 437 c 0,44,45
 -193 425 -193 425 -197.5 415.5 c 128,-1,46
 -202 406 -202 406 -217 390 c 1,47,-1
 -235 367 l 1,48,49
 -242 355 -242 355 -243 346 c 1,50,51
 -242 340 -242 340 -240 335 c 128,-1,52
 -238 330 -238 330 -238 329 c 2,53,-1
 -225 317 l 1,54,-1
 -208 308 l 1,55,56
 -194 309 -194 309 -181 324 c 1,57,58
 -172 337 -172 337 -169 363 c 1,59,60
 -169 432 -169 432 -112 432 c 0,61,62
 -89 432 -89 432 -73 416 c 128,-1,63
 -57 400 -57 400 -57 377 c 0,64,65
 -57 353 -57 353 -75 336 c 1,66,67
 -84 330 -84 330 -89 328 c 0,68,69
 -103 322 -103 322 -121 322 c 0,70,71
 -174 322 -174 322 -178 282 c 1,72,-1
 -172 268 l 2,73,74
 -170 263 -170 263 -164 259 c 1,75,76
 -162 256 -162 256 -147 253 c 1,77,78
 -135 255 -135 255 -126 261 c 1,79,-1
 -120 267 l 1,80,81
 -116 269 -116 269 -113.5 271 c 128,-1,82
 -111 273 -111 273 -101 281 c 2,83,-1
 -76 299 l 2,84,85
 -68 305 -68 305 -52 305 c 0,86,87
 -33 305 -33 305 -16.5 287 c 128,-1,88
 0 269 0 269 0 247 c 256,89,90
 0 225 0 225 -16 206 c 0,91,92
 -25 195 -25 195 -35 189 c 0,93,94
 -40 187 -40 187 -57 185 c 1,95,96
 -69 186 -69 186 -93 206 c 1,97,-1
 -123 228 l 2,98,99
 -131 233 -131 233 -147 233 c 0,100,101
 -161 233 -161 233 -167 228 c 1,102,-1
 -178 206 l 1,103,104
 -175 184 -175 184 -161 178 c 2,105,-1
 -148 173 l 1,106,-1
 -117 167 l 1,107,108
 -89 167 -89 167 -73 153 c 1,109,110
 -57 143 -57 143 -57 113 c 0,111,112
 -57 90 -57 90 -74 73 c 1,113,114
 -91 60 -91 60 -117 54 c 1,115,116
 -137 57 -137 57 -156 77 c 1,117,118
 -169 97 -169 97 -169 132 c 0,119,120
 -169 139 -169 139 -170 143 c 0,121,122
 -175 156 -175 156 -178 163 c 1,123,124
 -187 178 -187 178 -208 178 c 0,125,126
 -222 178 -222 178 -232.5 167.5 c 128,-1,127
 -243 157 -243 157 -246 141 c 1,128,129
 -244 135 -244 135 -240 128.5 c 128,-1,130
 -236 122 -236 122 -233 117 c 2,131,-1
 -225 104 l 1,132,-1
 -217 92 l 1,133,-1
 -208 82 l 1,134,-1
 -202 70 l 2,135,136
 -199 66 -199 66 -198 59.5 c 128,-1,137
 -197 53 -197 53 -196 46 c 1,138,139
 -196 23 -196 23 -216 12 c 1,140,141
 -234 0 -234 0 -257 0 c 0,142,143
 -275 0 -275 0 -293 11.5 c 128,-1,144
 -311 23 -311 23 -314 46 c 1,145,146
 -313 53 -313 53 -310 61 c 128,-1,147
 -307 69 -307 69 -306 71 c 2,148,-1
 -287 96 l 1,149,-1
 -267 121 l 1,150,151
 -264 128 -264 128 -262 144 c 1,152,153
 -262 174 -262 174 -291 178 c 1,154,155
 -319 178 -319 178 -329 161 c 0,156,157
 -332 154 -332 154 -335 144 c 128,-1,158
 -338 134 -338 134 -338 118 c 0,159,160
 -338 63 -338 63 -394 54 c 1,161,162
 -422 60 -422 60 -434.5 73.5 c 128,-1,163
 -447 87 -447 87 -453 115 c 1,164,165
 -447 169 -447 169 -375 169 c 0,166,167
 -365 169 -365 169 -358.5 172.5 c 128,-1,168
 -352 176 -352 176 -344 181 c 0,169,170
 -332 190 -332 190 -332 206 c 0,171,172
 -332 219 -332 219 -341 225 c 1,173,174
 -347 233 -347 233 -360 233 c 0,175,176
 -378 233 -378 233 -407 212 c 0,177,178
 -422 202 -422 202 -433 195.5 c 128,-1,179
 -444 189 -444 189 -453 187 c 1,180,181
 -478 190 -478 190 -492.5 205.5 c 128,-1,182
 -507 221 -507 221 -507 247 c 0,183,184
 -507 269 -507 269 -493 286 c 1,185,186
 -477 302 -477 302 -455 302 c 0,187,188
 -444 302 -444 302 -431 296.5 c 128,-1,189
 -418 291 -418 291 -403 280 c 2,190,-1
 -382 264 l 1,191,-1
 -360 255 l 1,192,193
 -329 263 -329 263 -329 282 c 0,194,195
 -329 322 -329 322 -384 322 c 0,196,197
 -448 322 -448 322 -455 374 c 1,198,199
 -452 395 -452 395 -438 411 c 1,15,16
EndSplineSet
Validated: 1
EndChar

StartChar: plus
Encoding: 43 43 14
Width: 316
Flags: W
LayerCount: 2
Fore
SplineSet
158 -35 m 1,0,-1
 35 -35 l 1,1,-1
 35 -158 l 1,2,-1
 -35 -158 l 1,3,-1
 -35 -35 l 1,4,-1
 -158 -35 l 1,5,-1
 -158 36 l 1,6,-1
 -35 36 l 1,7,-1
 -35 158 l 1,8,-1
 35 158 l 1,9,-1
 35 36 l 1,10,-1
 158 36 l 1,11,-1
 158 -35 l 1,0,-1
EndSplineSet
Validated: 1
EndChar

StartChar: comma
Encoding: 44 44 15
Width: 319
Flags: W
LayerCount: 2
Fore
SplineSet
159 133 m 1,0,-1
 0 -132 l 1,1,-1
 -114 133 l 1,2,-1
 -90 133 l 1,3,-1
 -8 -47 l 1,4,-1
 100 133 l 1,5,-1
 159 133 l 1,0,-1
EndSplineSet
Validated: 1
EndChar

StartChar: hyphen
Encoding: 45 45 16
Width: 114
Flags: W
LayerCount: 2
Fore
SplineSet
0 375 m 1,0,-1
 114 375 l 1,1,-1
 114 345 l 1,2,-1
 0 345 l 1,3,-1
 0 375 l 1,0,-1
EndSplineSet
Validated: 1
EndChar

StartChar: period
Encoding: 46 46 17
Width: 508
Flags: W
LayerCount: 2
Fore
SplineSet
-47 -2 m 256,0,1
 -47 18 -47 18 -33.5 32.5 c 128,-1,2
 -20 47 -20 47 -2 47 c 0,3,4
 19 47 19 47 33.5 34.5 c 128,-1,5
 48 22 48 22 48 2 c 256,6,7
 48 -18 48 -18 34.5 -32.5 c 128,-1,8
 21 -47 21 -47 3 -47 c 0,9,10
 -18 -47 -18 -47 -32.5 -34.5 c 128,-1,11
 -47 -22 -47 -22 -47 -2 c 256,0,1
EndSplineSet
Validated: 1
EndChar

StartChar: slash
Encoding: 47 47 18
Width: 508
Flags: W
LayerCount: 2
Fore
SplineSet
254 212 m 1,0,-1
 -108 -212 l 1,1,-1
 -254 -212 l 1,2,-1
 108 212 l 1,3,-1
 254 212 l 1,0,-1
-202 108 m 256,4,5
 -202 128 -202 128 -188.5 142.5 c 128,-1,6
 -175 157 -175 157 -157 157 c 0,7,8
 -136 157 -136 157 -121.5 144.5 c 128,-1,9
 -107 132 -107 132 -107 112 c 256,10,11
 -107 92 -107 92 -120.5 77.5 c 128,-1,12
 -134 63 -134 63 -152 63 c 0,13,14
 -173 63 -173 63 -187.5 75.5 c 128,-1,15
 -202 88 -202 88 -202 108 c 256,4,5
107 -111 m 256,16,17
 107 -91 107 -91 120.5 -76.5 c 128,-1,18
 134 -62 134 -62 152 -62 c 0,19,20
 173 -62 173 -62 187.5 -74.5 c 128,-1,21
 202 -87 202 -87 202 -107 c 256,22,23
 202 -127 202 -127 188.5 -141.5 c 128,-1,24
 175 -156 175 -156 157 -156 c 0,25,26
 136 -156 136 -156 121.5 -143.5 c 128,-1,27
 107 -131 107 -131 107 -111 c 256,16,17
EndSplineSet
Validated: 1
EndChar

StartChar: zero
Encoding: 48 48 19
Width: 427
Flags: W
LayerCount: 2
Fore
SplineSet
0 259 m 0,0,1
 0 336 0 336 28.5 394 c 128,-1,2
 57 452 57 452 106.5 484 c 128,-1,3
 156 516 156 516 215 516 c 0,4,5
 272 516 272 516 320.5 481.5 c 128,-1,6
 369 447 369 447 398 386.5 c 128,-1,7
 427 326 427 326 427 259 c 256,8,9
 427 192 427 192 397 131.5 c 128,-1,10
 367 71 367 71 318 35.5 c 128,-1,11
 269 0 269 0 217 0 c 0,12,13
 167 0 167 0 114 32 c 0,14,15
 91 46 91 46 69.5 69.5 c 128,-1,16
 48 93 48 93 32 123 c 0,17,18
 0 184 0 184 0 259 c 0,0,1
213 37 m 0,19,20
 255 37 255 37 277.5 93.5 c 128,-1,21
 300 150 300 150 300 259 c 0,22,23
 300 348 300 348 278 414.5 c 128,-1,24
 256 481 256 481 213 481 c 0,25,26
 171 481 171 481 147 415 c 128,-1,27
 123 349 123 349 123 259 c 0,28,29
 123 213 123 213 128.5 172 c 128,-1,30
 134 131 134 131 145 100 c 0,31,32
 166 37 166 37 213 37 c 0,19,20
EndSplineSet
Validated: 1
EndChar

StartChar: one
Encoding: 49 49 20
Width: 296
Flags: W
LayerCount: 2
Fore
SplineSet
48 0 m 1,0,-1
 48 36 l 1,1,2
 83 36 83 36 97 54 c 1,3,4
 109 75 109 75 109 111 c 2,5,-1
 109 361 l 1,6,-1
 27 232 l 1,7,-1
 0 245 l 1,8,-1
 107 496 l 1,9,-1
 235 496 l 1,10,-1
 235 106 l 2,11,12
 235 70 235 70 249 53 c 128,-1,13
 263 36 263 36 296 36 c 1,14,-1
 296 0 l 1,15,-1
 48 0 l 1,0,-1
EndSplineSet
Validated: 1
EndChar

StartChar: two
Encoding: 50 50 21
Width: 402
Flags: W
LayerCount: 2
Fore
SplineSet
3 0 m 1,0,-1
 0 29 l 1,1,2
 0 66 0 66 18 93 c 1,3,4
 26 107 26 107 35 116.5 c 128,-1,5
 44 126 44 126 57 136 c 1,6,-1
 87 156 l 1,7,-1
 131 187 l 1,8,-1
 178 218 l 1,9,-1
 215 247 l 2,10,11
 237 264 237 264 253 301 c 1,12,13
 271 337 271 337 271 371 c 0,14,15
 271 410 271 410 248 434.5 c 128,-1,16
 225 459 225 459 177 459 c 0,17,18
 158 459 158 459 149.5 458 c 128,-1,19
 141 457 141 457 127 451 c 1,20,21
 106 444 106 444 101 429 c 1,22,23
 106 416 106 416 111 411 c 1,24,-1
 135 394 l 1,25,26
 144 389 144 389 149.5 384.5 c 128,-1,27
 155 380 155 380 162 373 c 1,28,29
 169 362 169 362 169 346 c 0,30,31
 169 314 169 314 145.5 296.5 c 128,-1,32
 122 279 122 279 90 272 c 1,33,34
 62 272 62 272 38 297 c 128,-1,35
 14 322 14 322 14 366 c 0,36,37
 14 402 14 402 43 432.5 c 128,-1,38
 72 463 72 463 120 482 c 1,39,40
 165 498 165 498 215 498 c 0,41,42
 289 498 289 498 340.5 461.5 c 128,-1,43
 392 425 392 425 392 351 c 0,44,45
 392 305 392 305 361 273.5 c 128,-1,46
 330 242 330 242 279 218 c 2,47,-1
 188 177 l 1,48,49
 149 161 149 161 131 140 c 1,50,-1
 180 147 l 1,51,52
 213 147 213 147 234 141 c 128,-1,53
 255 135 255 135 288 119 c 0,54,55
 317 106 317 106 328 106 c 0,56,57
 358 106 358 106 367 167 c 1,58,-1
 402 167 l 1,59,60
 402 73 402 73 369 29 c 128,-1,61
 336 -15 336 -15 286 -15 c 0,62,63
 261 -15 261 -15 240 -5 c 2,64,-1
 219 6 l 1,65,-1
 191 23 l 1,66,67
 163 44 163 44 145 53 c 128,-1,68
 127 62 127 62 104 65 c 1,69,70
 95 65 95 65 82 60 c 0,71,72
 78 58 78 58 73 54.5 c 128,-1,73
 68 51 68 51 62 46 c 0,74,75
 45 30 45 30 39 0 c 1,76,-1
 3 0 l 1,0,-1
EndSplineSet
Validated: 1
EndChar

StartChar: three
Encoding: 51 51 22
Width: 383
Flags: W
LayerCount: 2
Fore
SplineSet
255 266 m 1,0,1
 290 263 290 263 321 245 c 1,2,3
 352 229 352 229 367 203 c 1,4,5
 383 180 383 180 383 147 c 0,6,7
 383 99 383 99 351 66 c 1,8,9
 322 33 322 33 271 16 c 1,10,-1
 220 4 l 1,11,12
 197 0 197 0 167 0 c 0,13,14
 128 0 128 0 97.5 9.5 c 128,-1,15
 67 19 67 19 46 36 c 1,16,17
 34 44 34 44 27 51 c 128,-1,18
 20 58 20 58 11 71 c 1,19,20
 0 91 0 91 0 111 c 0,21,22
 0 145 0 145 20 170.5 c 128,-1,23
 40 196 40 196 70 196 c 1,24,-1
 73 194 l 1,25,26
 112 194 112 194 131 173 c 128,-1,27
 150 152 150 152 150 122 c 0,28,29
 150 110 150 110 137.5 90.5 c 128,-1,30
 125 71 125 71 124 63 c 1,31,32
 135 37 135 37 162 37 c 0,33,34
 196 37 196 37 225 57 c 0,35,36
 240 67 240 67 249.5 82.5 c 128,-1,37
 259 98 259 98 259 118 c 0,38,39
 259 186 259 186 222.5 216.5 c 128,-1,40
 186 247 186 247 116 247 c 1,41,-1
 116 284 l 1,42,43
 188 284 188 284 220 307 c 1,44,45
 252 333 252 333 252 385 c 0,46,47
 252 427 252 427 226 451 c 1,48,49
 202 476 202 476 162 476 c 256,50,51
 122 476 122 476 109 453 c 1,52,53
 111 450 111 450 113.5 447 c 128,-1,54
 116 444 116 444 122.5 440 c 128,-1,55
 129 436 129 436 135 431.5 c 128,-1,56
 141 427 141 427 146 420 c 0,57,58
 155 406 155 406 155 381 c 0,59,60
 155 376 155 376 154.5 370 c 128,-1,61
 154 364 154 364 148.5 355 c 128,-1,62
 143 346 143 346 131.5 336 c 128,-1,63
 120 326 120 326 107.5 321.5 c 128,-1,64
 95 317 95 317 81 317 c 0,65,66
 68 317 68 317 54.5 322.5 c 128,-1,67
 41 328 41 328 30 339 c 0,68,69
 10 359 10 359 10 395 c 0,70,71
 10 450 10 450 65 481 c 0,72,73
 92 497 92 497 125 506 c 128,-1,74
 158 515 158 515 194 515 c 0,75,76
 265 515 265 515 318 482 c 0,77,78
 347 464 347 464 361.5 443 c 128,-1,79
 376 422 376 422 376 395 c 0,80,81
 376 288 376 288 255 266 c 1,0,1
EndSplineSet
Validated: 1
EndChar

StartChar: four
Encoding: 52 52 23
Width: 387
Flags: W
LayerCount: 2
Fore
SplineSet
143 0 m 1,0,-1
 143 36 l 1,1,2
 173 36 173 36 188 51 c 128,-1,3
 203 66 203 66 203 106 c 2,4,-1
 203 133 l 1,5,-1
 0 133 l 1,6,-1
 0 172 l 1,7,8
 60 241 60 241 89 308 c 128,-1,9
 118 375 118 375 134 494 c 1,10,-1
 307 494 l 1,11,12
 303 484 303 484 295.5 471.5 c 128,-1,13
 288 459 288 459 272 438 c 1,14,15
 254 411 254 411 233 385 c 0,16,17
 217 364 217 364 205 350 c 2,18,-1
 121 253 l 1,19,20
 72 199 72 199 41 172 c 1,21,-1
 203 172 l 1,22,-1
 203 274 l 1,23,-1
 330 397 l 1,24,-1
 330 172 l 1,25,-1
 387 172 l 1,26,-1
 387 133 l 1,27,-1
 330 133 l 1,28,-1
 330 99 l 2,29,30
 330 34 330 34 387 34 c 1,31,-1
 387 0 l 1,32,-1
 143 0 l 1,0,-1
EndSplineSet
Validated: 1
EndChar

StartChar: five
Encoding: 53 53 24
Width: 354
Flags: W
LayerCount: 2
Fore
SplineSet
17 237 m 1,0,-1
 22 494 l 1,1,2
 105 477 105 477 180 477 c 0,3,4
 240 477 240 477 313 494 c 1,5,6
 304 435 304 435 263 410 c 128,-1,7
 222 385 222 385 155 385 c 1,8,-1
 105 387 l 2,9,10
 94 388 94 388 83 390 c 128,-1,11
 72 392 72 392 56 397 c 1,12,-1
 51 286 l 1,13,14
 108 325 108 325 180 325 c 0,15,16
 226 325 226 325 267.5 305 c 128,-1,17
 309 285 309 285 333 248 c 128,-1,18
 357 211 357 211 357 166 c 0,19,20
 357 116 357 116 326.5 77.5 c 128,-1,21
 296 39 296 39 247.5 19.5 c 128,-1,22
 199 0 199 0 146 0 c 0,23,24
 110 0 110 0 77.5 12.5 c 128,-1,25
 45 25 45 25 22.5 52.5 c 128,-1,26
 0 80 0 80 0 115 c 0,27,28
 0 152 0 152 23 175 c 0,29,30
 34 186 34 186 46.5 192 c 128,-1,31
 59 198 59 198 75 198 c 0,32,33
 89 198 89 198 101 192 c 1,34,35
 114 188 114 188 124 176 c 0,36,37
 144 154 144 154 144 126 c 0,38,39
 144 120 144 120 140 108 c 1,40,-1
 126 88 l 1,41,-1
 113 71 l 2,42,43
 110 66 110 66 110 57 c 0,44,45
 110 34 110 34 146 34 c 0,46,47
 193 34 193 34 215.5 72.5 c 128,-1,48
 238 111 238 111 238 166 c 0,49,50
 238 193 238 193 227 221 c 128,-1,51
 216 249 216 249 193.5 268.5 c 128,-1,52
 171 288 171 288 141 288 c 0,53,54
 120 288 120 288 95 276 c 128,-1,55
 70 264 70 264 49 237 c 1,56,-1
 17 237 l 1,0,-1
EndSplineSet
Validated: 1
EndChar

StartChar: six
Encoding: 54 54 25
Width: 394
Flags: W
LayerCount: 2
Fore
SplineSet
203 259 m 0,0,1
 175 259 175 259 156 223 c 0,2,3
 148 209 148 209 141 187 c 1,4,5
 137 169 137 169 136.5 159.5 c 128,-1,6
 136 150 136 150 136 145 c 0,7,8
 136 101 136 101 154.5 69 c 128,-1,9
 173 37 173 37 206 37 c 0,10,11
 237 37 237 37 254.5 73.5 c 128,-1,12
 272 110 272 110 272 164 c 0,13,14
 272 184 272 184 265 199 c 1,15,16
 261 215 261 215 249 231 c 0,17,18
 229 259 229 259 203 259 c 0,0,1
126 252 m 1,19,20
 188 289 188 289 249 289 c 0,21,22
 289 289 289 289 323 273.5 c 128,-1,23
 357 258 357 258 375 228 c 1,24,25
 394 200 394 200 394 164 c 0,26,27
 394 116 394 116 367.5 80.5 c 128,-1,28
 341 45 341 45 296 21 c 1,29,30
 251 0 251 0 206 0 c 0,31,32
 141 0 141 0 94 36 c 0,33,34
 72 54 72 54 54.5 77.5 c 128,-1,35
 37 101 37 101 25 132 c 128,-1,36
 13 163 13 163 8.5 184.5 c 128,-1,37
 4 206 4 206 2 221 c 128,-1,38
 0 236 0 236 0 252 c 256,39,40
 0 268 0 268 1.5 285.5 c 128,-1,41
 3 303 3 303 7 325 c 1,42,43
 12 343 12 343 17.5 361 c 128,-1,44
 23 379 23 379 31 396 c 0,45,46
 59 462 59 462 116 487 c 0,47,48
 180 516 180 516 225 516 c 0,49,50
 268 516 268 516 302 499 c 128,-1,51
 336 482 336 482 353 456 c 1,52,53
 371 432 371 432 371 407 c 0,54,55
 371 373 371 373 349 353 c 0,56,57
 342 347 342 347 327 340 c 128,-1,58
 312 333 312 333 296 333 c 0,59,60
 270 333 270 333 246 351 c 0,61,62
 233 361 233 361 228.5 369.5 c 128,-1,63
 224 378 224 378 222 395 c 1,64,-1
 233 426 l 2,65,66
 242 449 242 449 242 462 c 0,67,68
 242 479 242 479 217 479 c 0,69,70
 175 479 175 479 149.5 429.5 c 128,-1,71
 124 380 124 380 124 289 c 1,72,-1
 126 252 l 1,19,20
EndSplineSet
Validated: 1
EndChar

StartChar: seven
Encoding: 55 55 26
Width: 404
Flags: W
LayerCount: 2
Fore
SplineSet
330 375 m 1,0,1
 317 364 317 364 306 356 c 0,2,3
 299 351 299 351 278 340 c 128,-1,4
 257 329 257 329 235 329 c 1,5,6
 208 332 208 332 191 346 c 1,7,8
 166 375 166 375 143 391 c 1,9,10
 123 408 123 408 101 408 c 0,11,12
 66 408 66 408 37 342 c 1,13,-1
 0 342 l 1,14,-1
 0 497 l 1,15,-1
 37 497 l 1,16,17
 43 470 43 470 58 467 c 1,18,19
 70 468 70 468 80 475 c 1,20,-1
 90 480 l 1,21,-1
 104 490 l 2,22,23
 108 493 108 493 117 497 c 128,-1,24
 126 501 126 501 136.5 506 c 128,-1,25
 147 511 147 511 160 511 c 0,26,27
 218 511 218 511 268 457 c 1,28,29
 285 435 285 435 312 431 c 1,30,31
 352 435 352 435 365 497 c 1,32,-1
 404 497 l 1,33,34
 400 463 400 463 393 434 c 128,-1,35
 386 405 386 405 384 397.5 c 128,-1,36
 382 390 382 390 375 376 c 1,37,38
 368 357 368 357 354 330 c 2,39,-1
 321 270 l 1,40,41
 303 240 303 240 290 210.5 c 128,-1,42
 277 181 277 181 268 151 c 0,43,44
 252 94 252 94 252 0 c 1,45,-1
 78 0 l 1,46,47
 78 68 78 68 111 122 c 1,48,49
 146 174 146 174 217 239 c 1,50,51
 284 296 284 296 309 321 c 0,52,53
 330 342 330 342 330 375 c 1,0,1
EndSplineSet
Validated: 1
EndChar

StartChar: eight
Encoding: 56 56 27
Width: 386
Flags: W
LayerCount: 2
Fore
SplineSet
136 233 m 1,0,1
 104 206 104 206 89.5 186.5 c 128,-1,2
 75 167 75 167 72 138 c 1,3,4
 81 92 81 92 111 64.5 c 128,-1,5
 141 37 141 37 191 37 c 0,6,7
 224 37 224 37 252 54 c 1,8,9
 275 71 275 71 284 107 c 1,10,11
 284 128 284 128 267 148.5 c 128,-1,12
 250 169 250 169 225 183 c 2,13,-1
 171 213 l 1,14,15
 139 229 139 229 136 233 c 1,0,1
247 307 m 1,16,17
 300 349 300 349 300 397 c 0,18,19
 300 437 300 437 264.5 456.5 c 128,-1,20
 229 476 229 476 184 476 c 0,21,22
 150 476 150 476 127 461.5 c 128,-1,23
 104 447 104 447 104 423 c 1,24,25
 106 409 106 409 113 396 c 128,-1,26
 120 383 120 383 131 371 c 1,27,28
 157 348 157 348 180 336 c 1,29,-1
 212 322 l 1,30,-1
 247 307 l 1,16,17
92 256 m 1,31,32
 58 272 58 272 34 307 c 0,33,34
 21 326 21 326 15.5 343 c 128,-1,35
 10 360 10 360 10 379 c 0,36,37
 10 409 10 409 25 435 c 1,38,39
 43 462 43 462 70 480 c 0,40,41
 124 515 124 515 194 515 c 0,42,43
 205 515 205 515 212.5 515 c 128,-1,44
 220 515 220 515 231 512 c 1,45,46
 239 512 239 512 245 511 c 128,-1,47
 251 510 251 510 272 503 c 0,48,49
 313 491 313 491 342 464.5 c 128,-1,50
 371 438 371 438 371 400 c 0,51,52
 371 343 371 343 300 281 c 1,53,54
 335 261 335 261 360.5 227 c 128,-1,55
 386 193 386 193 386 158 c 0,56,57
 386 110 386 110 352 72.5 c 128,-1,58
 318 35 318 35 267.5 17.5 c 128,-1,59
 217 0 217 0 171 0 c 0,60,61
 127 0 127 0 88 16 c 1,62,63
 50 29 50 29 24 61 c 1,64,65
 0 93 0 93 0 136 c 0,66,67
 0 209 0 209 92 256 c 1,31,32
EndSplineSet
Validated: 1
EndChar

StartChar: nine
Encoding: 57 57 28
Width: 397
Flags: W
LayerCount: 2
Fore
SplineSet
191 261 m 0,0,1
 221 261 221 261 239 294.5 c 128,-1,2
 257 328 257 328 257 375 c 0,3,4
 257 412 257 412 237 444 c 128,-1,5
 217 476 217 476 191 476 c 0,6,7
 163 476 163 476 142 443 c 1,8,9
 123 407 123 407 123 368 c 0,10,11
 123 324 123 324 141.5 292.5 c 128,-1,12
 160 261 160 261 191 261 c 0,0,1
268 261 m 1,13,14
 219 224 219 224 145 224 c 0,15,16
 100 224 100 224 64 245 c 1,17,18
 29 263 29 263 12 303 c 0,19,20
 6 317 6 317 0 356 c 1,21,22
 0 396 0 396 23.5 431.5 c 128,-1,23
 47 467 47 467 90 491 c 1,24,25
 136 513 136 513 194 513 c 0,26,27
 245 513 245 513 283 493.5 c 128,-1,28
 321 474 321 474 345.5 441 c 128,-1,29
 370 408 370 408 383.5 363.5 c 128,-1,30
 397 319 397 319 397 271 c 0,31,32
 397 224 397 224 383 174.5 c 128,-1,33
 369 125 369 125 342 87.5 c 128,-1,34
 315 50 315 50 274 26 c 0,35,36
 264 20 264 20 253.5 15 c 128,-1,37
 243 10 243 10 231 7 c 1,38,39
 211 0 211 0 184 0 c 0,40,41
 136 0 136 0 100.5 16 c 128,-1,42
 65 32 65 32 44.5 57 c 128,-1,43
 24 82 24 82 24 104 c 0,44,45
 24 138 24 138 46 161 c 1,46,47
 69 182 69 182 97 182 c 0,48,49
 127 182 127 182 149 163.5 c 128,-1,50
 171 145 171 145 171 115 c 0,51,52
 171 103 171 103 162 80 c 2,53,-1
 155 63 l 1,54,-1
 150 48 l 1,55,56
 153 35 153 35 182 35 c 0,57,58
 268 35 268 35 268 261 c 1,13,14
EndSplineSet
Validated: 5
EndChar

StartChar: colon
Encoding: 58 58 29
Width: 153
Flags: W
LayerCount: 2
Fore
SplineSet
77 107 m 1,0,-1
 0 -107 l 1,1,-1
 -76 107 l 1,2,-1
 -40 107 l 1,3,4
 -25 101 -25 101 -14 77 c 0,5,6
 -9 66 -9 66 0 63 c 1,7,8
 6 65 6 65 20 89 c 0,9,10
 27 102 27 102 40 107 c 1,11,-1
 77 107 l 1,0,-1
EndSplineSet
Validated: 1
EndChar

StartChar: semicolon
Encoding: 59 59 30
Width: 153
Flags: W
LayerCount: 2
Fore
SplineSet
77 -107 m 1,0,-1
 40 -107 l 1,1,2
 25 -101 25 -101 14 -77 c 0,3,4
 9 -66 9 -66 0 -63 c 1,5,6
 -6 -65 -6 -65 -20 -89 c 0,7,8
 -27 -102 -27 -102 -40 -107 c 1,9,-1
 -76 -107 l 1,10,-1
 0 107 l 1,11,-1
 77 -107 l 1,0,-1
EndSplineSet
Validated: 1
EndChar

StartChar: less
Encoding: 60 60 31
Width: 274
Flags: W
LayerCount: 2
Fore
SplineSet
159 -132 m 1,0,-1
 100 -132 l 1,1,-1
 -8 48 l 1,2,-1
 -90 -132 l 1,3,-1
 -114 -132 l 1,4,-1
 0 133 l 1,5,-1
 159 -132 l 1,0,-1
EndSplineSet
Validated: 1
EndChar

StartChar: equal
Encoding: 61 61 32
Width: 326
Flags: W
LayerCount: 2
Fore
SplineSet
-163 -193 m 1,0,-1
 -163 -110 l 1,1,-1
 163 56 l 1,2,-1
 163 -30 l 1,3,-1
 -163 -193 l 1,0,-1
-163 -57 m 1,4,-1
 -163 27 l 1,5,-1
 163 193 l 1,6,-1
 163 110 l 1,7,-1
 -163 -57 l 1,4,-1
EndSplineSet
Validated: 1
EndChar

StartChar: greater
Encoding: 62 62 33
Width: 347
Flags: W
LayerCount: 2
Fore
SplineSet
-173 118 m 1,0,-1
 174 -1 l 1,1,-1
 -173 -118 l 1,2,-1
 -173 -90 l 1,3,-1
 84 -1 l 1,4,-1
 -173 90 l 1,5,-1
 -173 118 l 1,0,-1
EndSplineSet
Validated: 1
EndChar

StartChar: question
Encoding: 63 63 34
Width: 753
Flags: W
LayerCount: 2
Fore
SplineSet
-376 -57 m 1,0,-1
 -338 -57 l 1,1,2
 -338 -35 -338 -35 -337 -25.5 c 128,-1,3
 -336 -16 -336 -16 -329 4 c 128,-1,4
 -322 24 -322 24 -318 33 c 128,-1,5
 -314 42 -314 42 -305 58 c 0,6,7
 -277 109 -277 109 -228.5 147.5 c 128,-1,8
 -180 186 -180 186 -117 209 c 128,-1,9
 -54 232 -54 232 1 232 c 0,10,11
 78 232 78 232 154 195 c 128,-1,12
 230 158 230 158 283 90 c 0,13,14
 295 73 295 73 305.5 54.5 c 128,-1,15
 316 36 316 36 322 18 c 0,16,17
 336 -19 336 -19 336 -57 c 1,18,-1
 377 -57 l 1,19,20
 372 -12 372 -12 364 20 c 1,21,22
 357 56 357 56 341 94 c 0,23,24
 313 164 313 164 263.5 223 c 128,-1,25
 214 282 214 282 148 314 c 0,26,27
 115 330 115 330 77.5 339 c 128,-1,28
 40 348 40 348 1 348 c 0,29,30
 -78 348 -78 348 -145 316 c 128,-1,31
 -212 284 -212 284 -262 225 c 0,32,33
 -286 198 -286 198 -305 167 c 128,-1,34
 -324 136 -324 136 -341 95 c 1,35,36
 -353 61 -353 61 -362.5 21.5 c 128,-1,37
 -372 -18 -372 -18 -376 -57 c 1,0,-1
-62 1 m 0,38,39
 -62 -22 -62 -22 -43.5 -39.5 c 128,-1,40
 -25 -57 -25 -57 -1 -57 c 0,41,42
 27 -57 27 -57 45.5 -40 c 128,-1,43
 64 -23 64 -23 64 1 c 0,44,45
 64 23 64 23 46.5 40 c 128,-1,46
 29 57 29 57 -1 57 c 0,47,48
 -27 57 -27 57 -44.5 39.5 c 128,-1,49
 -62 22 -62 22 -62 1 c 0,38,39
EndSplineSet
Validated: 9
EndChar

StartChar: at
Encoding: 64 64 35
Width: 753
Flags: W
LayerCount: 2
Fore
SplineSet
64 -1 m 0,0,1
 64 -23 64 -23 46 -41 c 1,2,3
 26 -58 26 -58 -1 -58 c 0,4,5
 -24 -58 -24 -58 -43 -40 c 128,-1,6
 -62 -22 -62 -22 -62 -1 c 0,7,8
 -62 22 -62 22 -43.5 39.5 c 128,-1,9
 -25 57 -25 57 -1 57 c 0,10,11
 27 57 27 57 45.5 40 c 128,-1,12
 64 23 64 23 64 -1 c 0,0,1
377 57 m 1,13,14
 372 12 372 12 364 -20 c 1,15,16
 357 -56 357 -56 341 -94 c 0,17,18
 313 -164 313 -164 263.5 -223 c 128,-1,19
 214 -282 214 -282 148 -314 c 0,20,21
 115 -330 115 -330 77.5 -339 c 128,-1,22
 40 -348 40 -348 1 -348 c 0,23,24
 -78 -348 -78 -348 -144.5 -316 c 128,-1,25
 -211 -284 -211 -284 -262 -226 c 0,26,27
 -286 -198 -286 -198 -305 -166.5 c 128,-1,28
 -324 -135 -324 -135 -341 -95 c 1,29,30
 -353 -61 -353 -61 -362.5 -21.5 c 128,-1,31
 -372 18 -372 18 -376 57 c 1,32,-1
 -338 57 l 1,33,34
 -338 35 -338 35 -337 26 c 128,-1,35
 -336 17 -336 17 -329.5 -2 c 128,-1,36
 -323 -21 -323 -21 -317 -35 c 0,37,38
 -314 -42 -314 -42 -305 -58 c 0,39,40
 -276 -110 -276 -110 -226 -149.5 c 128,-1,41
 -176 -189 -176 -189 -116.5 -210 c 128,-1,42
 -57 -231 -57 -231 1 -231 c 0,43,44
 81 -231 81 -231 156.5 -194.5 c 128,-1,45
 232 -158 232 -158 283 -89 c 0,46,47
 309 -54 309 -54 322.5 -17.5 c 128,-1,48
 336 19 336 19 336 57 c 1,49,-1
 377 57 l 1,13,14
EndSplineSet
Validated: 1
EndChar

StartChar: A
Encoding: 65 65 36
Width: 468
Flags: W
LayerCount: 2
Fore
SplineSet
1 58 m 1,0,-1
 -26 30 l 1,1,-1
 -68 -12 l 1,2,3
 -92 -33 -92 -33 -113 -45.5 c 128,-1,4
 -134 -58 -134 -58 -150 -58 c 0,5,6
 -162 -58 -162 -58 -170.5 -51 c 128,-1,7
 -179 -44 -179 -44 -187 -30 c 1,8,-1
 -199 -4 l 1,9,10
 -204 10 -204 10 -204 15 c 128,-1,11
 -204 20 -204 20 -204 23 c 0,12,13
 -204 66 -204 66 -164 66 c 1,14,-1
 -155 64 l 1,15,-1
 -144 55 l 1,16,-1
 -137 48 l 1,17,-1
 -129 43 l 1,18,19
 -121 40 -121 40 -113 40 c 0,20,21
 -87 40 -87 40 -80 68 c 1,22,23
 -80 95 -80 95 -98.5 108.5 c 128,-1,24
 -117 122 -117 122 -138 122 c 0,25,26
 -154 122 -154 122 -161 121 c 128,-1,27
 -168 120 -168 120 -179 114 c 1,28,29
 -196 107 -196 107 -210 90 c 0,30,31
 -234 60 -234 60 -234 17 c 0,32,33
 -234 -15 -234 -15 -221.5 -44.5 c 128,-1,34
 -209 -74 -209 -74 -185 -97 c 1,35,36
 -158 -119 -158 -119 -130 -122 c 1,37,38
 -91 -122 -91 -122 -55 -101 c 0,39,40
 -42 -93 -42 -93 -37 -90 c 0,41,42
 -25 -80 -25 -80 -18.5 -74.5 c 128,-1,43
 -12 -69 -12 -69 -3 -60.5 c 128,-1,44
 6 -52 6 -52 14 -44 c 2,45,-1
 79 23 l 1,46,-1
 89 32 l 1,47,-1
 111 48 l 1,48,49
 131 59 131 59 148 59 c 0,50,51
 161 59 161 59 172 52.5 c 128,-1,52
 183 46 183 46 189 37 c 0,53,54
 203 15 203 15 203 -11 c 0,55,56
 203 -34 203 -34 192.5 -50 c 128,-1,57
 182 -66 182 -66 164 -66 c 1,58,59
 161 -65 161 -65 156.5 -63 c 128,-1,60
 152 -61 152 -61 147 -57 c 2,61,-1
 129 -44 l 2,62,63
 124 -40 124 -40 111 -40 c 0,64,65
 99 -40 99 -40 89 -50 c 1,66,67
 81 -60 81 -60 79 -77 c 1,68,69
 79 -97 79 -97 98 -110 c 1,70,71
 106 -114 106 -114 115 -117.5 c 128,-1,72
 124 -121 124 -121 137 -121 c 0,73,74
 167 -121 167 -121 188.5 -103 c 128,-1,75
 210 -85 210 -85 222 -58.5 c 128,-1,76
 234 -32 234 -32 234 4 c 0,77,78
 234 39 234 39 222 63 c 1,79,80
 213 87 213 87 188 104.5 c 128,-1,81
 163 122 163 122 128 122 c 0,82,83
 94 122 94 122 65 107 c 1,84,85
 52 99 52 99 35 86 c 128,-1,86
 18 73 18 73 1 58 c 1,0,-1
EndSplineSet
Validated: 9
EndChar

StartChar: B
Encoding: 66 66 37
Width: 275
Flags: W
LayerCount: 2
Fore
SplineSet
86 200 m 1,0,1
 63 226 63 226 58 267 c 1,2,3
 58 283 58 283 66 300 c 128,-1,4
 74 317 74 317 89 329 c 0,5,6
 121 352 121 352 167 352 c 0,7,8
 211 352 211 352 238.5 325 c 128,-1,9
 266 298 266 298 266 267 c 0,10,11
 266 242 266 242 249 222 c 128,-1,12
 232 202 232 202 198 186 c 1,13,14
 230 148 230 148 230 106 c 0,15,16
 230 71 230 71 200 45 c 1,17,18
 168 21 168 21 110 21 c 0,19,20
 59 21 59 21 29.5 46 c 128,-1,21
 0 71 0 71 0 106 c 0,22,23
 0 133 0 133 22 161 c 0,24,25
 41 185 41 185 86 200 c 1,0,1
98 188 m 1,26,27
 69 170 69 170 54.5 150 c 128,-1,28
 40 130 40 130 40 106 c 1,29,30
 43 72 43 72 61.5 59 c 128,-1,31
 80 46 80 46 116 41 c 1,32,33
 141 41 141 41 154.5 53.5 c 128,-1,34
 168 66 168 66 168 91 c 1,35,36
 164 123 164 123 98 188 c 1,26,27
187 200 m 1,37,38
 226 230 226 230 226 271 c 0,39,40
 226 296 226 296 209.5 315.5 c 128,-1,41
 193 335 193 335 168 335 c 0,42,43
 126 335 126 335 121 291 c 1,44,-1
 123 279 l 1,45,46
 134 246 134 246 187 200 c 1,37,38
EndSplineSet
Validated: 1
EndChar

StartChar: C
Encoding: 67 67 38
Width: 2068
Flags: W
LayerCount: 2
Fore
SplineSet
156 78 m 1,0,-1
 164 73 l 1,1,2
 151 40 151 40 132 23 c 1,3,4
 105 -7 105 -7 67 -7 c 0,5,6
 31 -7 31 -7 14 17 c 1,7,8
 0 34 0 34 0 69 c 0,9,10
 0 99 0 99 11 128.5 c 128,-1,11
 22 158 22 158 45 190 c 0,12,13
 90 252 90 252 140 252 c 0,14,15
 159 252 159 252 170 243 c 128,-1,16
 181 234 181 234 184 222 c 2,17,-1
 185 218 l 1,18,19
 185 195 185 195 164 195 c 1,20,21
 156 197 156 197 152 200 c 1,22,23
 147 207 147 207 147 213 c 0,24,25
 147 218 147 218 151 225 c 2,26,-1
 155 232 l 1,27,28
 155 238 155 238 142 239 c 1,29,30
 95 239 95 239 64 156 c 1,31,32
 39 92 39 92 39 50 c 0,33,34
 39 6 39 6 73 6 c 0,35,36
 95 6 95 6 110 17 c 0,37,38
 132 33 132 33 156 78 c 1,0,-1
307 102 m 1,39,-1
 272 0 l 1,40,-1
 232 0 l 1,41,42
 252 51 252 51 268 108 c 1,43,-1
 280 159 l 1,44,45
 285 186 285 186 285 204 c 0,46,47
 285 217 285 217 282.5 224 c 128,-1,48
 280 231 280 231 270 233 c 1,49,50
 257 233 257 233 234 194 c 1,51,-1
 219 161 l 1,52,-1
 209 164 l 1,53,54
 216 182 216 182 220 191 c 0,55,56
 229 210 229 210 242 224 c 1,57,58
 261 250 261 250 287 250 c 0,59,60
 302 250 302 250 310 236 c 1,61,62
 317 220 317 220 317 200 c 1,63,-1
 314 166 l 1,64,-1
 310 145 l 1,65,-1
 332 199 l 1,66,67
 361 251 361 251 397 251 c 0,68,69
 408 251 408 251 413 246 c 1,70,71
 422 240 422 240 422 225 c 0,72,73
 422 216 422 216 418.5 209.5 c 128,-1,74
 415 203 415 203 404 202 c 1,75,-1
 394 204 l 1,76,77
 390 207 390 207 387 220 c 1,78,79
 387 226 387 226 384 230 c 0,80,81
 383 230 383 230 382 231 c 1,82,83
 349 231 349 231 307 102 c 1,39,-1
479 106 m 1,84,85
 504 117 504 117 519.5 127 c 128,-1,86
 535 137 535 137 552 156 c 0,87,88
 582 188 582 188 582 217 c 0,89,90
 582 225 582 225 576.5 232.5 c 128,-1,91
 571 240 571 240 563 240 c 0,92,93
 536 240 536 240 510 191 c 1,94,95
 488 152 488 152 479 106 c 1,84,85
576 73 m 1,96,-1
 586 69 l 1,97,98
 574 49 574 49 560.5 32.5 c 128,-1,99
 547 16 547 16 535 8 c 0,100,101
 513 -8 513 -8 486 -8 c 0,102,103
 454 -8 454 -8 439 13 c 0,104,105
 431 24 431 24 428.5 35.5 c 128,-1,106
 426 47 426 47 426 61 c 0,107,108
 426 124 426 124 474 187 c 128,-1,109
 522 250 522 250 571 250 c 0,110,111
 587 250 587 250 600 239 c 1,112,113
 609 228 609 228 611 210 c 1,114,115
 611 170 611 170 567 139 c 0,116,117
 548 125 548 125 525.5 114 c 128,-1,118
 503 103 503 103 475 93 c 1,119,-1
 468 72 l 1,120,-1
 465 40 l 1,121,122
 465 23 465 23 471.5 14.5 c 128,-1,123
 478 6 478 6 497 6 c 0,124,125
 515 6 515 6 540 26 c 0,126,127
 559 42 559 42 576 73 c 1,96,-1
621 34 m 0,128,129
 621 43 621 43 625 50 c 1,130,-1
 637 56 l 1,131,132
 646 53 646 53 649 50 c 128,-1,133
 652 47 652 47 654 35 c 1,134,-1
 652 20 l 2,135,136
 652 13 652 13 658 7 c 1,137,138
 663 4 663 4 685 4 c 0,139,140
 708 4 708 4 723 14.5 c 128,-1,141
 738 25 738 25 738 47 c 0,142,143
 738 56 738 56 736 59 c 1,144,145
 733 73 733 73 721 92 c 1,146,-1
 689 132 l 1,147,-1
 672 158 l 1,148,149
 667 172 667 172 667 177 c 128,-1,150
 667 182 667 182 667 185 c 0,151,152
 667 211 667 211 687 230 c 1,153,154
 699 240 699 240 711.5 245.5 c 128,-1,155
 724 251 724 251 740 251 c 0,156,157
 758 251 758 251 775 241 c 1,158,159
 791 229 791 229 791 215 c 256,160,161
 791 201 791 201 775 201 c 0,162,163
 765 201 765 201 764 205 c 1,164,165
 764 217 764 217 761 225 c 1,166,167
 758 241 758 241 738 241 c 0,168,169
 723 241 723 241 712 233 c 0,170,171
 697 221 697 221 697 204 c 0,172,173
 697 196 697 196 701 187 c 1,174,-1
 724 153 l 1,175,-1
 749 122 l 1,176,177
 758 106 758 106 763.5 91 c 128,-1,178
 769 76 769 76 769 66 c 0,179,180
 769 32 769 32 742.5 12 c 128,-1,181
 716 -8 716 -8 681 -8 c 0,182,183
 668 -8 668 -8 657.5 -6.5 c 128,-1,184
 647 -5 647 -5 637 5 c 1,185,186
 621 17 621 17 621 34 c 0,128,129
975 78 m 1,187,-1
 985 73 l 1,188,189
 971 43 971 43 953 23 c 1,190,191
 923 -7 923 -7 887 -7 c 256,192,193
 851 -7 851 -7 833 17 c 0,194,195
 820 33 820 33 820 69 c 0,196,197
 820 128 820 128 866 190 c 128,-1,198
 912 252 912 252 960 252 c 0,199,200
 979 252 979 252 990 243 c 1,201,202
 1003 235 1003 235 1004 222 c 1,203,-1
 1004 218 l 2,204,205
 1004 195 1004 195 985 195 c 1,206,207
 975 197 975 197 971 201 c 128,-1,208
 967 205 967 205 967 213 c 0,209,210
 967 218 967 218 971 225 c 2,211,-1
 975 232 l 1,212,213
 975 237 975 237 963 239 c 1,214,215
 916 239 916 239 885 156 c 1,216,217
 872 126 872 126 865.5 99.5 c 128,-1,218
 859 73 859 73 859 50 c 0,219,220
 859 6 859 6 894 6 c 0,221,222
 913 6 913 6 930 17 c 0,223,224
 952 32 952 32 975 78 c 1,187,-1
1087 106 m 1,225,226
 1113 118 1113 118 1127.5 127.5 c 128,-1,227
 1142 137 1142 137 1159 156 c 1,228,229
 1191 188 1191 188 1191 217 c 0,230,231
 1191 226 1191 226 1185 232 c 1,232,233
 1180 240 1180 240 1172 240 c 0,234,235
 1158 240 1158 240 1145 228 c 128,-1,236
 1132 216 1132 216 1117 191 c 0,237,238
 1107 173 1107 173 1099 150.5 c 128,-1,239
 1091 128 1091 128 1087 106 c 1,225,226
1185 73 m 1,240,-1
 1195 69 l 1,241,242
 1183 48 1183 48 1170.5 33 c 128,-1,243
 1158 18 1158 18 1144 8 c 0,244,245
 1121 -8 1121 -8 1095 -8 c 0,246,247
 1077 -8 1077 -8 1066 -3.5 c 128,-1,248
 1055 1 1055 1 1047 12.5 c 128,-1,249
 1039 24 1039 24 1036.5 35.5 c 128,-1,250
 1034 47 1034 47 1034 61 c 0,251,252
 1034 124 1034 124 1081.5 187 c 128,-1,253
 1129 250 1129 250 1179 250 c 0,254,255
 1196 250 1196 250 1207 238 c 128,-1,256
 1218 226 1218 226 1218 210 c 0,257,258
 1218 171 1218 171 1176 139 c 0,259,260
 1156 124 1156 124 1133.5 113.5 c 128,-1,261
 1111 103 1111 103 1083 93 c 1,262,-1
 1077 72 l 2,263,264
 1072 52 1072 52 1072 40 c 0,265,266
 1072 27 1072 27 1079 16.5 c 128,-1,267
 1086 6 1086 6 1104 6 c 0,268,269
 1124 6 1124 6 1149 26 c 1,270,271
 1158 35 1158 35 1167 46 c 128,-1,272
 1176 57 1176 57 1185 73 c 1,240,-1
1442 28 m 1,273,-1
 1441 20 l 1,274,275
 1442 12 1442 12 1443 10 c 1,276,277
 1448 7 1448 7 1450 7 c 0,278,279
 1470 7 1470 7 1494 45 c 1,280,281
 1501 60 1501 60 1503.5 65.5 c 128,-1,282
 1506 71 1506 71 1514 82 c 1,283,-1
 1522 78 l 1,284,285
 1504 36 1504 36 1494 21 c 1,286,287
 1473 -7 1473 -7 1444 -7 c 2,288,-1
 1437 -7 l 2,289,290
 1407 -7 1407 -7 1407 29 c 0,291,292
 1407 54 1407 54 1417 81 c 1,293,-1
 1446 171 l 1,294,-1
 1452 191 l 1,295,-1
 1456 212 l 1,296,297
 1456 221 1456 221 1451 229 c 1,298,299
 1446 234 1446 234 1437 234 c 0,300,301
 1427 234 1427 234 1415.5 227 c 128,-1,302
 1404 220 1404 220 1393 208 c 0,303,304
 1369 181 1369 181 1348 132 c 1,305,306
 1346 124 1346 124 1343 117 c 128,-1,307
 1340 110 1340 110 1337 103 c 2,308,-1
 1303 0 l 1,309,-1
 1264 0 l 1,310,-1
 1294 100 l 1,311,-1
 1311 164 l 1,312,313
 1316 192 1316 192 1316 209 c 0,314,315
 1316 232 1316 232 1304 233 c 0,316,317
 1293 233 1293 233 1281 218 c 1,318,-1
 1249 153 l 1,319,-1
 1239 157 l 1,320,321
 1256 210 1256 210 1279 232 c 1,322,323
 1297 251 1297 251 1323 251 c 0,324,325
 1337 251 1337 251 1346 237 c 1,326,-1
 1350 205 l 1,327,-1
 1347 171 l 2,328,329
 1347 164 1347 164 1346 159 c 0,330,331
 1342 146 1342 146 1341 141 c 1,332,333
 1372 210 1372 210 1403 231 c 1,334,335
 1424 249 1424 249 1448 249 c 0,336,337
 1467 249 1467 249 1478.5 234.5 c 128,-1,338
 1490 220 1490 220 1490 198 c 0,339,340
 1490 181 1490 181 1482 157 c 2,341,-1
 1442 28 l 1,273,-1
1615 5 m 0,342,343
 1650 5 1650 5 1687 85 c 1,344,345
 1717 154 1717 154 1717 197 c 0,346,347
 1717 216 1717 216 1711 224 c 1,348,349
 1705 238 1705 238 1686 238 c 0,350,351
 1654 238 1654 238 1618 169 c 128,-1,352
 1582 100 1582 100 1582 49 c 0,353,354
 1582 5 1582 5 1615 5 c 0,342,343
1787 87 m 1,355,-1
 1796 81 l 1,356,357
 1790 56 1790 56 1774 29 c 1,358,359
 1750 -4 1750 -4 1723 -7 c 1,360,361
 1704 -7 1704 -7 1695 6 c 0,362,363
 1691 12 1691 12 1689 19 c 128,-1,364
 1687 26 1687 26 1687 37 c 0,365,366
 1687 46 1687 46 1688.5 56.5 c 128,-1,367
 1690 67 1690 67 1691 73 c 1,368,-1
 1695 81 l 1,369,370
 1672 31 1672 31 1652 12 c 1,371,372
 1634 -7 1634 -7 1603 -7 c 0,373,374
 1579 -7 1579 -7 1563 9 c 0,375,376
 1553 19 1553 19 1548 32 c 128,-1,377
 1543 45 1543 45 1543 65 c 0,378,379
 1543 129 1543 129 1591.5 190 c 128,-1,380
 1640 251 1640 251 1681 251 c 0,381,382
 1708 251 1708 251 1726 219 c 1,383,-1
 1756 351 l 1,384,-1
 1757 363 l 1,385,386
 1757 377 1757 377 1738 377 c 1,387,-1
 1722 376 l 1,388,-1
 1725 389 l 1,389,-1
 1810 400 l 1,390,-1
 1747 157 l 1,391,-1
 1730 84 l 2,392,393
 1722 47 1722 47 1722 31 c 0,394,395
 1722 10 1722 10 1732 10 c 0,396,397
 1738 10 1738 10 1752 24 c 1,398,399
 1769 45 1769 45 1787 87 c 1,355,-1
1901 4 m 2,400,-1
 1908 3 l 1,401,402
 1932 3 1932 3 1950 26 c 128,-1,403
 1968 49 1968 49 1984 115 c 1,404,-1
 1992 152 l 2,405,406
 1996 169 1996 169 1996 186 c 0,407,408
 1996 210 1996 210 1989 221 c 1,409,410
 1983 235 1983 235 1967 238 c 2,411,-1
 1959 240 l 1,412,413
 1927 240 1927 240 1899 175 c 0,414,415
 1881 134 1881 134 1870 78 c 1,416,417
 1868 62 1868 62 1867 53 c 1,418,419
 1867 33 1867 33 1875 20 c 128,-1,420
 1883 7 1883 7 1901 4 c 2,400,-1
1897 -7 m 2,421,422
 1864 -7 1864 -7 1846 20 c 0,423,424
 1832 42 1832 42 1832 75 c 0,425,426
 1832 107 1832 107 1840 134.5 c 128,-1,427
 1848 162 1848 162 1868 191 c 0,428,429
 1907 251 1907 251 1960 251 c 0,430,431
 1992 251 1992 251 2012.5 226.5 c 128,-1,432
 2033 202 2033 202 2033 162 c 0,433,434
 2033 147 2033 147 2030.5 132 c 128,-1,435
 2028 117 2028 117 2023 103 c 0,436,437
 2010 59 2010 59 1981 27 c 1,438,439
 1947 -7 1947 -7 1906 -7 c 2,440,-1
 1897 -7 l 2,421,422
EndSplineSet
Validated: 5
EndChar

StartChar: D
Encoding: 68 68 39
Width: 468
Flags: W
LayerCount: 2
Fore
SplineSet
234 17 m 0,0,1
 234 -15 234 -15 221.5 -44.5 c 128,-1,2
 209 -74 209 -74 184.5 -96.5 c 128,-1,3
 160 -119 160 -119 130 -122 c 1,4,5
 91 -122 91 -122 55 -101 c 0,6,7
 45 -95 45 -95 38 -90 c 0,8,9
 26 -80 26 -80 21 -76 c 0,10,11
 3 -63 3 -63 -14 -44 c 1,12,-1
 -79 23 l 1,13,-1
 -89 32 l 1,14,-1
 -111 48 l 1,15,16
 -131 59 -131 59 -148 59 c 0,17,18
 -161 59 -161 59 -172 52.5 c 128,-1,19
 -183 46 -183 46 -189 37 c 0,20,21
 -202 17 -202 17 -202 -11 c 0,22,23
 -202 -36 -202 -36 -191 -50 c 1,24,25
 -182 -66 -182 -66 -164 -66 c 0,26,27
 -158 -66 -158 -66 -147 -57 c 2,28,-1
 -129 -44 l 2,29,30
 -124 -40 -124 -40 -111 -40 c 0,31,32
 -99 -40 -99 -40 -89 -50 c 1,33,34
 -81 -60 -81 -60 -79 -77 c 1,35,36
 -79 -98 -79 -98 -97 -110 c 1,37,38
 -105 -114 -105 -114 -114.5 -117.5 c 128,-1,39
 -124 -121 -124 -121 -137 -121 c 0,40,41
 -167 -121 -167 -121 -188.5 -103 c 128,-1,42
 -210 -85 -210 -85 -222 -56.5 c 128,-1,43
 -234 -28 -234 -28 -234 4 c 256,44,45
 -234 36 -234 36 -222 63 c 1,46,47
 -213 87 -213 87 -188 104.5 c 128,-1,48
 -163 122 -163 122 -128 122 c 0,49,50
 -94 122 -94 122 -65 107 c 1,51,52
 -36 90 -36 90 -1 58 c 1,53,-1
 26 30 l 1,54,-1
 68 -12 l 1,55,56
 92 -33 92 -33 113 -45.5 c 128,-1,57
 134 -58 134 -58 151 -58 c 0,58,59
 162 -58 162 -58 169.5 -51.5 c 128,-1,60
 177 -45 177 -45 179.5 -42 c 128,-1,61
 182 -39 182 -39 187 -30 c 2,62,-1
 200 -4 l 1,63,64
 201 2 201 2 202.5 8 c 128,-1,65
 204 14 204 14 204 23 c 0,66,67
 204 66 204 66 164 66 c 1,68,-1
 155 64 l 1,69,-1
 144 55 l 1,70,-1
 137 48 l 1,71,-1
 129 43 l 2,72,73
 123 40 123 40 113 40 c 0,74,75
 89 40 89 40 80 68 c 1,76,77
 80 96 80 96 98 109 c 128,-1,78
 116 122 116 122 138 122 c 0,79,80
 154 122 154 122 161 121 c 128,-1,81
 168 120 168 120 179 114 c 1,82,83
 196 107 196 107 210 90 c 0,84,85
 234 60 234 60 234 17 c 0,0,1
EndSplineSet
Validated: 1
EndChar

StartChar: E
Encoding: 69 69 40
Width: 477
Flags: W
LayerCount: 2
Fore
SplineSet
369 -7 m 1,0,-1
 0 -7 l 1,1,-1
 0 7 l 1,2,-1
 369 7 l 1,3,-1
 316 53 l 1,4,-1
 316 74 l 1,5,-1
 477 -1 l 1,6,-1
 316 -74 l 1,7,-1
 316 -53 l 1,8,-1
 369 -7 l 1,0,-1
EndSplineSet
Validated: 1
EndChar

StartChar: F
Encoding: 70 70 41
Width: 236
Flags: W
LayerCount: 2
Fore
SplineSet
-387 220 m 1,0,1
 -400 137 -400 137 -429.5 39.5 c 128,-1,2
 -459 -58 -459 -58 -480 -98 c 1,3,4
 -502 -144 -502 -144 -527.5 -177.5 c 128,-1,5
 -553 -211 -553 -211 -592 -221 c 1,6,-1
 -610 -223 l 1,7,8
 -642 -223 -642 -223 -659 -197 c 0,9,10
 -665 -188 -665 -188 -668 -181 c 128,-1,11
 -671 -174 -671 -174 -674 -165 c 128,-1,12
 -677 -156 -677 -156 -677 -136 c 0,13,14
 -677 -108 -677 -108 -665 -93.5 c 128,-1,15
 -653 -79 -653 -79 -632 -69 c 1,16,17
 -623 -69 -623 -69 -618 -73 c 1,18,19
 -615 -74 -615 -74 -612 -77 c 128,-1,20
 -609 -80 -609 -80 -605 -84 c 0,21,22
 -595 -97 -595 -97 -595 -118 c 0,23,24
 -595 -140 -595 -140 -627 -183 c 1,25,26
 -627 -190 -627 -190 -618 -190 c 0,27,28
 -567 -190 -567 -190 -536 -51 c 1,29,-1
 -529 -22 l 1,30,-1
 -516 38 l 1,31,-1
 -494 140 l 1,32,-1
 -477 220 l 1,33,-1
 -618 220 l 1,34,35
 -630 144 -630 144 -659.5 46 c 128,-1,36
 -689 -52 -689 -52 -711 -98 c 0,37,38
 -761 -206 -761 -206 -821 -221 c 1,39,-1
 -840 -223 l 1,40,41
 -872 -223 -872 -223 -889 -197 c 0,42,43
 -896 -187 -896 -187 -903 -169 c 1,44,-1
 -908 -136 l 1,45,46
 -906 -120 -906 -120 -903 -108.5 c 128,-1,47
 -900 -97 -900 -97 -895 -90 c 0,48,49
 -885 -77 -885 -77 -862 -69 c 1,50,51
 -846 -69 -846 -69 -835 -84 c 128,-1,52
 -824 -99 -824 -99 -824 -118 c 0,53,54
 -824 -130 -824 -130 -830 -141 c 2,55,-1
 -844 -164 l 1,56,-1
 -858 -183 l 1,57,58
 -858 -190 -858 -190 -848 -190 c 0,59,60
 -832 -190 -832 -190 -818 -175 c 1,61,62
 -804 -163 -804 -163 -795 -140 c 0,63,64
 -792 -135 -792 -135 -787.5 -123 c 128,-1,65
 -783 -111 -783 -111 -781 -104 c 2,66,-1
 -766 -51 l 1,67,-1
 -747 35 l 1,68,-1
 -725 140 l 2,69,70
 -720 162 -720 162 -716 182 c 128,-1,71
 -712 202 -712 202 -707 220 c 1,72,-1
 -764 220 l 1,73,-1
 -764 258 l 1,74,-1
 -695 258 l 1,75,76
 -681 307 -681 307 -655 347 c 1,77,78
 -630 389 -630 389 -592 417 c 1,79,80
 -554 442 -554 442 -509 442 c 0,81,82
 -487 442 -487 442 -472 423 c 1,83,84
 -460 405 -460 405 -460 376 c 256,85,86
 -460 347 -460 347 -473 325 c 1,87,88
 -488 304 -488 304 -510 300 c 1,89,90
 -536 300 -536 300 -539 332 c 1,91,92
 -539 350 -539 350 -528.5 368.5 c 128,-1,93
 -518 387 -518 387 -502 394 c 1,94,95
 -497 394 -497 394 -497 400 c 1,96,-1
 -503 409 l 1,97,98
 -511 414 -511 414 -521 414 c 0,99,100
 -555 414 -555 414 -576 365.5 c 128,-1,101
 -597 317 -597 317 -608 260 c 1,102,-1
 -464 260 l 1,103,104
 -443 336 -443 336 -394 389 c 128,-1,105
 -345 442 -345 442 -279 442 c 0,106,107
 -267 442 -267 442 -258 437.5 c 128,-1,108
 -249 433 -249 433 -243 422 c 1,109,110
 -239 417 -239 417 -234.5 405 c 128,-1,111
 -230 393 -230 393 -230 376 c 0,112,113
 -230 349 -230 349 -243 325 c 1,114,115
 -255 307 -255 307 -280 300 c 1,116,117
 -307 300 -307 300 -310 332 c 0,118,119
 -310 341 -310 341 -307 350 c 128,-1,120
 -304 359 -304 359 -299 368 c 128,-1,121
 -294 377 -294 377 -287.5 383.5 c 128,-1,122
 -281 390 -281 390 -273 394 c 1,123,124
 -268 394 -268 394 -268 400 c 1,125,126
 -271 407 -271 407 -274 409 c 0,127,128
 -281 414 -281 414 -291 414 c 0,129,130
 -347 414 -347 414 -379 258 c 1,131,-1
 -235 258 l 1,132,133
 -213 332 -213 332 -163 390 c 0,134,135
 -116 444 -116 444 -49 444 c 0,136,137
 -35 444 -35 444 -28 438 c 1,138,139
 -20 434 -20 434 -12 421 c 0,140,141
 0 401 0 401 0 374 c 0,142,143
 0 345 0 345 -15 325 c 1,144,145
 -26 305 -26 305 -51 300 c 1,146,147
 -75 300 -75 300 -78 332 c 1,148,149
 -78 349 -78 349 -67.5 367.5 c 128,-1,150
 -57 386 -57 386 -43 394 c 1,151,152
 -37 394 -37 394 -37 400 c 1,153,154
 -41 407 -41 407 -44 409 c 0,155,156
 -51 414 -51 414 -61 414 c 0,157,158
 -117 414 -117 414 -149 258 c 1,159,-1
 -73 258 l 1,160,-1
 -73 220 l 1,161,-1
 -158 220 l 1,162,163
 -168 154 -168 154 -184 99 c 1,164,165
 -200 33 -200 33 -217 -16 c 128,-1,166
 -234 -65 -234 -65 -250 -98 c 1,167,168
 -262 -120 -262 -120 -274.5 -140.5 c 128,-1,169
 -287 -161 -287 -161 -300 -177 c 0,170,171
 -324 -209 -324 -209 -361 -221 c 1,172,-1
 -379 -223 l 1,173,174
 -412 -223 -412 -223 -428 -198 c 0,175,176
 -436 -187 -436 -187 -441 -169 c 1,177,178
 -447 -154 -447 -154 -447 -136 c 1,179,180
 -444 -108 -444 -108 -433.5 -92 c 128,-1,181
 -423 -76 -423 -76 -401 -69 c 1,182,183
 -386 -69 -386 -69 -375.5 -82.5 c 128,-1,184
 -365 -96 -365 -96 -365 -116 c 0,185,186
 -365 -125 -365 -125 -370 -140 c 1,187,-1
 -374 -147 l 1,188,-1
 -384 -162 l 2,189,190
 -390 -170 -390 -170 -392.5 -174 c 128,-1,191
 -395 -178 -395 -178 -397 -183 c 1,192,193
 -397 -190 -397 -190 -387 -190 c 0,194,195
 -359 -190 -359 -190 -339 -148 c 1,196,197
 -330 -126 -330 -126 -321.5 -102.5 c 128,-1,198
 -313 -79 -313 -79 -306 -51 c 2,199,-1
 -287 35 l 1,200,-1
 -265 134 l 1,201,-1
 -247 220 l 1,202,-1
 -387 220 l 1,0,1
EndSplineSet
Validated: 1
EndChar

StartChar: G
Encoding: 71 71 42
Width: 497
Flags: W
LayerCount: 2
Fore
SplineSet
517 233 m 1,0,-1
 453 233 l 1,1,2
 453 209 453 209 440 160 c 1,3,-1
 426 121 l 1,4,-1
 410 90 l 1,5,6
 401 78 401 78 388.5 63 c 128,-1,7
 376 48 376 48 362.5 36.5 c 128,-1,8
 349 25 349 25 317 14 c 0,9,10
 299 8 299 8 266 0 c 1,11,-1
 266 -73 l 1,12,-1
 231 -73 l 1,13,-1
 231 0 l 1,14,15
 205 4 205 4 192 6 c 128,-1,16
 179 8 179 8 169 12 c 1,17,18
 151 22 151 22 134 36 c 0,19,20
 109 57 109 57 87 90 c 0,21,22
 72 113 72 113 58 160 c 2,23,-1
 47 199 l 1,24,-1
 45 233 l 1,25,-1
 -20 233 l 1,26,-1
 -20 273 l 1,27,-1
 45 273 l 1,28,29
 45 293 45 293 47 307 c 128,-1,30
 49 321 49 321 57 346 c 1,31,32
 62 365 62 365 70.5 384 c 128,-1,33
 79 403 79 403 87 416 c 1,34,-1
 110 446 l 1,35,-1
 134 471 l 1,36,37
 146 480 146 480 150 482 c 0,38,39
 159 488 159 488 168 492 c 128,-1,40
 177 496 177 496 195.5 499.5 c 128,-1,41
 214 503 214 503 231 506 c 1,42,-1
 231 580 l 1,43,-1
 266 580 l 1,44,-1
 266 506 l 1,45,46
 281 504 281 504 298.5 501.5 c 128,-1,47
 316 499 316 499 327 493 c 1,48,49
 347 485 347 485 362 471 c 1,50,51
 386 451 386 451 410 416 c 1,52,53
 423 393 423 393 438 346 c 128,-1,54
 453 299 453 299 453 273 c 1,55,-1
 517 273 l 1,56,-1
 517 233 l 1,0,-1
350 273 m 1,57,-1
 349 295 l 1,58,-1
 347 332 l 1,59,60
 347 358 347 358 338 390 c 1,61,62
 333 421 333 421 313 444 c 0,63,64
 288 471 288 471 266 471 c 1,65,-1
 266 273 l 1,66,-1
 350 273 l 1,57,-1
231 273 m 1,67,-1
 231 471 l 1,68,69
 209 471 209 471 185 445 c 1,70,71
 162 417 162 417 158 393 c 2,72,-1
 154 366 l 1,73,-1
 150 339 l 1,74,-1
 149 303 l 2,75,76
 149 284 149 284 147 273 c 1,77,-1
 231 273 l 1,67,-1
350 233 m 1,78,-1
 266 233 l 1,79,-1
 266 37 l 1,80,81
 289 37 289 37 312 61 c 1,82,83
 332 84 332 84 338 115 c 1,84,-1
 347 177 l 1,85,-1
 350 233 l 1,78,-1
231 37 m 1,86,-1
 231 233 l 1,87,-1
 147 233 l 1,88,-1
 147 212 l 1,89,-1
 149 175 l 1,90,91
 149 149 149 149 158 116 c 0,92,93
 160 106 160 106 165.5 92 c 128,-1,94
 171 78 171 78 184 61 c 1,95,96
 207 37 207 37 231 37 c 1,86,-1
EndSplineSet
Validated: 1
EndChar

StartChar: H
Encoding: 72 72 43
Width: 424
Flags: W
LayerCount: 2
Fore
SplineSet
252 406 m 1,0,-1
 252 0 l 1,1,-1
 204 0 l 1,2,-1
 204 214 l 1,3,-1
 48 214 l 1,4,-1
 48 0 l 1,5,-1
 0 0 l 1,6,-1
 0 453 l 1,7,-1
 48 453 l 1,8,-1
 48 267 l 1,9,-1
 204 267 l 1,10,-1
 204 453 l 1,11,-1
 252 453 l 1,12,-1
 252 406 l 1,0,-1
252 453 m 1,13,-1
 424 453 l 1,14,-1
 424 406 l 1,15,-1
 252 406 l 1,16,-1
 252 453 l 1,13,-1
EndSplineSet
Validated: 5
EndChar

StartChar: I
Encoding: 73 73 44
Width: 324
Flags: W
LayerCount: 2
Fore
SplineSet
162 175 m 1,0,-1
 -162 11 l 1,1,-1
 -162 95 l 1,2,-1
 162 258 l 1,3,-1
 162 175 l 1,0,-1
162 40 m 1,4,-1
 -162 -124 l 1,5,-1
 -162 -40 l 1,6,-1
 162 124 l 1,7,-1
 162 40 l 1,4,-1
162 -95 m 1,8,-1
 -162 -258 l 1,9,-1
 -162 -175 l 1,10,-1
 162 -11 l 1,11,-1
 162 -95 l 1,8,-1
EndSplineSet
Validated: 1
EndChar

StartChar: J
Encoding: 74 74 45
Width: 349
Flags: W
LayerCount: 2
Fore
SplineSet
349 0 m 1,0,-1
 0 353 l 1,1,-1
 0 380 l 1,2,-1
 349 27 l 1,3,-1
 349 0 l 1,0,-1
EndSplineSet
Validated: 1
EndChar

StartChar: K
Encoding: 75 75 46
Width: 357
Flags: W
LayerCount: 2
Fore
SplineSet
357 -19 m 1,0,-1
 38 -19 l 1,1,-1
 38 -238 l 1,2,-1
 0 -238 l 1,3,-1
 0 18 l 1,4,-1
 357 18 l 1,5,-1
 357 -19 l 1,0,-1
EndSplineSet
Validated: 1
EndChar

StartChar: L
Encoding: 76 76 47
Width: 357
Flags: W
LayerCount: 2
Fore
SplineSet
357 -238 m 1,0,-1
 320 -238 l 1,1,-1
 320 -19 l 1,2,-1
 0 -19 l 1,3,-1
 0 18 l 1,4,-1
 357 18 l 1,5,-1
 357 -238 l 1,0,-1
EndSplineSet
Validated: 1
EndChar

StartChar: M
Encoding: 77 77 48
Width: 453
Flags: W
LayerCount: 2
Fore
SplineSet
194 318 m 1,0,-1
 127 52 l 1,1,-1
 125 46 l 1,2,-1
 125 41 l 2,3,4
 125 28 125 28 136 22 c 0,5,6
 139 20 139 20 144.5 19 c 128,-1,7
 150 18 150 18 158 17 c 1,8,-1
 170 18 l 1,9,-1
 184 20 l 1,10,-1
 179 0 l 1,11,-1
 20 0 l 1,12,-1
 25 20 l 1,13,-1
 44 20 l 2,14,15
 67 20 67 20 73 23 c 1,16,17
 81 29 81 29 85 44 c 2,18,-1
 137 255 l 1,19,-1
 138 260 l 1,20,21
 132 266 132 266 129 266 c 2,22,-1
 76 267 l 1,23,-1
 81 287 l 1,24,25
 107 287 107 287 132 296 c 1,26,27
 160 303 160 303 182 318 c 1,28,-1
 194 318 l 1,0,-1
443 317 m 1,29,30
 429 292 429 292 411 281 c 1,31,32
 390 266 390 266 354 266 c 0,33,34
 344 266 344 266 324 269 c 128,-1,35
 304 272 304 272 296 273 c 1,36,-1
 270 187 l 1,37,38
 286 196 286 196 299 199.5 c 128,-1,39
 312 203 312 203 329 203 c 0,40,41
 368 203 368 203 389 180 c 128,-1,42
 410 157 410 157 410 119 c 0,43,44
 410 72 410 72 373 32 c 128,-1,45
 336 -8 336 -8 280 -8 c 0,46,47
 244 -8 244 -8 219 12 c 1,48,49
 209 22 209 22 203 34.5 c 128,-1,50
 197 47 197 47 197 62 c 0,51,52
 197 81 197 81 206.5 92 c 128,-1,53
 216 103 216 103 231 103 c 0,54,55
 241 103 241 103 248 95 c 1,56,57
 257 89 257 89 257 75 c 0,58,59
 257 65 257 65 254 62 c 2,60,-1
 238 49 l 1,61,-1
 230 44 l 1,62,-1
 228 40 l 1,63,64
 228 32 228 32 239 21 c 1,65,66
 252 11 252 11 275 11 c 0,67,68
 306 11 306 11 334.5 41.5 c 128,-1,69
 363 72 363 72 363 122 c 0,70,71
 363 152 363 152 348 164 c 1,72,73
 333 179 333 179 308 179 c 0,74,75
 292 179 292 179 284 175.5 c 128,-1,76
 276 172 276 172 273 170.5 c 128,-1,77
 270 169 270 169 262 162 c 1,78,79
 259 149 259 149 254 143 c 128,-1,80
 249 137 249 137 241 137 c 1,81,-1
 233 139 l 1,82,83
 230 141 230 141 228 150 c 1,84,85
 228 161 228 161 244 174 c 1,86,-1
 254 207 l 1,87,-1
 269 259 l 1,88,-1
 285 320 l 1,89,-1
 332 311 l 2,90,91
 339 309 339 309 357 309 c 1,92,93
 364 308 364 308 371 308 c 0,94,95
 410 308 410 308 437 321 c 1,96,-1
 443 317 l 1,29,30
EndSplineSet
Validated: 1
EndChar

StartChar: N
Encoding: 78 78 49
Width: 472
Flags: W
LayerCount: 2
Fore
SplineSet
282 447 m 1,0,-1
 472 447 l 1,1,-1
 472 407 l 1,2,-1
 282 407 l 1,3,-1
 282 0 l 1,4,-1
 239 0 l 1,5,-1
 74 351 l 1,6,-1
 74 0 l 1,7,-1
 33 0 l 1,8,-1
 33 447 l 1,9,-1
 77 447 l 1,10,-1
 242 97 l 1,11,-1
 242 447 l 1,12,-1
 282 447 l 1,0,-1
EndSplineSet
Validated: 1
EndChar

StartChar: O
Encoding: 79 79 50
Width: 187
Flags: W
LayerCount: 2
Fore
SplineSet
94 215 m 0,0,1
 94 164 94 164 54 145 c 128,-1,2
 14 126 14 126 14 101 c 0,3,4
 14 72 14 72 82 0 c 1,5,-1
 -78 0 l 1,6,7
 -56 23 -56 23 -35 46 c 1,8,9
 -11 75 -11 75 -11 101 c 256,10,11
 -11 127 -11 127 -50.5 146 c 128,-1,12
 -90 165 -90 165 -90 215 c 0,13,14
 -90 260 -90 260 -60 286 c 0,15,16
 -34 308 -34 308 1 308 c 0,17,18
 46 308 46 308 72 277 c 0,19,20
 94 250 94 250 94 215 c 0,0,1
57 222 m 0,21,22
 57 243 57 243 40.5 256.5 c 128,-1,23
 24 270 24 270 1 270 c 256,24,25
 -22 270 -22 270 -37 257 c 128,-1,26
 -52 244 -52 244 -52 222 c 0,27,28
 -52 201 -52 201 -36.5 187.5 c 128,-1,29
 -21 174 -21 174 1 174 c 0,30,31
 25 174 25 174 41 187 c 128,-1,32
 57 200 57 200 57 222 c 0,21,22
EndSplineSet
Validated: 1
EndChar

StartChar: P
Encoding: 80 80 51
Width: 695
Flags: W
LayerCount: 2
Fore
SplineSet
-38 134 m 0,0,1
 -38 82 -38 82 -75 41 c 128,-1,2
 -112 0 -112 0 -162 0 c 2,3,-1
 -176 0 l 1,4,5
 -185 12 -185 12 -190 17 c 0,6,7
 -207 35 -207 35 -219 35 c 0,8,9
 -241 35 -241 35 -257 25 c 1,10,11
 -277 9 -277 9 -289 0 c 1,12,-1
 -355 0 l 1,13,-1
 -395 47 l 1,14,-1
 -428 0 l 1,15,-1
 -505 0 l 1,16,17
 -513 29 -513 29 -518 42 c 0,18,19
 -527 66 -527 66 -545 64 c 0,20,21
 -570 61 -570 61 -594 34 c 0,22,23
 -608 17 -608 17 -623 0 c 1,24,-1
 -657 0 l 1,25,26
 -657 44 -657 44 -554 113 c 0,27,28
 -505 146 -505 146 -505 185 c 0,29,30
 -505 211 -505 211 -537.5 256 c 128,-1,31
 -570 301 -570 301 -570 362 c 0,32,33
 -570 384 -570 384 -567 409 c 128,-1,34
 -564 434 -564 434 -556 470 c 1,35,36
 -558 476 -558 476 -563.5 479 c 128,-1,37
 -569 482 -569 482 -581 482 c 1,38,39
 -609 474 -609 474 -623 464 c 0,40,41
 -665 432 -665 432 -665 367 c 0,42,43
 -665 350 -665 350 -660 339.5 c 128,-1,44
 -655 329 -655 329 -647 325 c 1,45,46
 -623 318 -623 318 -605 366 c 1,47,48
 -600 370 -600 370 -596 374 c 1,49,50
 -595 371 -595 371 -595 363 c 0,51,52
 -595 341 -595 341 -607 323 c 0,53,54
 -624 299 -624 299 -657 292 c 1,55,56
 -670 292 -670 292 -681 307 c 0,57,58
 -695 327 -695 327 -695 362 c 0,59,60
 -695 430 -695 430 -650 472 c 128,-1,61
 -605 514 -605 514 -537 514 c 0,62,63
 -459 514 -459 514 -417.5 483.5 c 128,-1,64
 -376 453 -376 453 -376 401 c 0,65,66
 -376 380 -376 380 -383 359 c 1,67,68
 -401 328 -401 328 -427 328 c 0,69,70
 -454 328 -454 328 -480 356 c 128,-1,71
 -506 384 -506 384 -506 403 c 0,72,73
 -506 412 -506 412 -499 413 c 1,74,75
 -493 396 -493 396 -487 388 c 0,76,77
 -469 362 -469 362 -441 362 c 0,78,79
 -419 362 -419 362 -411 374 c 128,-1,80
 -403 386 -403 386 -403 406 c 0,81,82
 -403 437 -403 437 -426 453.5 c 128,-1,83
 -449 470 -449 470 -486 477 c 0,84,85
 -501 480 -501 480 -506 480 c 0,86,87
 -512 480 -512 480 -532 477 c 1,88,89
 -540 454 -540 454 -543 430.5 c 128,-1,90
 -546 407 -546 407 -546 374 c 0,91,92
 -546 343 -546 343 -525 306 c 1,93,94
 -498 261 -498 261 -471 216 c 1,95,96
 -467 197 -467 197 -467 179 c 0,97,98
 -467 146 -467 146 -492 118 c 0,99,100
 -505 104 -505 104 -505 96 c 1,101,102
 -491 83 -491 83 -486.5 62.5 c 128,-1,103
 -482 42 -482 42 -451 35 c 1,104,105
 -425 42 -425 42 -415 50 c 128,-1,106
 -405 58 -405 58 -405 71 c 0,107,108
 -405 81 -405 81 -417 109 c 0,109,110
 -425 128 -425 128 -428 139 c 1,111,112
 -429 148 -429 148 -429 153 c 0,113,114
 -429 195 -429 195 -404.5 229 c 128,-1,115
 -380 263 -380 263 -338 263 c 0,116,117
 -306 263 -306 263 -294 251 c 128,-1,118
 -282 239 -282 239 -277 205 c 0,119,120
 -273 172 -273 172 -298 147 c 1,121,122
 -332 116 -332 116 -366 86 c 1,123,124
 -357 70 -357 70 -345 55 c 0,125,126
 -320 24 -320 24 -295 24 c 0,127,128
 -277 24 -277 24 -256 39 c 0,129,130
 -250 44 -250 44 -239 54 c 1,131,132
 -241 72 -241 72 -241 85 c 0,133,134
 -241 140 -241 140 -221 180 c 0,135,136
 -193 237 -193 237 -124 267 c 1,137,138
 -155 337 -155 337 -220 391 c 1,139,140
 -281 434 -281 434 -343 477 c 1,141,142
 -299 473 -299 473 -232 433 c 0,143,144
 -150 385 -150 385 -101 318 c 0,145,146
 -38 233 -38 233 -38 134 c 0,0,1
-316 227 m 1,147,148
 -331 227 -331 227 -347 224.5 c 128,-1,149
 -363 222 -363 222 -369 209.5 c 128,-1,150
 -375 197 -375 197 -377 184.5 c 128,-1,151
 -379 172 -379 172 -379 159 c 2,152,-1
 -379 139 l 1,153,154
 -337 139 -337 139 -324 167 c 0,155,156
 -316 184 -316 184 -316 227 c 1,147,148
-182 54 m 1,157,158
 -173 35 -173 35 -152 35 c 0,159,160
 -128 35 -128 35 -108.5 59.5 c 128,-1,161
 -89 84 -89 84 -89 129 c 0,162,163
 -89 167 -89 167 -99 209.5 c 128,-1,164
 -109 252 -109 252 -124 252 c 1,165,166
 -156 239 -156 239 -174 200 c 128,-1,167
 -192 161 -192 161 -192 113 c 0,168,169
 -192 78 -192 78 -182 54 c 1,157,158
-24 50 m 0,170,171
 -14 50 -14 50 -7 42 c 128,-1,172
 0 34 0 34 0 24 c 256,173,174
 0 14 0 14 -8 7 c 128,-1,175
 -16 0 -16 0 -27 0 c 0,176,177
 -37 0 -37 0 -44 8 c 128,-1,178
 -51 16 -51 16 -51 27 c 0,179,180
 -51 50 -51 50 -24 50 c 0,170,171
EndSplineSet
Validated: 1
EndChar

StartChar: Q
Encoding: 81 81 52
Width: 74
Flags: W
LayerCount: 2
Fore
SplineSet
7 369 m 1,0,-1
 7 0 l 1,1,-1
 -7 0 l 1,2,-1
 -7 369 l 1,3,-1
 -53 316 l 1,4,-1
 -74 316 l 1,5,-1
 1 477 l 1,6,-1
 74 316 l 1,7,-1
 53 316 l 1,8,-1
 7 369 l 1,0,-1
EndSplineSet
Validated: 1
EndChar

StartChar: R
Encoding: 82 82 53
Width: 477
Flags: W
LayerCount: 2
Fore
SplineSet
107 15 m 1,0,-1
 477 15 l 1,1,-1
 477 1 l 1,2,-1
 107 1 l 1,3,-1
 160 -45 l 1,4,-1
 160 -66 l 1,5,-1
 0 7 l 1,6,-1
 160 82 l 1,7,-1
 160 61 l 1,8,-1
 107 15 l 1,0,-1
EndSplineSet
Validated: 1
EndChar

StartChar: S
Encoding: 83 83 54
Width: 245
Flags: W
LayerCount: 2
Fore
SplineSet
-57 1 m 1,0,-1
 -30 -25 l 1,1,-1
 12 -68 l 1,2,3
 32 -90 32 -90 45 -111.5 c 128,-1,4
 58 -133 58 -133 58 -150 c 0,5,6
 58 -159 58 -159 52 -170 c 1,7,-1
 31 -187 l 1,8,-1
 4 -199 l 2,9,10
 -9 -204 -9 -204 -22 -204 c 0,11,12
 -66 -204 -66 -204 -66 -163 c 1,13,-1
 -64 -154 l 1,14,-1
 -54 -143 l 1,15,-1
 -48 -137 l 1,16,-1
 -42 -129 l 1,17,-1
 -39 -113 l 1,18,19
 -39 -87 -39 -87 -68 -80 c 1,20,21
 -94 -80 -94 -80 -109 -98 c 0,22,23
 -116 -107 -116 -107 -119 -118.5 c 128,-1,24
 -122 -130 -122 -130 -122 -143 c 0,25,26
 -122 -161 -122 -161 -114 -178.5 c 128,-1,27
 -106 -196 -106 -196 -89 -210 c 0,28,29
 -59 -234 -59 -234 -16 -234 c 0,30,31
 16 -234 16 -234 45 -221 c 0,32,33
 60 -215 60 -215 72 -206.5 c 128,-1,34
 84 -198 84 -198 97 -184 c 0,35,36
 119 -159 119 -159 123 -130 c 1,37,38
 123 -90 123 -90 101 -55 c 1,39,-1
 77 -20 l 1,40,-1
 45 14 l 1,41,-1
 -22 79 l 1,42,-1
 -32 89 l 1,43,-1
 -47 112 l 2,44,45
 -52 120 -52 120 -55 129.5 c 128,-1,46
 -58 139 -58 139 -58 149 c 0,47,48
 -58 163 -58 163 -52 173 c 128,-1,49
 -46 183 -46 183 -37 189 c 0,50,51
 -15 203 -15 203 12 203 c 0,52,53
 34 203 34 203 50.5 192.5 c 128,-1,54
 67 182 67 182 67 164 c 1,55,56
 66 161 66 161 64 157 c 128,-1,57
 62 153 62 153 57 147 c 2,58,-1
 44 129 l 2,59,60
 40 124 40 124 40 111 c 0,61,62
 40 100 40 100 51 89 c 1,63,64
 61 81 61 81 78 79 c 1,65,66
 99 79 99 79 110 98 c 128,-1,67
 121 117 121 117 121 137 c 0,68,69
 121 166 121 166 103 189 c 0,70,71
 94 200 94 200 83 208 c 128,-1,72
 72 216 72 216 57 223 c 0,73,74
 31 234 31 234 -3 234 c 0,75,76
 -22 234 -22 234 -35 232 c 128,-1,77
 -48 230 -48 230 -62 223 c 0,78,79
 -88 211 -88 211 -105 186 c 128,-1,80
 -122 161 -122 161 -122 128 c 0,81,82
 -122 94 -122 94 -105 64.5 c 128,-1,83
 -88 35 -88 35 -57 1 c 1,0,-1
EndSplineSet
Validated: 9
EndChar

StartChar: T
Encoding: 84 84 55
Width: 446
Flags: W
LayerCount: 2
Fore
SplineSet
296 111 m 1,0,1
 313 111 313 111 326 103 c 1,2,-1
 352 83 l 1,3,-1
 375 63 l 1,4,5
 389 54 389 54 404 54 c 1,6,-1
 414 55 l 1,7,-1
 424 60 l 1,8,-1
 435 66 l 1,9,-1
 445 71 l 1,10,-1
 445 58 l 1,11,-1
 404 28 l 1,12,13
 385 19 385 19 372 18 c 0,14,15
 359 18 359 18 342 27 c 1,16,17
 337 28 337 28 316 46 c 2,18,-1
 293 65 l 2,19,20
 281 74 281 74 265 76 c 1,21,-1
 255 74 l 1,22,-1
 244 70 l 1,23,-1
 235 64 l 1,24,-1
 223 58 l 1,25,-1
 202 42 l 1,26,27
 191 35 191 35 181 28 c 1,28,29
 162 19 162 19 149 18 c 0,30,31
 136 18 136 18 119 27 c 1,32,33
 114 28 114 28 94 46 c 1,34,-1
 70 65 l 2,35,36
 58 74 58 74 42 76 c 1,37,-1
 32 74 l 1,38,-1
 22 70 l 1,39,-1
 13 64 l 1,40,-1
 0 58 l 1,41,-1
 0 71 l 1,42,43
 10 80 10 80 20 87 c 128,-1,44
 30 94 30 94 42 100 c 0,45,46
 60 110 60 110 74 111 c 1,47,48
 90 111 90 111 103 103 c 2,49,-1
 117 94 l 1,50,-1
 129 83 l 1,51,-1
 153 63 l 1,52,-1
 167 56 l 1,53,-1
 181 54 l 1,54,-1
 191 55 l 1,55,56
 199 58 199 58 201 60 c 2,57,-1
 213 66 l 1,58,-1
 223 71 l 1,59,60
 233 80 233 80 243 87 c 128,-1,61
 253 94 253 94 265 100 c 1,62,63
 281 110 281 110 296 111 c 1,0,1
EndSplineSet
Validated: 1
EndChar

StartChar: U
Encoding: 85 85 56
Width: 263
Flags: W
LayerCount: 2
Fore
SplineSet
-131 209 m 1,0,-1
 -95 209 l 1,1,-1
 -1 -105 l 1,2,-1
 95 209 l 1,3,-1
 131 209 l 1,4,-1
 -1 -209 l 1,5,-1
 -131 209 l 1,0,-1
EndSplineSet
Validated: 1
EndChar

StartChar: V
Encoding: 86 86 57
Width: 243
Flags: W
LayerCount: 2
Fore
SplineSet
-121 129 m 1,0,-1
 -84 129 l 1,1,-1
 -84 -31 l 1,2,3
 -79 -55 -79 -55 -72 -66 c 0,4,5
 -50 -101 -50 -101 0 -101 c 0,6,7
 49 -101 49 -101 71 -66 c 0,8,9
 78 -55 78 -55 83 -31 c 1,10,-1
 83 129 l 1,11,-1
 121 129 l 1,12,-1
 121 -20 l 1,13,14
 115 -56 115 -56 105 -74 c 0,15,16
 74 -129 74 -129 0 -129 c 256,17,18
 -74 -129 -74 -129 -105 -75 c 0,19,20
 -115 -57 -115 -57 -121 -20 c 1,21,-1
 -121 129 l 1,0,-1
EndSplineSet
Validated: 1
EndChar

StartChar: W
Encoding: 87 87 58
Width: 74
Flags: W
LayerCount: 2
Fore
SplineSet
-7 107 m 1,0,-1
 -7 477 l 1,1,-1
 7 477 l 1,2,-1
 7 107 l 1,3,-1
 53 160 l 1,4,-1
 74 160 l 1,5,-1
 -1 0 l 1,6,-1
 -74 160 l 1,7,-1
 -53 160 l 1,8,-1
 -7 107 l 1,0,-1
EndSplineSet
Validated: 1
EndChar

StartChar: X
Encoding: 88 88 59
Width: 538
Flags: W
LayerCount: 2
Fore
SplineSet
538 359 m 1,0,1
 515 359 515 359 487 349.5 c 128,-1,2
 459 340 459 340 439 320 c 2,3,-1
 285 165 l 1,4,-1
 448 0 l 1,5,-1
 421 0 l 1,6,-1
 268 148 l 1,7,-1
 117 0 l 1,8,-1
 89 0 l 1,9,-1
 251 165 l 1,10,-1
 89 320 l 2,11,12
 70 338 70 338 57.5 343 c 128,-1,13
 45 348 45 348 0 359 c 1,14,-1
 0 420 l 1,15,-1
 61 420 l 1,16,17
 71 386 71 386 81 371 c 0,18,19
 83 368 83 368 105 346 c 2,20,-1
 268 184 l 1,21,-1
 427 341 l 1,22,23
 449 359 449 359 459 378 c 128,-1,24
 469 397 469 397 474 420 c 1,25,-1
 538 420 l 1,26,-1
 538 359 l 1,0,1
EndSplineSet
Validated: 1
EndChar

StartChar: Y
Encoding: 89 89 60
Width: 446
Flags: W
LayerCount: 2
Fore
SplineSet
149 1056 m 1,0,1
 133 1056 133 1056 119 1066 c 1,2,-1
 93 1091 l 1,3,-1
 70 1116 l 1,4,5
 58 1125 58 1125 41 1127 c 1,6,-1
 31 1125 l 1,7,-1
 21 1120 l 1,8,-1
 10 1112 l 1,9,-1
 0 1105 l 1,10,-1
 0 1122 l 1,11,12
 21 1143 21 1143 40 1156.5 c 128,-1,13
 59 1170 59 1170 73 1171 c 0,14,15
 87 1171 87 1171 103 1161 c 0,16,17
 109 1157 109 1157 129 1136 c 2,18,-1
 152 1112 l 1,19,20
 163 1102 163 1102 180 1100 c 1,21,-1
 190 1102 l 1,22,-1
 201 1107 l 1,23,-1
 210 1114 l 1,24,-1
 222 1122 l 1,25,-1
 243 1142 l 1,26,-1
 264 1158 l 1,27,28
 282 1170 282 1170 296 1171 c 0,29,30
 310 1171 310 1171 326 1161 c 0,31,32
 333 1157 333 1157 351 1136 c 1,33,-1
 375 1112 l 1,34,35
 387 1102 387 1102 403 1100 c 1,36,-1
 413 1102 l 1,37,-1
 423 1107 l 1,38,-1
 432 1114 l 1,39,-1
 445 1122 l 1,40,-1
 445 1105 l 1,41,42
 435 1095 435 1095 423 1085 c 0,43,44
 415 1078 415 1078 403 1070 c 0,45,46
 396 1065 396 1065 389.5 1061.5 c 128,-1,47
 383 1058 383 1058 375 1056 c 1,48,49
 367 1056 367 1056 358.5 1058 c 128,-1,50
 350 1060 350 1060 342 1066 c 2,51,-1
 328 1077 l 1,52,-1
 316 1091 l 1,53,-1
 292 1116 l 1,54,-1
 278 1124 l 1,55,-1
 264 1127 l 1,56,-1
 254 1125 l 1,57,58
 246 1122 246 1122 244 1120 c 2,59,-1
 232 1112 l 1,60,-1
 222 1105 l 1,61,62
 212 1095 212 1095 200 1085 c 0,63,64
 192 1078 192 1078 180 1070 c 0,65,66
 173 1065 173 1065 165.5 1061.5 c 128,-1,67
 158 1058 158 1058 149 1056 c 1,0,1
EndSplineSet
Validated: 1
EndChar

StartChar: Z
Encoding: 90 90 61
Width: 111
Flags: W
LayerCount: 2
Fore
SplineSet
-55 129 m 0,0,1
 -55 152 -55 152 -39.5 168.5 c 128,-1,2
 -24 185 -24 185 0 185 c 256,3,4
 24 185 24 185 40 169 c 128,-1,5
 56 153 56 153 56 129 c 256,6,7
 56 105 56 105 40 89 c 128,-1,8
 24 73 24 73 0 73 c 0,9,10
 -23 73 -23 73 -39 89 c 128,-1,11
 -55 105 -55 105 -55 129 c 0,0,1
-55 -128 m 0,12,13
 -55 -105 -55 -105 -39 -89 c 128,-1,14
 -23 -73 -23 -73 0 -73 c 0,15,16
 24 -73 24 -73 40 -89 c 128,-1,17
 56 -105 56 -105 56 -128 c 0,18,19
 56 -152 56 -152 40 -168 c 128,-1,20
 24 -184 24 -184 0 -184 c 0,21,22
 -23 -184 -23 -184 -39 -168 c 128,-1,23
 -55 -152 -55 -152 -55 -128 c 0,12,13
EndSplineSet
Validated: 1
EndChar

StartChar: bracketleft
Encoding: 91 91 62
Width: 465
Flags: W
LayerCount: 2
Fore
SplineSet
0 640 m 1,0,-1
 465 640 l 1,1,-1
 465 602 l 1,2,-1
 38 602 l 1,3,-1
 38 38 l 1,4,-1
 474 38 l 1,5,-1
 474 0 l 1,6,-1
 0 0 l 1,7,-1
 0 640 l 1,0,-1
EndSplineSet
Validated: 1
EndChar

StartChar: backslash
Encoding: 92 92 63
Width: 269
Flags: W
LayerCount: 2
Fore
SplineSet
-130 83 m 0,0,1
 -114 17 -114 17 -98 -7 c 0,2,3
 -65 -58 -65 -58 0 -58 c 0,4,5
 64 -58 64 -58 97 -7 c 0,6,7
 115 20 115 20 129 83 c 0,8,9
 130 83 130 83 131 84 c 1,10,11
 135 77 135 77 135 62 c 0,12,13
 135 11 135 11 111 -27 c 0,14,15
 75 -83 75 -83 0 -83 c 256,16,17
 -75 -83 -75 -83 -110 -27 c 0,18,19
 -135 13 -135 13 -135 64 c 0,20,21
 -135 80 -135 80 -133 84 c 1,22,23
 -131 83 -131 83 -130 83 c 0,0,1
EndSplineSet
Validated: 1
EndChar

StartChar: bracketright
Encoding: 93 93 64
Width: 465
Flags: W
LayerCount: 2
Fore
SplineSet
465 0 m 1,0,-1
 -9 0 l 1,1,-1
 -9 38 l 1,2,-1
 427 38 l 1,3,-1
 427 602 l 1,4,-1
 0 602 l 1,5,-1
 0 640 l 1,6,-1
 465 640 l 1,7,-1
 465 0 l 1,0,-1
EndSplineSet
Validated: 1
EndChar

StartChar: asciicircum
Encoding: 94 94 65
Width: 611
Flags: W
LayerCount: 2
Fore
SplineSet
710 134 m 1,0,-1
 601 7 l 2,1,2
 597 2 597 2 593.5 1 c 128,-1,3
 590 0 590 0 588 -1 c 1,4,5
 580 2 580 2 578 4 c 2,6,-1
 489 82 l 2,7,8
 482 89 482 89 472 90 c 1,9,10
 466 88 466 88 464 86 c 2,11,-1
 398 7 l 1,12,13
 393 -1 393 -1 385 -1 c 1,14,-1
 374 4 l 1,15,-1
 285 82 l 2,16,17
 276 89 276 89 269 90 c 1,18,19
 263 88 263 88 261 86 c 2,20,-1
 194 7 l 2,21,22
 186 -1 186 -1 180 -1 c 0,23,24
 177 -1 177 -1 170 4 c 2,25,-1
 82 82 l 2,26,27
 74 89 74 89 65 90 c 1,28,29
 58 88 58 88 57 86 c 2,30,-1
 0 18 l 1,31,-1
 0 67 l 1,32,-1
 108 194 l 1,33,-1
 118 198 l 2,34,35
 119 198 119 198 122.5 197 c 128,-1,36
 126 196 126 196 134 190 c 2,37,-1
 222 112 l 1,38,-1
 232 107 l 1,39,40
 238 107 238 107 246 115 c 2,41,-1
 313 194 l 1,42,43
 318 198 318 198 321 198 c 0,44,45
 328 198 328 198 337 190 c 2,46,-1
 426 112 l 1,47,-1
 437 107 l 1,48,-1
 443 108 l 1,49,-1
 450 115 l 1,50,-1
 517 194 l 1,51,52
 522 198 522 198 524 198 c 0,53,54
 530 196 530 196 532 194 c 2,55,-1
 539 188 l 1,56,-1
 628 111 l 2,57,58
 633 106 633 106 639 106 c 256,59,60
 645 106 645 106 652 114 c 2,61,-1
 710 181 l 1,62,-1
 710 134 l 1,0,-1
EndSplineSet
Validated: 1
EndChar

StartChar: underscore
Encoding: 95 95 66
Width: 326
Flags: W
LayerCount: 2
Fore
SplineSet
-163 -124 m 1,0,-1
 -163 -41 l 1,1,-1
 163 125 l 1,2,-1
 163 39 l 1,3,-1
 -163 -124 l 1,0,-1
EndSplineSet
Validated: 1
EndChar

StartChar: grave
Encoding: 96 96 67
Width: 102
Flags: W
LayerCount: 2
Fore
SplineSet
0 375 m 1,0,-1
 102 375 l 1,1,-1
 102 179 l 1,2,-1
 71 179 l 1,3,-1
 71 345 l 1,4,-1
 0 345 l 1,5,-1
 0 375 l 1,0,-1
EndSplineSet
Validated: 1
EndChar

StartChar: a
Encoding: 97 97 68
Width: 180
Flags: W
LayerCount: 2
Fore
SplineSet
107 248 m 1,0,1
 94 219 94 219 79 206 c 128,-1,2
 64 193 64 193 42 193 c 0,3,4
 21 193 21 193 10.5 207 c 128,-1,5
 0 221 0 221 0 244 c 0,6,7
 0 260 0 260 1.5 268 c 128,-1,8
 3 276 3 276 10.5 294 c 128,-1,9
 18 312 18 312 36 334 c 0,10,11
 74 379 74 379 107 379 c 0,12,13
 130 379 130 379 139 353 c 1,14,-1
 141 363 l 1,15,-1
 144 373 l 1,16,17
 147 376 147 376 152 376 c 2,18,-1
 159 376 l 2,19,20
 165 376 165 376 165 370 c 2,21,-1
 164 362 l 1,22,-1
 131 245 l 1,23,-1
 128 231 l 1,24,-1
 126 218 l 1,25,26
 126 205 126 205 134 205 c 0,27,28
 140 205 140 205 152 218 c 1,29,30
 159 228 159 228 163.5 237.5 c 128,-1,31
 168 247 168 247 174 263 c 1,32,-1
 180 260 l 1,33,34
 175 239 175 239 173 235 c 128,-1,35
 171 231 171 231 165.5 222.5 c 128,-1,36
 160 214 160 214 156 208.5 c 128,-1,37
 152 203 152 203 146 200 c 1,38,39
 138 193 138 193 125 193 c 0,40,41
 103 193 103 193 103 218 c 1,42,-1
 104 230 l 1,43,-1
 107 248 l 1,0,1
51 202 m 0,44,45
 66 202 66 202 80 217 c 1,46,-1
 98 245 l 1,47,-1
 119 290 l 1,48,-1
 128 320 l 2,49,50
 132 332 132 332 132 343 c 0,51,52
 132 358 132 358 125 364 c 1,53,54
 121 370 121 370 110 372 c 1,55,56
 81 372 81 372 47 302 c 1,57,-1
 40 284 l 1,58,-1
 36 275 l 1,59,-1
 33 266 l 2,60,61
 30 255 30 255 28 247 c 128,-1,62
 26 239 26 239 26 231 c 0,63,64
 26 219 26 219 31.5 210.5 c 128,-1,65
 37 202 37 202 51 202 c 0,44,45
EndSplineSet
Validated: 1
EndChar

StartChar: b
Encoding: 98 98 69
Width: 172
Flags: W
LayerCount: 2
Fore
SplineSet
48 201 m 1,0,-1
 55 200 l 1,1,2
 82 200 82 200 108 257 c 0,3,4
 129 305 129 305 129 340 c 0,5,6
 129 369 129 369 109 369 c 0,7,8
 86 369 86 369 59 320 c 1,9,10
 47 296 47 296 39 272 c 1,11,12
 32 246 32 246 32 229 c 0,13,14
 32 206 32 206 48 201 c 1,0,-1
17 283 m 1,15,-1
 62 452 l 1,16,-1
 63 458 l 1,17,-1
 61 467 l 1,18,19
 56 470 56 470 48 470 c 2,20,-1
 37 470 l 1,21,-1
 40 479 l 1,22,-1
 101 487 l 1,23,-1
 56 331 l 1,24,25
 72 357 72 357 87.5 368.5 c 128,-1,26
 103 380 103 380 116 380 c 0,27,28
 132 380 132 380 144 365.5 c 128,-1,29
 156 351 156 351 156 323 c 0,30,31
 156 315 156 315 154.5 304.5 c 128,-1,32
 153 294 153 294 149 282 c 0,33,34
 141 259 141 259 126 240 c 1,35,36
 93 193 93 193 48 193 c 1,37,-1
 35 195 l 1,38,39
 21 199 21 199 16 207 c 1,40,41
 9 215 9 215 9 235 c 2,42,-1
 9 246 l 1,43,-1
 11 256 l 2,44,45
 12 265 12 265 13 267 c 2,46,-1
 17 283 l 1,15,-1
EndSplineSet
Validated: 1
EndChar

StartChar: c
Encoding: 99 99 70
Width: 1185
Flags: W
LayerCount: 2
Fore
SplineSet
156 78 m 1,0,-1
 164 73 l 1,1,2
 151 40 151 40 132 23 c 1,3,4
 105 -7 105 -7 67 -7 c 0,5,6
 31 -7 31 -7 14 17 c 1,7,8
 0 34 0 34 0 69 c 0,9,10
 0 99 0 99 11 128.5 c 128,-1,11
 22 158 22 158 45 190 c 0,12,13
 90 252 90 252 140 252 c 0,14,15
 159 252 159 252 170 243 c 128,-1,16
 181 234 181 234 184 222 c 2,17,-1
 185 218 l 1,18,19
 185 195 185 195 164 195 c 1,20,21
 156 197 156 197 152 200 c 1,22,23
 147 207 147 207 147 213 c 0,24,25
 147 218 147 218 151 225 c 2,26,-1
 155 232 l 1,27,28
 155 238 155 238 142 239 c 1,29,30
 95 239 95 239 64 156 c 1,31,32
 39 92 39 92 39 50 c 0,33,34
 39 6 39 6 73 6 c 0,35,36
 95 6 95 6 110 17 c 0,37,38
 132 33 132 33 156 78 c 1,0,-1
307 102 m 1,39,-1
 272 0 l 1,40,-1
 232 0 l 1,41,42
 252 51 252 51 268 108 c 1,43,-1
 280 159 l 1,44,45
 285 186 285 186 285 204 c 0,46,47
 285 217 285 217 282.5 224 c 128,-1,48
 280 231 280 231 270 233 c 1,49,50
 257 233 257 233 234 194 c 1,51,-1
 219 161 l 1,52,-1
 209 164 l 1,53,54
 216 182 216 182 220 191 c 0,55,56
 229 210 229 210 242 224 c 1,57,58
 261 250 261 250 287 250 c 0,59,60
 302 250 302 250 310 236 c 1,61,62
 317 220 317 220 317 200 c 1,63,-1
 314 166 l 1,64,-1
 310 145 l 1,65,-1
 332 199 l 1,66,67
 361 251 361 251 397 251 c 0,68,69
 408 251 408 251 413 246 c 1,70,71
 422 240 422 240 422 225 c 0,72,73
 422 216 422 216 418.5 209.5 c 128,-1,74
 415 203 415 203 404 202 c 1,75,-1
 394 204 l 1,76,77
 390 207 390 207 387 220 c 1,78,79
 387 226 387 226 384 230 c 0,80,81
 383 230 383 230 382 231 c 1,82,83
 349 231 349 231 307 102 c 1,39,-1
621 34 m 0,84,85
 621 43 621 43 625 50 c 1,86,-1
 637 56 l 1,87,88
 646 53 646 53 649 50 c 128,-1,89
 652 47 652 47 654 35 c 1,90,-1
 652 20 l 2,91,92
 652 13 652 13 658 7 c 1,93,94
 663 4 663 4 685 4 c 0,95,96
 708 4 708 4 723 14.5 c 128,-1,97
 738 25 738 25 738 47 c 0,98,99
 738 56 738 56 736 59 c 1,100,101
 733 73 733 73 721 92 c 1,102,-1
 689 132 l 1,103,-1
 672 158 l 1,104,105
 667 172 667 172 667 177 c 128,-1,106
 667 182 667 182 667 185 c 0,107,108
 667 211 667 211 687 230 c 1,109,110
 699 240 699 240 711.5 245.5 c 128,-1,111
 724 251 724 251 740 251 c 0,112,113
 758 251 758 251 775 241 c 1,114,115
 791 229 791 229 791 215 c 256,116,117
 791 201 791 201 775 201 c 0,118,119
 765 201 765 201 764 205 c 1,120,121
 764 217 764 217 761 225 c 1,122,123
 758 241 758 241 738 241 c 0,124,125
 723 241 723 241 712 233 c 0,126,127
 697 221 697 221 697 204 c 0,128,129
 697 196 697 196 701 187 c 1,130,-1
 724 153 l 1,131,-1
 749 122 l 1,132,133
 758 106 758 106 763.5 91 c 128,-1,134
 769 76 769 76 769 66 c 0,135,136
 769 32 769 32 742.5 12 c 128,-1,137
 716 -8 716 -8 681 -8 c 0,138,139
 668 -8 668 -8 657.5 -6.5 c 128,-1,140
 647 -5 647 -5 637 5 c 1,141,142
 621 17 621 17 621 34 c 0,84,85
975 78 m 1,143,-1
 985 73 l 1,144,145
 971 43 971 43 953 23 c 1,146,147
 923 -7 923 -7 887 -7 c 256,148,149
 851 -7 851 -7 833 17 c 0,150,151
 820 33 820 33 820 69 c 0,152,153
 820 128 820 128 866 190 c 128,-1,154
 912 252 912 252 960 252 c 0,155,156
 979 252 979 252 990 243 c 1,157,158
 1003 235 1003 235 1004 222 c 1,159,-1
 1004 218 l 2,160,161
 1004 195 1004 195 985 195 c 1,162,163
 975 197 975 197 971 201 c 128,-1,164
 967 205 967 205 967 213 c 0,165,166
 967 218 967 218 971 225 c 2,167,-1
 975 232 l 1,168,169
 975 237 975 237 963 239 c 1,170,171
 916 239 916 239 885 156 c 1,172,173
 872 126 872 126 865.5 99.5 c 128,-1,174
 859 73 859 73 859 50 c 0,175,176
 859 6 859 6 894 6 c 0,177,178
 913 6 913 6 930 17 c 0,179,180
 952 32 952 32 975 78 c 1,143,-1
1090 51 m 0,181,182
 1103 51 1103 51 1111 43.5 c 128,-1,183
 1119 36 1119 36 1121 24 c 1,184,185
 1121 13 1121 13 1111.5 3.5 c 128,-1,186
 1102 -6 1102 -6 1090 -6 c 256,187,188
 1078 -6 1078 -6 1069 2 c 128,-1,189
 1060 10 1060 10 1058 24 c 1,190,191
 1058 35 1058 35 1066.5 43 c 128,-1,192
 1075 51 1075 51 1090 51 c 0,181,182
479 105 m 1,193,194
 504 116 504 116 519.5 126 c 128,-1,195
 535 136 535 136 552 155 c 1,196,197
 583 186 583 186 583 216 c 0,198,199
 583 225 583 225 577 231 c 1,200,201
 572 239 572 239 563 239 c 0,202,203
 538 239 538 239 510 190 c 0,204,205
 488 151 488 151 479 105 c 1,193,194
577 73 m 1,206,-1
 587 68 l 1,207,208
 562 26 562 26 537.5 8.5 c 128,-1,209
 513 -9 513 -9 486 -9 c 0,210,211
 454 -9 454 -9 440.5 10.5 c 128,-1,212
 427 30 427 30 427 60 c 0,213,214
 427 124 427 124 474.5 186.5 c 128,-1,215
 522 249 522 249 572 249 c 0,216,217
 587 249 587 249 598 239 c 128,-1,218
 609 229 609 229 611 209 c 1,219,220
 611 169 611 169 568 138 c 0,221,222
 546 122 546 122 525.5 112 c 128,-1,223
 505 102 505 102 475 92 c 1,224,225
 471 74 471 74 469 71 c 1,226,227
 465 55 465 55 465 39 c 0,228,229
 465 22 465 22 472 15 c 1,230,231
 478 5 478 5 497 5 c 0,232,233
 518 5 518 5 538.5 23.5 c 128,-1,234
 559 42 559 42 577 73 c 1,206,-1
EndSplineSet
Validated: 1
EndChar

StartChar: d
Encoding: 100 100 71
Width: 973
Flags: W
LayerCount: 2
Fore
SplineSet
66 5 m 0,0,1
 103 5 103 5 137 85 c 1,2,3
 153 120 153 120 160 148 c 128,-1,4
 167 176 167 176 167 197 c 256,5,6
 167 218 167 218 162 224 c 1,7,8
 156 238 156 238 137 238 c 0,9,10
 104 238 104 238 68 170 c 128,-1,11
 32 102 32 102 32 49 c 0,12,13
 32 5 32 5 66 5 c 0,0,1
237 87 m 1,14,-1
 246 81 l 1,15,16
 240 56 240 56 224 29 c 1,17,18
 202 -4 202 -4 173 -7 c 1,19,20
 155 -7 155 -7 146 6 c 0,21,22
 142 12 142 12 140 19 c 128,-1,23
 138 26 138 26 138 37 c 0,24,25
 138 57 138 57 142 73 c 0,26,27
 143 79 143 79 145 81 c 1,28,29
 133 54 133 54 123 37.5 c 128,-1,30
 113 21 113 21 104 12 c 0,31,32
 84 -7 84 -7 53 -7 c 0,33,34
 30 -7 30 -7 14 9 c 0,35,36
 4 19 4 19 -1 32 c 128,-1,37
 -6 45 -6 45 -6 65 c 0,38,39
 -6 129 -6 129 41.5 190 c 128,-1,40
 89 251 89 251 131 251 c 0,41,42
 160 251 160 251 175 219 c 1,43,-1
 207 351 l 1,44,-1
 209 363 l 1,45,46
 209 377 209 377 188 377 c 1,47,-1
 172 376 l 1,48,-1
 174 389 l 1,49,-1
 262 400 l 1,50,-1
 197 157 l 1,51,-1
 180 84 l 2,52,53
 173 52 173 52 173 31 c 256,54,55
 173 10 173 10 183 10 c 0,56,57
 191 10 191 10 203.5 25.5 c 128,-1,58
 216 41 216 41 237 87 c 1,14,-1
381 385 m 1,59,60
 389 385 389 385 398 378.5 c 128,-1,61
 407 372 407 372 407 360 c 0,62,63
 407 352 407 352 401 345.5 c 128,-1,64
 395 339 395 339 384 337 c 1,65,66
 375 337 375 337 367 343.5 c 128,-1,67
 359 350 359 350 359 363 c 0,68,69
 359 370 359 370 366 377 c 1,70,71
 370 383 370 383 381 385 c 1,59,60
310 108 m 2,72,-1
 330 162 l 1,73,74
 339 180 339 180 343 194.5 c 128,-1,75
 347 209 347 209 347 220 c 256,76,77
 347 231 347 231 340 234 c 1,78,79
 322 234 322 234 299 196 c 0,80,81
 296 191 296 191 291.5 182 c 128,-1,82
 287 173 287 173 284 166 c 1,83,-1
 274 171 l 1,84,-1
 298 217 l 1,85,86
 319 250 319 250 347 250 c 0,87,88
 362 250 362 250 371 240.5 c 128,-1,89
 380 231 380 231 380 209 c 0,90,91
 380 188 380 188 370 158 c 1,92,93
 366 139 366 139 362 129.5 c 128,-1,94
 358 120 358 120 347 96 c 2,95,-1
 330 56 l 2,96,97
 327 47 327 47 325 37.5 c 128,-1,98
 323 28 323 28 322 24 c 1,99,100
 322 11 322 11 333 9 c 1,101,102
 345 9 345 9 360 24 c 1,103,104
 373 40 373 40 390 73 c 1,105,-1
 395 81 l 1,106,-1
 403 77 l 1,107,108
 388 43 388 43 377 27 c 0,109,110
 351 -7 351 -7 319 -7 c 1,111,112
 289 -4 289 -4 289 30 c 0,113,114
 289 47 289 47 297 72 c 0,115,116
 299 79 299 79 310 108 c 2,72,-1
514 99 m 1,117,-1
 482 0 l 1,118,-1
 445 0 l 1,119,-1
 476 108 l 1,120,-1
 483 136 l 1,121,-1
 492 177 l 2,122,123
 498 200 498 200 498 214 c 0,124,125
 498 227 498 227 494 230 c 1,126,-1
 486 231 l 1,127,128
 474 231 474 231 461 212 c 128,-1,129
 448 193 448 193 432 154 c 1,130,-1
 422 159 l 1,131,132
 444 214 444 214 460 232 c 128,-1,133
 476 250 476 250 497 250 c 1,134,-1
 504 249 l 1,135,136
 530 244 530 244 530 207 c 0,137,138
 530 187 530 187 526 171 c 2,139,-1
 521 146 l 1,140,141
 548 201 548 201 566 222 c 0,142,143
 590 252 590 252 618 252 c 1,144,-1
 625 251 l 1,145,146
 652 246 652 246 652 212 c 0,147,148
 652 194 652 194 640 153 c 1,149,150
 672 212 672 212 691.5 231.5 c 128,-1,151
 711 251 711 251 734 251 c 1,152,-1
 747 249 l 1,153,154
 771 238 771 238 771 207 c 1,155,-1
 770 191 l 1,156,-1
 767 179 l 1,157,-1
 758 142 l 1,158,-1
 724 39 l 1,159,-1
 721 30 l 1,160,-1
 720 24 l 2,161,162
 720 18 720 18 724 14 c 1,163,-1
 735 10 l 1,164,165
 746 13 746 13 758 25 c 1,166,167
 772 44 772 44 791 86 c 1,168,-1
 800 82 l 1,169,170
 787 50 787 50 773 30 c 0,171,172
 752 0 752 0 724 -6 c 1,173,-1
 717 -6 l 2,174,175
 686 -6 686 -6 686 30 c 0,176,177
 686 43 686 43 694 72 c 1,178,-1
 726 166 l 1,179,180
 738 198 738 198 738 217 c 0,181,182
 738 233 738 233 725 234 c 1,183,-1
 720 233 l 1,184,185
 698 227 698 227 667 181 c 1,186,187
 642 139 642 139 625 94 c 1,188,-1
 597 0 l 1,189,-1
 559 0 l 1,190,-1
 608 163 l 1,191,-1
 612 174 l 1,192,-1
 618 197 l 1,193,-1
 621 216 l 1,194,195
 621 234 621 234 603 234 c 1,196,197
 569 230 569 230 538 153 c 1,198,-1
 514 99 l 1,117,-1
878 51 m 0,199,200
 892 51 892 51 899 44.5 c 128,-1,201
 906 38 906 38 908 24 c 1,202,203
 908 11 908 11 899.5 2.5 c 128,-1,204
 891 -6 891 -6 878 -6 c 256,205,206
 865 -6 865 -6 857 2 c 128,-1,207
 849 10 849 10 847 24 c 1,208,209
 847 35 847 35 856 43 c 1,210,211
 863 51 863 51 878 51 c 0,199,200
EndSplineSet
Validated: 5
EndChar

StartChar: e
Encoding: 101 101 72
Width: 388
Flags: W
LayerCount: 2
Fore
SplineSet
389 450 m 1,0,-1
 10 186 l 1,1,-1
 0 204 l 1,2,-1
 379 468 l 1,3,-1
 389 450 l 1,0,-1
EndSplineSet
Validated: 1
EndChar

StartChar: f
Encoding: 102 102 73
Width: 232
Flags: W
LayerCount: 2
Fore
SplineSet
-396 -179 m 0,0,1
 -399 -183 -399 -183 -397.5 -186.5 c 128,-1,2
 -396 -190 -396 -190 -387 -190 c 0,3,4
 -359 -190 -359 -190 -340 -149 c 0,5,6
 -330 -128 -330 -128 -320 -101 c 128,-1,7
 -310 -74 -310 -74 -305 -49 c 2,8,-1
 -291 12 l 1,9,-1
 -247 220 l 1,10,-1
 -305 220 l 1,11,-1
 -305 258 l 1,12,-1
 -235 258 l 1,13,14
 -224 289 -224 289 -217 305 c 0,15,16
 -206 332 -206 332 -195 349 c 0,17,18
 -164 394 -164 394 -129.5 418 c 128,-1,19
 -95 442 -95 442 -55 442 c 0,20,21
 -41 442 -41 442 -32 439 c 128,-1,22
 -23 436 -23 436 -13 423 c 0,23,24
 -6 413 -6 413 -4 404 c 2,25,-1
 0 388 l 1,26,27
 0 366 0 366 -2.5 355.5 c 128,-1,28
 -5 345 -5 345 -13 328 c 0,29,30
 -17 319 -17 319 -31 307 c 0,31,32
 -37 302 -37 302 -44 301 c 128,-1,33
 -51 300 -51 300 -61 301 c 1,34,35
 -70 303 -70 303 -74.5 312.5 c 128,-1,36
 -79 322 -79 322 -80 332 c 1,37,38
 -80 350 -80 350 -72.5 364.5 c 128,-1,39
 -65 379 -65 379 -51 388 c 0,40,41
 -44 393 -44 393 -37 398 c 1,42,43
 -37 411 -37 411 -55 414 c 1,44,45
 -75 416 -75 416 -89.5 405.5 c 128,-1,46
 -104 395 -104 395 -118 363 c 0,47,48
 -125 345 -125 345 -135 310 c 128,-1,49
 -145 275 -145 275 -149 260 c 1,50,-1
 -72 260 l 1,51,-1
 -72 220 l 1,52,-1
 -157 220 l 1,53,54
 -175 117 -175 117 -208 14 c 0,55,56
 -235 -69 -235 -69 -260 -117 c 0,57,58
 -280 -156 -280 -156 -301 -180 c 0,59,60
 -338 -223 -338 -223 -377 -223 c 0,61,62
 -414 -223 -414 -223 -433 -194 c 0,63,64
 -448 -171 -448 -171 -448 -140 c 0,65,66
 -448 -115 -448 -115 -436 -92 c 1,67,68
 -429 -81 -429 -81 -418.5 -75 c 128,-1,69
 -408 -69 -408 -69 -399 -69 c 0,70,71
 -386 -69 -386 -69 -377.5 -81.5 c 128,-1,72
 -369 -94 -369 -94 -366.5 -103 c 128,-1,73
 -364 -112 -364 -112 -364 -120 c 0,74,75
 -364 -134 -364 -134 -371 -144.5 c 128,-1,76
 -378 -155 -378 -155 -385 -165 c 128,-1,77
 -392 -175 -392 -175 -396 -179 c 0,0,1
EndSplineSet
Validated: 1
EndChar

StartChar: g
Encoding: 103 103 74
Width: 1277
Flags: W
LayerCount: 2
Fore
SplineSet
66 5 m 0,0,1
 103 5 103 5 137 85 c 1,2,3
 153 120 153 120 160 148 c 128,-1,4
 167 176 167 176 167 197 c 256,5,6
 167 218 167 218 162 224 c 1,7,8
 156 238 156 238 137 238 c 0,9,10
 104 238 104 238 68 170 c 128,-1,11
 32 102 32 102 32 49 c 0,12,13
 32 5 32 5 66 5 c 0,0,1
237 87 m 1,14,-1
 246 81 l 1,15,16
 240 56 240 56 224 29 c 1,17,18
 202 -4 202 -4 173 -7 c 1,19,20
 155 -7 155 -7 146 6 c 0,21,22
 142 12 142 12 140 19 c 128,-1,23
 138 26 138 26 138 37 c 0,24,25
 138 57 138 57 142 73 c 0,26,27
 143 79 143 79 145 81 c 1,28,29
 133 54 133 54 123 37.5 c 128,-1,30
 113 21 113 21 104 12 c 0,31,32
 84 -7 84 -7 53 -7 c 0,33,34
 30 -7 30 -7 14 9 c 0,35,36
 4 19 4 19 -1 32 c 128,-1,37
 -6 45 -6 45 -6 65 c 0,38,39
 -6 129 -6 129 41.5 190 c 128,-1,40
 89 251 89 251 131 251 c 0,41,42
 160 251 160 251 175 219 c 1,43,-1
 207 351 l 1,44,-1
 209 363 l 1,45,46
 209 377 209 377 188 377 c 1,47,-1
 172 376 l 1,48,-1
 174 389 l 1,49,-1
 262 400 l 1,50,-1
 197 157 l 1,51,-1
 180 84 l 2,52,53
 173 52 173 52 173 31 c 256,54,55
 173 10 173 10 183 10 c 0,56,57
 191 10 191 10 203.5 25.5 c 128,-1,58
 216 41 216 41 237 87 c 1,14,-1
381 385 m 1,59,60
 389 385 389 385 398 378.5 c 128,-1,61
 407 372 407 372 407 360 c 0,62,63
 407 352 407 352 401 345.5 c 128,-1,64
 395 339 395 339 384 337 c 1,65,66
 375 337 375 337 367 343.5 c 128,-1,67
 359 350 359 350 359 363 c 0,68,69
 359 370 359 370 366 377 c 1,70,71
 370 383 370 383 381 385 c 1,59,60
310 108 m 2,72,-1
 330 162 l 1,73,74
 339 180 339 180 343 194.5 c 128,-1,75
 347 209 347 209 347 220 c 256,76,77
 347 231 347 231 340 234 c 1,78,79
 322 234 322 234 299 196 c 0,80,81
 296 191 296 191 291.5 182 c 128,-1,82
 287 173 287 173 284 166 c 1,83,-1
 274 171 l 1,84,-1
 298 217 l 1,85,86
 319 250 319 250 347 250 c 0,87,88
 362 250 362 250 371 240.5 c 128,-1,89
 380 231 380 231 380 209 c 0,90,91
 380 188 380 188 370 158 c 1,92,93
 366 139 366 139 362 129.5 c 128,-1,94
 358 120 358 120 347 96 c 2,95,-1
 330 56 l 2,96,97
 327 47 327 47 325 37.5 c 128,-1,98
 323 28 323 28 322 24 c 1,99,100
 322 11 322 11 333 9 c 1,101,102
 345 9 345 9 360 24 c 1,103,104
 373 40 373 40 390 73 c 1,105,-1
 395 81 l 1,106,-1
 403 77 l 1,107,108
 388 43 388 43 377 27 c 0,109,110
 351 -7 351 -7 319 -7 c 1,111,112
 289 -4 289 -4 289 30 c 0,113,114
 289 47 289 47 297 72 c 0,115,116
 299 79 299 79 310 108 c 2,72,-1
514 99 m 1,117,-1
 482 0 l 1,118,-1
 445 0 l 1,119,-1
 476 108 l 1,120,-1
 483 136 l 1,121,-1
 492 177 l 2,122,123
 498 200 498 200 498 214 c 0,124,125
 498 227 498 227 494 230 c 1,126,-1
 486 231 l 1,127,128
 474 231 474 231 461 212 c 128,-1,129
 448 193 448 193 432 154 c 1,130,-1
 422 159 l 1,131,132
 444 214 444 214 460 232 c 128,-1,133
 476 250 476 250 497 250 c 1,134,-1
 504 249 l 1,135,136
 530 244 530 244 530 207 c 0,137,138
 530 187 530 187 526 171 c 2,139,-1
 521 146 l 1,140,141
 548 201 548 201 566 222 c 0,142,143
 590 252 590 252 618 252 c 1,144,-1
 625 251 l 1,145,146
 652 246 652 246 652 212 c 0,147,148
 652 194 652 194 640 153 c 1,149,150
 672 212 672 212 691.5 231.5 c 128,-1,151
 711 251 711 251 734 251 c 1,152,-1
 747 249 l 1,153,154
 771 238 771 238 771 207 c 1,155,-1
 770 191 l 1,156,-1
 767 179 l 1,157,-1
 758 142 l 1,158,-1
 724 39 l 1,159,-1
 721 30 l 1,160,-1
 720 24 l 2,161,162
 720 18 720 18 724 14 c 1,163,-1
 735 10 l 1,164,165
 746 13 746 13 758 25 c 1,166,167
 772 44 772 44 791 86 c 1,168,-1
 800 82 l 1,169,170
 787 50 787 50 773 30 c 0,171,172
 752 0 752 0 724 -6 c 1,173,-1
 717 -6 l 2,174,175
 686 -6 686 -6 686 30 c 0,176,177
 686 43 686 43 694 72 c 1,178,-1
 726 166 l 1,179,180
 738 198 738 198 738 217 c 0,181,182
 738 233 738 233 725 234 c 1,183,-1
 720 233 l 1,184,185
 698 227 698 227 667 181 c 1,186,187
 642 139 642 139 625 94 c 1,188,-1
 597 0 l 1,189,-1
 559 0 l 1,190,-1
 608 163 l 1,191,-1
 612 174 l 1,192,-1
 618 197 l 1,193,-1
 621 216 l 1,194,195
 621 234 621 234 603 234 c 1,196,197
 569 230 569 230 538 153 c 1,198,-1
 514 99 l 1,117,-1
927 385 m 0,199,200
 936 385 936 385 944.5 378.5 c 128,-1,201
 953 372 953 372 953 360 c 0,202,203
 953 352 953 352 946 344 c 1,204,205
 939 339 939 339 930 337 c 1,206,207
 920 337 920 337 913 344 c 1,208,209
 905 349 905 349 905 363 c 0,210,211
 905 371 905 371 911 377.5 c 128,-1,212
 917 384 917 384 927 385 c 0,199,200
856 108 m 1,213,-1
 875 162 l 1,214,215
 893 200 893 200 893 220 c 0,216,217
 893 231 893 231 885 234 c 1,218,219
 867 234 867 234 844 196 c 1,220,-1
 829 166 l 1,221,-1
 819 171 l 1,222,-1
 843 217 l 1,223,224
 864 250 864 250 893 250 c 0,225,226
 905 250 905 250 916 241 c 1,227,228
 926 229 926 229 926 209 c 0,229,230
 926 188 926 188 916 158 c 0,231,232
 911 142 911 142 906.5 128 c 128,-1,233
 902 114 902 114 893 96 c 2,234,-1
 875 56 l 1,235,-1
 868 24 l 1,236,237
 868 11 868 11 879 9 c 1,238,239
 891 9 891 9 906 24 c 1,240,241
 919 40 919 40 936 73 c 1,242,-1
 941 81 l 1,243,-1
 949 77 l 1,244,245
 934 41 934 41 922 27 c 1,246,247
 897 -7 897 -7 864 -7 c 1,248,249
 835 -4 835 -4 835 30 c 0,250,251
 835 55 835 55 856 108 c 1,213,-1
1168 28 m 1,252,-1
 1167 20 l 1,253,-1
 1169 10 l 1,254,255
 1172 7 1172 7 1178 7 c 0,256,257
 1195 7 1195 7 1222 45 c 1,258,-1
 1241 82 l 1,259,-1
 1249 78 l 1,260,261
 1237 50 1237 50 1233 42 c 0,262,263
 1226 27 1226 27 1220 21 c 1,264,265
 1201 -7 1201 -7 1170 -7 c 2,266,-1
 1163 -7 l 2,267,268
 1134 -7 1134 -7 1134 29 c 0,269,270
 1134 51 1134 51 1145 81 c 1,271,-1
 1174 171 l 1,272,-1
 1180 191 l 1,273,-1
 1183 212 l 1,274,275
 1183 223 1183 223 1179 228.5 c 128,-1,276
 1175 234 1175 234 1163 234 c 0,277,278
 1143 234 1143 234 1120.5 208.5 c 128,-1,279
 1098 183 1098 183 1076 132 c 2,280,-1
 1064 103 l 1,281,-1
 1031 0 l 1,282,-1
 991 0 l 1,283,-1
 1021 100 l 2,284,285
 1026 114 1026 114 1030 130 c 128,-1,286
 1034 146 1034 146 1038 161.5 c 128,-1,287
 1042 177 1042 177 1043 187 c 128,-1,288
 1044 197 1044 197 1044 209 c 0,289,290
 1044 232 1044 232 1031 233 c 0,291,292
 1020 233 1020 233 1008 218 c 1,293,-1
 975 153 l 1,294,-1
 965 157 l 1,295,296
 985 211 985 211 1004.5 231 c 128,-1,297
 1024 251 1024 251 1050 251 c 0,298,299
 1063 251 1063 251 1072 237 c 0,300,301
 1077 228 1077 228 1077 205 c 1,302,-1
 1075 171 l 1,303,-1
 1067 141 l 1,304,305
 1100 209 1100 209 1130 231 c 0,306,307
 1141 240 1141 240 1152 244.5 c 128,-1,308
 1163 249 1163 249 1175 249 c 0,309,310
 1194 249 1194 249 1205 235 c 128,-1,311
 1216 221 1216 221 1216 198 c 0,312,313
 1216 180 1216 180 1210 157 c 1,314,-1
 1168 28 l 1,252,-1
EndSplineSet
Validated: 5
EndChar

StartChar: h
Encoding: 104 104 75
Width: 1339
Flags: W
LayerCount: 2
Fore
SplineSet
216 243 m 1,0,-1
 255 243 l 1,1,-1
 224 142 l 1,2,-1
 207 83 l 1,3,-1
 200 35 l 1,4,5
 200 22 200 22 204 17 c 1,6,7
 205 10 205 10 214 10 c 0,8,9
 238 10 238 10 270 88 c 1,10,-1
 280 85 l 1,11,12
 262 38 262 38 250 22 c 0,13,14
 227 -8 227 -8 196 -8 c 0,15,16
 169 -8 169 -8 169 32 c 0,17,18
 169 55 169 55 170.5 65 c 128,-1,19
 172 75 172 75 178 101 c 1,20,21
 157 58 157 58 139 35 c 0,22,23
 107 -7 107 -7 70 -7 c 0,24,25
 53 -7 53 -7 41 7 c 128,-1,26
 29 21 29 21 29 45 c 0,27,28
 29 57 29 57 31 63 c 2,29,-1
 36 85 l 1,30,-1
 73 200 l 1,31,-1
 76 210 l 1,32,-1
 78 222 l 1,33,34
 78 235 78 235 67 237 c 1,35,36
 48 237 48 237 25 202 c 1,37,-1
 5 162 l 1,38,-1
 -4 167 l 1,39,-1
 18 210 l 1,40,41
 45 252 45 252 75 252 c 1,42,-1
 82 251 l 2,43,44
 96 250 96 250 105 241 c 1,45,46
 113 230 113 230 113 218 c 0,47,48
 113 197 113 197 95 141 c 1,49,-1
 71 73 l 1,50,51
 70 64 70 64 68.5 59.5 c 128,-1,52
 67 55 67 55 65 50 c 1,53,-1
 62 30 l 1,54,55
 62 8 62 8 82 8 c 1,56,57
 104 11 104 11 123 32 c 1,58,59
 143 57 143 57 170 112 c 0,60,61
 176 126 176 126 184 147.5 c 128,-1,62
 192 169 192 169 196.5 182.5 c 128,-1,63
 201 196 201 196 205 210.5 c 128,-1,64
 209 225 209 225 216 243 c 1,0,-1
357 106 m 1,65,66
 382 117 382 117 397.5 127 c 128,-1,67
 413 137 413 137 430 156 c 1,68,69
 462 188 462 188 462 217 c 0,70,71
 462 226 462 226 455 232 c 1,72,73
 452 240 452 240 442 240 c 0,74,75
 428 240 428 240 415.5 228.5 c 128,-1,76
 403 217 403 217 387 191 c 1,77,78
 366 150 366 150 357 106 c 1,65,66
455 73 m 1,79,-1
 464 69 l 1,80,81
 453 48 453 48 440 33 c 128,-1,82
 427 18 427 18 413 8 c 0,83,84
 391 -8 391 -8 364 -8 c 0,85,86
 332 -8 332 -8 318.5 11 c 128,-1,87
 305 30 305 30 305 61 c 0,88,89
 305 93 305 93 316 124.5 c 128,-1,90
 327 156 327 156 352 187 c 1,91,92
 400 250 400 250 450 250 c 0,93,94
 464 250 464 250 476 239 c 128,-1,95
 488 228 488 228 488 210 c 0,96,97
 488 169 488 169 446 139 c 0,98,99
 426 124 426 124 403.5 113.5 c 128,-1,100
 381 103 381 103 353 93 c 1,101,-1
 348 72 l 1,102,103
 342 54 342 54 342 40 c 256,104,105
 342 26 342 26 350 16 c 1,106,107
 356 6 356 6 374 6 c 0,108,109
 396 6 396 6 419 26 c 0,110,111
 428 35 428 35 437 46 c 128,-1,112
 446 57 446 57 455 73 c 1,79,-1
712 28 m 1,113,-1
 711 20 l 1,114,-1
 712 10 l 1,115,116
 718 7 718 7 721 7 c 0,117,118
 739 7 739 7 765 45 c 1,119,120
 770 59 770 59 773 64 c 0,121,122
 781 76 781 76 784 82 c 1,123,-1
 792 78 l 1,124,125
 773 34 773 34 763 21 c 0,126,127
 744 -7 744 -7 713 -7 c 2,128,-1
 707 -7 l 2,129,130
 678 -7 678 -7 678 29 c 0,131,132
 678 41 678 41 680.5 54.5 c 128,-1,133
 683 68 683 68 688 81 c 2,134,-1
 716 171 l 1,135,136
 719 175 719 175 723 191 c 1,137,-1
 726 212 l 2,138,139
 726 219 726 219 722 229 c 1,140,141
 717 234 717 234 707 234 c 0,142,143
 687 234 687 234 664 208.5 c 128,-1,144
 641 183 641 183 619 132 c 0,145,146
 615 122 615 122 612 115.5 c 128,-1,147
 609 109 609 109 608 103 c 2,148,-1
 574 0 l 1,149,-1
 534 0 l 1,150,-1
 564 100 l 1,151,-1
 581 164 l 2,152,153
 587 190 587 190 587 209 c 0,154,155
 587 231 587 231 575 233 c 1,156,157
 563 233 563 233 552.5 218.5 c 128,-1,158
 542 204 542 204 519 153 c 1,159,-1
 510 157 l 1,160,161
 525 210 525 210 549 232 c 1,162,163
 565 251 565 251 593 251 c 0,164,165
 607 251 607 251 614 238.5 c 128,-1,166
 621 226 621 226 621 205 c 0,167,168
 621 197 621 197 621 190 c 1,169,170
 618 178 618 178 617 171 c 2,171,-1
 610 141 l 1,172,173
 627 175 627 175 642.5 197.5 c 128,-1,174
 658 220 658 220 673 231 c 0,175,176
 696 249 696 249 718 249 c 0,177,178
 737 249 737 249 748 236 c 128,-1,179
 759 223 759 223 759 198 c 0,180,181
 759 180 759 180 753 157 c 1,182,-1
 712 28 l 1,113,-1
885 5 m 0,183,184
 921 5 921 5 957 85 c 0,185,186
 987 154 987 154 987 197 c 0,187,188
 987 216 987 216 982 224 c 0,189,190
 974 238 974 238 956 238 c 0,191,192
 925 238 925 238 888.5 169.5 c 128,-1,193
 852 101 852 101 852 49 c 0,194,195
 852 5 852 5 885 5 c 0,183,184
1057 87 m 1,196,-1
 1066 81 l 1,197,198
 1062 64 1062 64 1055 49 c 0,199,200
 1054 47 1054 47 1044 29 c 1,201,202
 1020 -4 1020 -4 994 -7 c 1,203,204
 974 -7 974 -7 965 6 c 0,205,206
 961 12 961 12 959 19 c 128,-1,207
 957 26 957 26 957 37 c 0,208,209
 957 46 957 46 958.5 56.5 c 128,-1,210
 960 67 960 67 961 73 c 1,211,-1
 965 81 l 2,212,213
 952 53 952 53 943 37.5 c 128,-1,214
 934 22 934 22 923 12 c 0,215,216
 904 -7 904 -7 873 -7 c 0,217,218
 850 -7 850 -7 834 9 c 0,219,220
 813 30 813 30 813 65 c 0,221,222
 813 129 813 129 861.5 190 c 128,-1,223
 910 251 910 251 951 251 c 0,224,225
 978 251 978 251 996 219 c 1,226,-1
 1027 351 l 1,227,-1
 1028 363 l 1,228,229
 1028 377 1028 377 1007 377 c 1,230,-1
 993 376 l 1,231,-1
 995 389 l 1,232,-1
 1081 400 l 1,233,-1
 1017 157 l 1,234,-1
 1000 84 l 2,235,236
 993 52 993 52 993 31 c 256,237,238
 993 10 993 10 1002 10 c 0,239,240
 1010 10 1010 10 1022 24 c 0,241,242
 1039 45 1039 45 1057 87 c 1,196,-1
1172 4 m 2,243,-1
 1178 3 l 1,244,245
 1202 3 1202 3 1220 26 c 128,-1,246
 1238 49 1238 49 1254 115 c 2,247,-1
 1263 152 l 1,248,-1
 1266 186 l 1,249,250
 1266 209 1266 209 1259.5 222 c 128,-1,251
 1253 235 1253 235 1238 238 c 2,252,-1
 1230 240 l 1,253,254
 1197 240 1197 240 1169 175 c 0,255,256
 1159 153 1159 153 1152.5 130.5 c 128,-1,257
 1146 108 1146 108 1142.5 85 c 128,-1,258
 1139 62 1139 62 1138 53 c 0,259,260
 1138 44 1138 44 1139.5 35.5 c 128,-1,261
 1141 27 1141 27 1145 19 c 1,262,263
 1153 7 1153 7 1172 4 c 2,243,-1
1167 -7 m 2,264,265
 1135 -7 1135 -7 1117 20 c 1,266,267
 1102 39 1102 39 1102 75 c 0,268,269
 1102 136 1102 136 1139.5 193.5 c 128,-1,270
 1177 251 1177 251 1231 251 c 0,271,272
 1261 251 1261 251 1283 226 c 1,273,274
 1303 201 1303 201 1303 162 c 0,275,276
 1303 135 1303 135 1294 103 c 0,277,278
 1280 58 1280 58 1249.5 25.5 c 128,-1,279
 1219 -7 1219 -7 1176 -7 c 2,280,-1
 1167 -7 l 2,264,265
EndSplineSet
Validated: 5
EndChar

StartChar: i
Encoding: 105 105 76
Width: 1408
Flags: W
LayerCount: 2
Fore
SplineSet
66 5 m 0,0,1
 103 5 103 5 137 85 c 1,2,3
 153 120 153 120 160 148 c 128,-1,4
 167 176 167 176 167 197 c 256,5,6
 167 218 167 218 162 224 c 1,7,8
 156 238 156 238 137 238 c 0,9,10
 104 238 104 238 68 170 c 128,-1,11
 32 102 32 102 32 49 c 0,12,13
 32 5 32 5 66 5 c 0,0,1
237 87 m 1,14,-1
 246 81 l 1,15,16
 240 56 240 56 224 29 c 1,17,18
 202 -4 202 -4 173 -7 c 1,19,20
 155 -7 155 -7 146 6 c 0,21,22
 142 12 142 12 140 19 c 128,-1,23
 138 26 138 26 138 37 c 0,24,25
 138 57 138 57 142 73 c 0,26,27
 143 79 143 79 145 81 c 1,28,29
 133 54 133 54 123 37.5 c 128,-1,30
 113 21 113 21 104 12 c 0,31,32
 84 -7 84 -7 53 -7 c 0,33,34
 30 -7 30 -7 14 9 c 0,35,36
 4 19 4 19 -1 32 c 128,-1,37
 -6 45 -6 45 -6 65 c 0,38,39
 -6 129 -6 129 41.5 190 c 128,-1,40
 89 251 89 251 131 251 c 0,41,42
 160 251 160 251 175 219 c 1,43,-1
 207 351 l 1,44,-1
 209 363 l 1,45,46
 209 377 209 377 188 377 c 1,47,-1
 172 376 l 1,48,-1
 174 389 l 1,49,-1
 262 400 l 1,50,-1
 197 157 l 1,51,-1
 180 84 l 2,52,53
 173 52 173 52 173 31 c 256,54,55
 173 10 173 10 183 10 c 0,56,57
 191 10 191 10 203.5 25.5 c 128,-1,58
 216 41 216 41 237 87 c 1,14,-1
381 385 m 1,59,60
 389 385 389 385 398 378.5 c 128,-1,61
 407 372 407 372 407 360 c 0,62,63
 407 352 407 352 401 345.5 c 128,-1,64
 395 339 395 339 384 337 c 1,65,66
 375 337 375 337 367 343.5 c 128,-1,67
 359 350 359 350 359 363 c 0,68,69
 359 370 359 370 366 377 c 1,70,71
 370 383 370 383 381 385 c 1,59,60
310 108 m 2,72,-1
 330 162 l 1,73,74
 339 180 339 180 343 194.5 c 128,-1,75
 347 209 347 209 347 220 c 256,76,77
 347 231 347 231 340 234 c 1,78,79
 322 234 322 234 299 196 c 0,80,81
 296 191 296 191 291.5 182 c 128,-1,82
 287 173 287 173 284 166 c 1,83,-1
 274 171 l 1,84,-1
 298 217 l 1,85,86
 319 250 319 250 347 250 c 0,87,88
 362 250 362 250 371 240.5 c 128,-1,89
 380 231 380 231 380 209 c 0,90,91
 380 188 380 188 370 158 c 1,92,93
 366 139 366 139 362 129.5 c 128,-1,94
 358 120 358 120 347 96 c 2,95,-1
 330 56 l 2,96,97
 327 47 327 47 325 37.5 c 128,-1,98
 323 28 323 28 322 24 c 1,99,100
 322 11 322 11 333 9 c 1,101,102
 345 9 345 9 360 24 c 1,103,104
 373 40 373 40 390 73 c 1,105,-1
 395 81 l 1,106,-1
 403 77 l 1,107,108
 388 43 388 43 377 27 c 0,109,110
 351 -7 351 -7 319 -7 c 1,111,112
 289 -4 289 -4 289 30 c 0,113,114
 289 47 289 47 297 72 c 0,115,116
 299 79 299 79 310 108 c 2,72,-1
514 99 m 1,117,-1
 482 0 l 1,118,-1
 445 0 l 1,119,-1
 476 108 l 1,120,-1
 483 136 l 1,121,-1
 492 177 l 2,122,123
 498 200 498 200 498 214 c 0,124,125
 498 227 498 227 494 230 c 1,126,-1
 486 231 l 1,127,128
 474 231 474 231 461 212 c 128,-1,129
 448 193 448 193 432 154 c 1,130,-1
 422 159 l 1,131,132
 444 214 444 214 460 232 c 128,-1,133
 476 250 476 250 497 250 c 1,134,-1
 504 249 l 1,135,136
 530 244 530 244 530 207 c 0,137,138
 530 187 530 187 526 171 c 2,139,-1
 521 146 l 1,140,141
 548 201 548 201 566 222 c 0,142,143
 590 252 590 252 618 252 c 1,144,-1
 625 251 l 1,145,146
 652 246 652 246 652 212 c 0,147,148
 652 194 652 194 640 153 c 1,149,150
 672 212 672 212 691.5 231.5 c 128,-1,151
 711 251 711 251 734 251 c 1,152,-1
 747 249 l 1,153,154
 771 238 771 238 771 207 c 1,155,-1
 770 191 l 1,156,-1
 767 179 l 1,157,-1
 758 142 l 1,158,-1
 724 39 l 1,159,-1
 721 30 l 1,160,-1
 720 24 l 2,161,162
 720 18 720 18 724 14 c 1,163,-1
 735 10 l 1,164,165
 746 13 746 13 758 25 c 1,166,167
 772 44 772 44 791 86 c 1,168,-1
 800 82 l 1,169,170
 787 50 787 50 773 30 c 0,171,172
 752 0 752 0 724 -6 c 1,173,-1
 717 -6 l 2,174,175
 686 -6 686 -6 686 30 c 0,176,177
 686 43 686 43 694 72 c 1,178,-1
 726 166 l 1,179,180
 738 198 738 198 738 217 c 0,181,182
 738 233 738 233 725 234 c 1,183,-1
 720 233 l 1,184,185
 698 227 698 227 667 181 c 1,186,187
 642 139 642 139 625 94 c 1,188,-1
 597 0 l 1,189,-1
 559 0 l 1,190,-1
 608 163 l 1,191,-1
 612 174 l 1,192,-1
 618 197 l 1,193,-1
 621 216 l 1,194,195
 621 234 621 234 603 234 c 1,196,197
 569 230 569 230 538 153 c 1,198,-1
 514 99 l 1,117,-1
927 385 m 0,199,200
 936 385 936 385 944.5 378.5 c 128,-1,201
 953 372 953 372 953 360 c 0,202,203
 953 352 953 352 946 344 c 1,204,205
 939 339 939 339 930 337 c 1,206,207
 920 337 920 337 913 344 c 1,208,209
 905 349 905 349 905 363 c 0,210,211
 905 371 905 371 911 377.5 c 128,-1,212
 917 384 917 384 927 385 c 0,199,200
856 108 m 1,213,-1
 875 162 l 1,214,215
 893 200 893 200 893 220 c 0,216,217
 893 231 893 231 885 234 c 1,218,219
 867 234 867 234 844 196 c 1,220,-1
 829 166 l 1,221,-1
 819 171 l 1,222,-1
 843 217 l 1,223,224
 864 250 864 250 893 250 c 0,225,226
 905 250 905 250 916 241 c 1,227,228
 926 229 926 229 926 209 c 0,229,230
 926 188 926 188 916 158 c 0,231,232
 911 142 911 142 906.5 128 c 128,-1,233
 902 114 902 114 893 96 c 2,234,-1
 875 56 l 1,235,-1
 868 24 l 1,236,237
 868 11 868 11 879 9 c 1,238,239
 891 9 891 9 906 24 c 1,240,241
 919 40 919 40 936 73 c 1,242,-1
 941 81 l 1,243,-1
 949 77 l 1,244,245
 934 41 934 41 922 27 c 1,246,247
 897 -7 897 -7 864 -7 c 1,248,249
 835 -4 835 -4 835 30 c 0,250,251
 835 55 835 55 856 108 c 1,213,-1
1168 28 m 1,252,-1
 1167 20 l 1,253,-1
 1169 10 l 1,254,255
 1172 7 1172 7 1178 7 c 0,256,257
 1195 7 1195 7 1222 45 c 1,258,-1
 1241 82 l 1,259,-1
 1249 78 l 1,260,261
 1237 50 1237 50 1233 42 c 0,262,263
 1226 27 1226 27 1220 21 c 1,264,265
 1201 -7 1201 -7 1170 -7 c 2,266,-1
 1163 -7 l 2,267,268
 1134 -7 1134 -7 1134 29 c 0,269,270
 1134 51 1134 51 1145 81 c 1,271,-1
 1174 171 l 1,272,-1
 1180 191 l 1,273,-1
 1183 212 l 1,274,275
 1183 223 1183 223 1179 228.5 c 128,-1,276
 1175 234 1175 234 1163 234 c 0,277,278
 1143 234 1143 234 1120.5 208.5 c 128,-1,279
 1098 183 1098 183 1076 132 c 2,280,-1
 1064 103 l 1,281,-1
 1031 0 l 1,282,-1
 991 0 l 1,283,-1
 1021 100 l 2,284,285
 1026 114 1026 114 1030 130 c 128,-1,286
 1034 146 1034 146 1038 161.5 c 128,-1,287
 1042 177 1042 177 1043 187 c 128,-1,288
 1044 197 1044 197 1044 209 c 0,289,290
 1044 232 1044 232 1031 233 c 0,291,292
 1020 233 1020 233 1008 218 c 1,293,-1
 975 153 l 1,294,-1
 965 157 l 1,295,296
 985 211 985 211 1004.5 231 c 128,-1,297
 1024 251 1024 251 1050 251 c 0,298,299
 1063 251 1063 251 1072 237 c 0,300,301
 1077 228 1077 228 1077 205 c 1,302,-1
 1075 171 l 1,303,-1
 1067 141 l 1,304,305
 1100 209 1100 209 1130 231 c 0,306,307
 1141 240 1141 240 1152 244.5 c 128,-1,308
 1163 249 1163 249 1175 249 c 0,309,310
 1194 249 1194 249 1205 235 c 128,-1,311
 1216 221 1216 221 1216 198 c 0,312,313
 1216 180 1216 180 1210 157 c 1,314,-1
 1168 28 l 1,252,-1
1310 51 m 0,315,316
 1323 51 1323 51 1331 43.5 c 128,-1,317
 1339 36 1339 36 1341 24 c 1,318,319
 1341 13 1341 13 1331.5 3.5 c 128,-1,320
 1322 -6 1322 -6 1310 -6 c 256,321,322
 1298 -6 1298 -6 1289 2 c 128,-1,323
 1280 10 1280 10 1278 24 c 1,324,325
 1278 35 1278 35 1286.5 43 c 128,-1,326
 1295 51 1295 51 1310 51 c 0,315,316
EndSplineSet
Validated: 5
EndChar

StartChar: j
Encoding: 106 106 77
Width: 342
Flags: W
LayerCount: 2
Fore
SplineSet
342 343 m 1,0,-1
 0 0 l 1,1,-1
 0 26 l 1,2,-1
 342 369 l 1,3,-1
 342 343 l 1,0,-1
EndSplineSet
Validated: 1
EndChar

StartChar: k
Encoding: 107 107 78
Width: 358
Flags: W
LayerCount: 2
Fore
SplineSet
-179 19 m 1,0,-1
 179 19 l 1,1,-1
 179 -19 l 1,2,-1
 -179 -19 l 1,3,-1
 -179 19 l 1,0,-1
EndSplineSet
Validated: 1
EndChar

StartChar: l
Encoding: 108 108 79
Width: 324
Flags: W
LayerCount: 2
Fore
SplineSet
162 108 m 1,0,-1
 -162 -56 l 1,1,-1
 -162 28 l 1,2,-1
 162 191 l 1,3,-1
 162 108 l 1,0,-1
162 -27 m 1,4,-1
 -162 -191 l 1,5,-1
 -162 -107 l 1,6,-1
 162 57 l 1,7,-1
 162 -27 l 1,4,-1
162 -162 m 1,8,-1
 -162 -325 l 1,9,-1
 -162 -242 l 1,10,-1
 162 -78 l 1,11,-1
 162 -162 l 1,8,-1
162 242 m 1,12,-1
 -162 78 l 1,13,-1
 -162 162 l 1,14,-1
 162 326 l 1,15,-1
 162 242 l 1,12,-1
EndSplineSet
Validated: 1
EndChar

StartChar: m
Encoding: 109 109 80
Width: 315
Flags: W
LayerCount: 2
Fore
SplineSet
-428 0 m 1,0,-1
 -351 210 l 1,1,-1
 -351 214 l 2,2,3
 -351 221 -351 221 -354 224.5 c 128,-1,4
 -357 228 -357 228 -363 230 c 1,5,6
 -384 230 -384 230 -407 194 c 0,7,8
 -418 178 -418 178 -429 157 c 0,9,10
 -436 144 -436 144 -450 115 c 1,11,-1
 -472 115 l 1,12,13
 -457 146 -457 146 -441 173 c 128,-1,14
 -425 200 -425 200 -408 222 c 0,15,16
 -377 262 -377 262 -329 262 c 0,17,18
 -315 262 -315 262 -307 251 c 1,19,20
 -298 242 -298 242 -295 221 c 1,21,22
 -267 246 -267 246 -250 253 c 1,23,24
 -233 262 -233 262 -211 262 c 0,25,26
 -199 262 -199 262 -189 251.5 c 128,-1,27
 -179 241 -179 241 -176 221 c 1,28,29
 -167 228 -167 228 -151.5 239 c 128,-1,30
 -136 250 -136 250 -129 253 c 0,31,32
 -112 262 -112 262 -91 262 c 0,33,34
 -74 262 -74 262 -60 252 c 1,35,36
 -48 241 -48 241 -48 227 c 2,37,-1
 -48 220 l 1,38,-1
 -111 37 l 1,39,40
 -111 18 -111 18 -99 16 c 1,41,42
 -87 16 -87 16 -72.5 31.5 c 128,-1,43
 -58 47 -58 47 -57 48 c 0,44,45
 -51 59 -51 59 -48 63 c 2,46,-1
 -21 103 l 1,47,-1
 0 103 l 1,48,-1
 -30 53 l 2,49,50
 -48 23 -48 23 -68.5 2.5 c 128,-1,51
 -89 -18 -89 -18 -114 -18 c 0,52,53
 -141 -18 -141 -18 -163 -4 c 1,54,-1
 -179 11 l 1,55,56
 -184 21 -184 21 -184 28 c 1,57,-1
 -180 42 l 1,58,-1
 -119 214 l 1,59,60
 -119 225 -119 225 -134 227 c 1,61,62
 -158 227 -158 227 -178 182 c 1,63,-1
 -242 0 l 1,64,-1
 -313 0 l 1,65,-1
 -236 214 l 1,66,67
 -236 227 -236 227 -253 227 c 0,68,69
 -267 227 -267 227 -275.5 216 c 128,-1,70
 -284 205 -284 205 -295 182 c 1,71,-1
 -359 0 l 1,72,-1
 -428 0 l 1,0,-1
EndSplineSet
Validated: 1
EndChar

StartChar: n
Encoding: 110 110 81
Width: 324
Flags: W
LayerCount: 2
Fore
SplineSet
162 41 m 1,0,-1
 -162 -123 l 1,1,-1
 -162 -39 l 1,2,-1
 162 124 l 1,3,-1
 162 41 l 1,0,-1
162 -94 m 1,4,-1
 -162 -258 l 1,5,-1
 -162 -174 l 1,6,-1
 162 -10 l 1,7,-1
 162 -94 l 1,4,-1
162 -229 m 1,8,-1
 -162 -392 l 1,9,-1
 -162 -309 l 1,10,-1
 162 -145 l 1,11,-1
 162 -229 l 1,8,-1
162 310 m 1,12,-1
 -162 146 l 1,13,-1
 -162 230 l 1,14,-1
 162 393 l 1,15,-1
 162 310 l 1,12,-1
162 175 m 1,16,-1
 -162 11 l 1,17,-1
 -162 95 l 1,18,-1
 162 259 l 1,19,-1
 162 175 l 1,16,-1
EndSplineSet
Validated: 1
EndChar

StartChar: o
Encoding: 111 111 82
Width: 191
Flags: W
LayerCount: 2
Fore
SplineSet
95 0 m 0,0,1
 95 -37 95 -37 68.5 -60.5 c 128,-1,2
 42 -84 42 -84 0 -84 c 256,3,4
 -42 -84 -42 -84 -68.5 -60.5 c 128,-1,5
 -95 -37 -95 -37 -95 0 c 256,6,7
 -95 37 -95 37 -68.5 60.5 c 128,-1,8
 -42 84 -42 84 0 84 c 0,9,10
 41 84 41 84 68 61 c 128,-1,11
 95 38 95 38 95 0 c 0,0,1
59 0 m 256,12,13
 59 21 59 21 42.5 33.5 c 128,-1,14
 26 46 26 46 1 46 c 0,15,16
 -23 46 -23 46 -40.5 33.5 c 128,-1,17
 -58 21 -58 21 -58 0 c 0,18,19
 -58 -20 -58 -20 -41 -33 c 128,-1,20
 -24 -46 -24 -46 1 -46 c 256,21,22
 26 -46 26 -46 42.5 -33.5 c 128,-1,23
 59 -21 59 -21 59 0 c 256,12,13
EndSplineSet
Validated: 1
EndChar

StartChar: p
Encoding: 112 112 83
Width: 306
Flags: W
LayerCount: 2
Fore
SplineSet
-306 124 m 1,0,-1
 -329 124 l 1,1,2
 -296 188 -296 188 -267 225.5 c 128,-1,3
 -238 263 -238 263 -191 263 c 0,4,5
 -182 263 -182 263 -173 250 c 1,6,7
 -163 240 -163 240 -163 223 c 1,8,-1
 -139 237 l 1,9,-1
 -114 250 l 1,10,11
 -96 257 -96 257 -77 257 c 0,12,13
 -41 257 -41 257 -18.5 228.5 c 128,-1,14
 4 200 4 200 4 152 c 0,15,16
 4 131 4 131 0.5 114 c 128,-1,17
 -3 97 -3 97 -9.5 84.5 c 128,-1,18
 -16 72 -16 72 -28 58 c 0,19,20
 -49 31 -49 31 -75 16 c 128,-1,21
 -101 1 -101 1 -129 1 c 0,22,23
 -142 1 -142 1 -162 11 c 0,24,25
 -170 16 -170 16 -177 21.5 c 128,-1,26
 -184 27 -184 27 -190 35 c 1,27,-1
 -246 -123 l 1,28,-1
 -249 -127 l 1,29,30
 -245 -137 -245 -137 -237 -138 c 1,31,-1
 -205 -138 l 1,32,-1
 -205 -167 l 1,33,-1
 -378 -167 l 1,34,-1
 -378 -138 l 1,35,-1
 -357 -138 l 2,36,37
 -351 -138 -351 -138 -343 -133 c 1,38,39
 -337 -127 -337 -127 -334 -119 c 2,40,-1
 -215 212 l 1,41,-1
 -215 218 l 1,42,-1
 -218 228 l 1,43,-1
 -224 231 l 1,44,45
 -237 231 -237 231 -249 218.5 c 128,-1,46
 -261 206 -261 206 -272 188 c 2,47,-1
 -283 171 l 1,48,-1
 -293 151 l 1,49,-1
 -306 124 l 1,0,-1
-132 201 m 0,50,51
 -150 170 -150 170 -161 129 c 1,52,53
 -171 84 -171 84 -171 67 c 0,54,55
 -171 31 -171 31 -149 31 c 0,56,57
 -130 31 -130 31 -117.5 38 c 128,-1,58
 -105 45 -105 45 -97 58 c 0,59,60
 -82 83 -82 83 -81 86 c 0,61,62
 -74 103 -74 103 -70.5 130.5 c 128,-1,63
 -67 158 -67 158 -67 169 c 256,64,65
 -67 180 -67 180 -69.5 187 c 128,-1,66
 -72 194 -72 194 -75 201 c 0,67,68
 -83 215 -83 215 -103 215 c 0,69,70
 -124 215 -124 215 -132 201 c 0,50,51
EndSplineSet
Validated: 1
EndChar

StartChar: q
Encoding: 113 113 84
Width: 280
Flags: W
LayerCount: 2
Fore
SplineSet
145 268 m 1,0,-1
 280 133 l 1,1,-1
 136 -11 l 1,2,-1
 1 124 l 1,3,-1
 145 268 l 1,0,-1
121 212 m 1,4,-1
 57 148 l 1,5,-1
 160 46 l 1,6,-1
 223 109 l 1,7,-1
 121 212 l 1,4,-1
EndSplineSet
Validated: 1
EndChar

StartChar: r
Encoding: 114 114 85
Width: 245
Flags: W
LayerCount: 2
Fore
SplineSet
120 135 m 1,0,-1
 80 0 l 1,1,-1
 20 0 l 1,2,-1
 77 194 l 1,3,-1
 77 199 l 2,4,5
 77 215 77 215 69 215 c 0,6,7
 62 215 62 215 55.5 210.5 c 128,-1,8
 49 206 49 206 39 194 c 0,9,10
 26 178 26 178 14 158 c 1,11,-1
 0 166 l 1,12,13
 3 174 3 174 10.5 183.5 c 128,-1,14
 18 193 18 193 28 204 c 0,15,16
 48 224 48 224 70.5 238 c 128,-1,17
 93 252 93 252 111 252 c 0,18,19
 133 252 133 252 133 224 c 1,20,-1
 132 213 l 1,21,-1
 131 203 l 1,22,23
 137 212 137 212 144 221 c 0,24,25
 156 235 156 235 166 244 c 0,26,27
 184 259 184 259 205 259 c 0,28,29
 221 259 221 259 233 246.5 c 128,-1,30
 245 234 245 234 245 219 c 0,31,32
 245 174 245 174 214 174 c 0,33,34
 204 174 204 174 198 182 c 1,35,36
 191 188 191 188 191 203 c 1,37,-1
 192 214 l 1,38,-1
 195 226 l 1,39,40
 195 233 195 233 187 233 c 0,41,42
 167 233 167 233 149 202 c 1,43,-1
 133 170 l 1,44,-1
 120 135 l 1,0,-1
EndSplineSet
Validated: 1
EndChar

StartChar: s
Encoding: 115 115 86
Width: 354
Flags: W
LayerCount: 2
Fore
SplineSet
0 195 m 1,0,-1
 -1 185 l 1,1,-1
 -7 175 l 2,2,3
 -11 167 -11 167 -24 165 c 1,4,5
 -49 165 -49 165 -53 189 c 1,6,-1
 -49 208 l 1,7,8
 -49 214 -49 214 -56 219 c 128,-1,9
 -63 224 -63 224 -73 226 c 0,10,11
 -85 228 -85 228 -97 216 c 0,12,13
 -105 208 -105 208 -108 190 c 1,14,15
 -108 179 -108 179 -97 168 c 1,16,-1
 -83 157 l 1,17,-1
 -71 147 l 2,18,19
 -29 112 -29 112 -27 107 c 1,20,21
 -15 92 -15 92 -15 68 c 2,22,-1
 -15 58 l 2,23,24
 -15 27 -15 27 -44 4 c 1,25,26
 -58 -5 -58 -5 -74 -10.5 c 128,-1,27
 -90 -16 -90 -16 -105 -16 c 0,28,29
 -125 -16 -125 -16 -139.5 -11.5 c 128,-1,30
 -154 -7 -154 -7 -165 1 c 0,31,32
 -194 21 -194 21 -194 51 c 1,33,-1
 -193 66 l 1,34,-1
 -188 79 l 1,35,-1
 -178 88 l 1,36,-1
 -165 92 l 1,37,38
 -141 92 -141 92 -141 61 c 0,39,40
 -141 52 -141 52 -144 47 c 128,-1,41
 -147 42 -147 42 -149 33 c 1,42,43
 -149 25 -149 25 -137 19 c 0,44,45
 -132 17 -132 17 -125.5 17 c 128,-1,46
 -119 17 -119 17 -113 17 c 0,47,48
 -99 17 -99 17 -86.5 26.5 c 128,-1,49
 -74 36 -74 36 -73 51 c 0,50,51
 -73 62 -73 62 -81 73 c 1,52,53
 -85 81 -85 81 -100 91 c 0,54,55
 -133 111 -133 111 -147.5 129.5 c 128,-1,56
 -162 148 -162 148 -162 172 c 0,57,58
 -162 189 -162 189 -156 204.5 c 128,-1,59
 -150 220 -150 220 -137 231 c 0,60,61
 -111 254 -111 254 -75 254 c 1,62,-1
 -47 251 l 1,63,64
 -33 247 -33 247 -23 238 c 1,65,66
 0 224 0 224 0 195 c 1,0,-1
EndSplineSet
Validated: 1
EndChar

StartChar: t
Encoding: 116 116 87
Width: 240
Flags: W
LayerCount: 2
Fore
SplineSet
-114 11 m 1,0,-1
 -100 66 l 1,1,2
 -125 88 -125 88 -155 88 c 0,3,4
 -173 88 -173 88 -184 77 c 128,-1,5
 -195 66 -195 66 -198 47 c 1,6,7
 -198 25 -198 25 -184 11 c 1,8,9
 -177 6 -177 6 -169 3 c 128,-1,10
 -161 0 -161 0 -153 0 c 1,11,-1
 -150 -2 l 1,12,-1
 -137 2 l 1,13,-1
 -114 11 l 1,0,-1
-5 -143 m 1,14,-1
 53 71 l 1,15,16
 53 76 53 76 51 77.5 c 128,-1,17
 49 79 49 79 48 80 c 1,18,19
 37 80 37 80 -3 52 c 1,20,-1
 -46 19 l 1,21,-1
 -41 25 l 1,22,23
 -9 -28 -9 -28 -9 -73 c 0,24,25
 -9 -91 -9 -91 -13 -101 c 128,-1,26
 -17 -111 -17 -111 -19.5 -116.5 c 128,-1,27
 -22 -122 -22 -122 -31 -135 c 1,28,29
 -52 -161 -52 -161 -80 -161 c 0,30,31
 -103 -161 -103 -161 -125 -147 c 0,32,33
 -135 -141 -135 -141 -141 -131 c 128,-1,34
 -147 -121 -147 -121 -147 -109 c 1,35,36
 -146 -107 -146 -107 -144 -94 c 1,37,-1
 -124 -10 l 1,38,39
 -137 -18 -137 -18 -160 -18 c 0,40,41
 -173 -18 -173 -18 -182 -14 c 128,-1,42
 -191 -10 -191 -10 -200 1 c 0,43,44
 -216 18 -216 18 -216 48 c 0,45,46
 -216 64 -216 64 -212 74 c 128,-1,47
 -208 84 -208 84 -199 93 c 1,48,49
 -184 111 -184 111 -153 111 c 0,50,51
 -124 111 -124 111 -93 86 c 1,52,-1
 -59 203 l 1,53,-1
 4 203 l 1,54,-1
 -42 45 l 1,55,-1
 -4 76 l 1,56,-1
 28 96 l 1,57,58
 45 104 45 104 59 107.5 c 128,-1,59
 73 111 73 111 90 111 c 0,60,61
 114 111 114 111 114 90 c 1,62,-1
 113 80 l 1,63,-1
 110 68 l 1,64,-1
 107 56 l 1,65,66
 138 111 138 111 177 111 c 0,67,68
 194 111 194 111 205 96.5 c 128,-1,69
 216 82 216 82 216 64 c 0,70,71
 216 48 216 48 207.5 37.5 c 128,-1,72
 199 27 199 27 185 27 c 0,73,74
 177 27 177 27 171 32.5 c 128,-1,75
 165 38 165 38 162 52 c 1,76,-1
 165 66 l 1,77,-1
 167 77 l 1,78,-1
 168 86 l 1,79,-1
 164 90 l 1,80,81
 162 89 162 89 161 89 c 0,82,83
 152 84 152 84 144.5 78.5 c 128,-1,84
 137 73 137 73 133 69 c 0,85,86
 123 58 123 58 114 41 c 1,87,-1
 102 14 l 1,88,-1
 90 -20 l 1,89,-1
 55 -143 l 1,90,-1
 -5 -143 l 1,14,-1
-54 6 m 1,91,-1
 -90 -109 l 1,92,-1
 -91 -119 l 1,93,94
 -91 -134 -91 -134 -75 -138 c 1,95,96
 -27 -111 -27 -111 -27 -63 c 0,97,98
 -27 -33 -27 -33 -54 6 c 1,91,-1
EndSplineSet
Validated: 5
EndChar

StartChar: u
Encoding: 117 117 88
Width: 192
Flags: W
LayerCount: 2
Fore
SplineSet
-161 134 m 1,0,-1
 161 134 l 1,1,-1
 161 -133 l 1,2,-1
 109 -133 l 1,3,-1
 109 58 l 1,4,-1
 -109 58 l 1,5,-1
 -109 -133 l 1,6,-1
 -161 -133 l 1,7,-1
 -161 134 l 1,0,-1
EndSplineSet
Validated: 1
EndChar

StartChar: v
Encoding: 118 118 89
Width: 197
Flags: W
LayerCount: 2
Fore
SplineSet
79 351 m 1,0,1
 63 338 63 338 47 338 c 1,2,-1
 41 339 l 1,3,-1
 35 340 l 1,4,-1
 18 344 l 1,5,6
 12 344 12 344 12 333 c 0,7,8
 12 328 12 328 8 327 c 1,9,-1
 4 330 l 1,10,-1
 2 332 l 1,11,-1
 1 343 l 1,12,-1
 2 351 l 1,13,-1
 7 359 l 2,14,15
 12 368 12 368 23 368 c 2,16,-1
 29 368 l 1,17,-1
 33 368 l 1,18,-1
 37 367 l 1,19,-1
 43 363 l 1,20,-1
 53 358 l 1,21,-1
 66 354 l 1,22,23
 73 354 73 354 79 358 c 1,24,-1
 80 361 l 1,25,-1
 84 372 l 2,26,27
 88 383 88 383 95 385 c 1,28,29
 100 380 100 380 100 377 c 2,30,-1
 98 368 l 1,31,32
 90 357 90 357 85.5 347.5 c 128,-1,33
 81 338 81 338 72 314 c 1,34,-1
 63 278 l 1,35,-1
 60 244 l 1,36,-1
 61 229 l 1,37,-1
 65 215 l 1,38,39
 73 200 73 200 89 200 c 0,40,41
 106 200 106 200 123.5 217.5 c 128,-1,42
 141 235 141 235 155 278 c 1,43,-1
 159 302 l 1,44,-1
 161 326 l 1,45,-1
 158 342 l 1,46,-1
 157 362 l 1,47,-1
 159 378 l 1,48,49
 162 384 162 384 170 385 c 0,50,51
 177 385 177 385 182 376 c 0,52,53
 183 373 183 373 184.5 367 c 128,-1,54
 186 361 186 361 187 353 c 1,55,-1
 185 329 l 1,56,-1
 183 318 l 1,57,-1
 180 307 l 1,58,59
 174 280 174 280 164.5 260.5 c 128,-1,60
 155 241 155 241 138 221 c 1,61,62
 127 206 127 206 110 197 c 128,-1,63
 93 188 93 188 74 188 c 0,64,65
 53 188 53 188 40.5 200.5 c 128,-1,66
 28 213 28 213 28 234 c 0,67,68
 28 250 28 250 44 283 c 2,69,-1
 79 351 l 1,0,1
EndSplineSet
Validated: 1
EndChar

StartChar: w
Encoding: 119 119 90
Width: 612
Flags: W
LayerCount: 2
Fore
SplineSet
334 39 m 1,0,-1
 285 82 l 2,1,2
 276 89 276 89 269 90 c 1,3,4
 263 88 263 88 261 86 c 2,5,-1
 194 7 l 2,6,7
 186 -1 186 -1 180 -1 c 0,8,9
 177 -1 177 -1 170 4 c 2,10,-1
 82 82 l 2,11,12
 74 89 74 89 65 90 c 1,13,14
 58 88 58 88 57 86 c 2,15,-1
 0 18 l 1,16,-1
 0 67 l 1,17,-1
 108 194 l 1,18,-1
 118 198 l 2,19,20
 119 198 119 198 122.5 197 c 128,-1,21
 126 196 126 196 134 190 c 2,22,-1
 222 112 l 1,23,-1
 232 107 l 1,24,25
 238 107 238 107 246 115 c 2,26,-1
 313 194 l 1,27,28
 318 198 318 198 321 198 c 0,29,30
 331 195 331 195 334 192 c 1,31,-1
 334 238 l 1,32,-1
 367 238 l 1,33,-1
 367 164 l 1,34,-1
 426 112 l 1,35,-1
 437 107 l 1,36,-1
 443 108 l 1,37,-1
 450 115 l 1,38,-1
 517 194 l 1,39,40
 522 198 522 198 524 198 c 0,41,42
 530 196 530 196 532 194 c 2,43,-1
 539 188 l 1,44,-1
 628 111 l 2,45,46
 633 106 633 106 639 106 c 256,47,48
 645 106 645 106 652 114 c 2,49,-1
 710 181 l 1,50,-1
 710 134 l 1,51,-1
 601 7 l 2,52,53
 597 2 597 2 593.5 1 c 128,-1,54
 590 0 590 0 588 -1 c 1,55,56
 580 2 580 2 578 4 c 2,57,-1
 489 82 l 2,58,59
 482 89 482 89 472 90 c 1,60,61
 466 88 466 88 464 86 c 2,62,-1
 398 7 l 1,63,64
 393 -1 393 -1 385 -1 c 1,65,-1
 374 4 l 1,66,-1
 367 10 l 1,67,-1
 367 -52 l 1,68,-1
 334 -52 l 1,69,-1
 334 39 l 1,0,-1
334 192 m 0,70,-1
334 39 m 0,71,-1
367 10 m 0,72,-1
367 164 m 0,73,-1
EndSplineSet
Validated: 1
EndChar

StartChar: x
Encoding: 120 120 91
Width: 488
Flags: W
LayerCount: 2
Fore
SplineSet
66 5 m 0,0,1
 103 5 103 5 137 85 c 1,2,3
 153 120 153 120 160 148 c 128,-1,4
 167 176 167 176 167 197 c 256,5,6
 167 218 167 218 162 224 c 1,7,8
 156 238 156 238 137 238 c 0,9,10
 104 238 104 238 68 170 c 128,-1,11
 32 102 32 102 32 49 c 0,12,13
 32 5 32 5 66 5 c 0,0,1
237 87 m 1,14,-1
 246 81 l 1,15,16
 240 56 240 56 224 29 c 1,17,18
 202 -4 202 -4 173 -7 c 1,19,20
 155 -7 155 -7 146 6 c 0,21,22
 142 12 142 12 140 19 c 128,-1,23
 138 26 138 26 138 37 c 0,24,25
 138 57 138 57 142 73 c 0,26,27
 143 79 143 79 145 81 c 1,28,29
 133 54 133 54 123 37.5 c 128,-1,30
 113 21 113 21 104 12 c 0,31,32
 84 -7 84 -7 53 -7 c 0,33,34
 30 -7 30 -7 14 9 c 0,35,36
 4 19 4 19 -1 32 c 128,-1,37
 -6 45 -6 45 -6 65 c 0,38,39
 -6 129 -6 129 41.5 190 c 128,-1,40
 89 251 89 251 131 251 c 0,41,42
 160 251 160 251 175 219 c 1,43,-1
 207 351 l 1,44,-1
 209 363 l 1,45,46
 209 377 209 377 188 377 c 1,47,-1
 172 376 l 1,48,-1
 174 389 l 1,49,-1
 262 400 l 1,50,-1
 197 157 l 1,51,-1
 180 84 l 2,52,53
 173 52 173 52 173 31 c 256,54,55
 173 10 173 10 183 10 c 0,56,57
 191 10 191 10 203.5 25.5 c 128,-1,58
 216 41 216 41 237 87 c 1,14,-1
328 106 m 1,59,60
 353 117 353 117 368.5 127 c 128,-1,61
 384 137 384 137 401 156 c 1,62,63
 432 187 432 187 432 217 c 0,64,65
 432 226 432 226 426 232 c 1,66,67
 421 240 421 240 413 240 c 0,68,69
 387 240 387 240 359 191 c 0,70,71
 337 152 337 152 328 106 c 1,59,60
426 73 m 1,72,-1
 436 69 l 1,73,74
 411 27 411 27 386.5 9.5 c 128,-1,75
 362 -8 362 -8 335 -8 c 0,76,77
 303 -8 303 -8 289.5 11 c 128,-1,78
 276 30 276 30 276 61 c 0,79,80
 276 125 276 125 323.5 187.5 c 128,-1,81
 371 250 371 250 421 250 c 0,82,83
 436 250 436 250 447 240 c 128,-1,84
 458 230 458 230 460 210 c 1,85,86
 460 170 460 170 417 139 c 0,87,88
 395 123 395 123 374.5 113 c 128,-1,89
 354 103 354 103 324 93 c 1,90,91
 320 75 320 75 318 72 c 1,92,93
 316 63 316 63 315 55.5 c 128,-1,94
 314 48 314 48 314 40 c 0,95,96
 314 24 314 24 321 16 c 1,97,98
 327 6 327 6 346 6 c 0,99,100
 367 6 367 6 389 25.5 c 128,-1,101
 411 45 411 45 426 73 c 1,72,-1
EndSplineSet
Validated: 5
EndChar

StartChar: y
Encoding: 121 121 92
Width: 661
Flags: W
LayerCount: 2
Fore
SplineSet
222 1107 m 1,0,-1
 222 1123 l 1,1,2
 241 1144 241 1144 258.5 1158 c 128,-1,3
 276 1172 276 1172 295 1172 c 0,4,5
 309 1172 309 1172 321 1163 c 2,6,-1
 334 1152 l 1,7,-1
 349 1137 l 1,8,-1
 364 1122 l 1,9,-1
 377 1110 l 1,10,11
 389 1101 389 1101 404 1101 c 1,12,13
 420 1103 420 1103 431 1111 c 2,14,-1
 444 1121 l 1,15,-1
 460 1136 l 1,16,17
 475 1154 475 1154 490 1163 c 1,18,19
 502 1172 502 1172 517 1172 c 0,20,21
 533 1172 533 1172 544.5 1164 c 128,-1,22
 556 1156 556 1156 574 1136 c 0,23,24
 584 1125 584 1125 588.5 1120.5 c 128,-1,25
 593 1116 593 1116 601 1111 c 0,26,27
 613 1102 613 1102 626 1102 c 0,28,29
 634 1102 634 1102 666 1123 c 1,30,-1
 666 1107 l 1,31,32
 643 1082 643 1082 627.5 1070 c 128,-1,33
 612 1058 612 1058 591 1058 c 0,34,35
 576 1058 576 1058 565 1066 c 0,36,37
 562 1069 562 1069 553.5 1077 c 128,-1,38
 545 1085 545 1085 537 1093 c 0,39,40
 521 1111 521 1111 509.5 1119.5 c 128,-1,41
 498 1128 498 1128 482 1128 c 0,42,43
 474 1128 474 1128 461.5 1119.5 c 128,-1,44
 449 1111 449 1111 435 1097 c 1,45,-1
 411 1077 l 1,46,47
 381 1058 381 1058 370 1058 c 0,48,49
 353 1058 353 1058 333 1075 c 1,50,-1
 297 1110 l 1,51,-1
 279 1123 l 2,52,53
 271 1128 271 1128 263 1128 c 0,54,55
 254 1128 254 1128 247 1124 c 2,56,-1
 222 1107 l 1,0,-1
0 1107 m 1,57,-1
 0 1119 l 1,58,59
 14 1134 14 1134 20 1141 c 0,60,61
 33 1155 33 1155 38 1159 c 0,62,63
 55 1172 55 1172 73 1172 c 0,64,65
 88 1172 88 1172 100 1163 c 2,66,-1
 113 1152 l 1,67,-1
 128 1137 l 1,68,-1
 142 1122 l 1,69,-1
 156 1110 l 2,70,71
 168 1101 168 1101 183 1101 c 0,72,73
 198 1102 198 1102 209 1111 c 2,74,-1
 222 1121 l 1,75,-1
 238 1136 l 1,76,77
 255 1154 255 1154 267.5 1163 c 128,-1,78
 280 1172 280 1172 296 1172 c 256,79,80
 312 1172 312 1172 325 1162.5 c 128,-1,81
 338 1153 338 1153 353 1136 c 0,82,83
 358 1130 358 1130 363 1125 c 0,84,85
 372 1116 372 1116 380 1111 c 1,86,87
 391 1102 391 1102 405 1102 c 0,88,89
 412 1102 412 1102 445 1123 c 1,90,-1
 445 1107 l 1,91,-1
 405 1069 l 1,92,93
 391 1058 391 1058 369 1058 c 0,94,95
 355 1058 355 1058 344 1066 c 0,96,97
 340 1068 340 1068 332 1076.5 c 128,-1,98
 324 1085 324 1085 316 1093 c 0,99,100
 300 1111 300 1111 287.5 1119.5 c 128,-1,101
 275 1128 275 1128 260 1128 c 0,102,103
 252 1128 252 1128 241 1119 c 1,104,105
 228 1111 228 1111 214 1097 c 1,106,-1
 190 1077 l 1,107,108
 160 1058 160 1058 149 1058 c 0,109,110
 131 1058 131 1058 112 1075 c 1,111,-1
 76 1110 l 1,112,-1
 58 1123 l 1,113,114
 48 1128 48 1128 41 1128 c 0,115,116
 33 1128 33 1128 26 1124 c 2,117,-1
 0 1107 l 1,57,-1
EndSplineSet
Validated: 5
EndChar

StartChar: z
Encoding: 122 122 93
Width: 289
Flags: W
LayerCount: 2
Fore
SplineSet
-249 249 m 1,0,-1
 -60 249 l 1,1,-1
 -60 217 l 1,2,-1
 -271 54 l 1,3,4
 -252 63 -252 63 -232 63 c 0,5,6
 -219 63 -219 63 -198 53.5 c 128,-1,7
 -177 44 -177 44 -169 43 c 1,8,9
 -155 45 -155 45 -155 62 c 1,10,11
 -174 62 -174 62 -177 85 c 1,12,13
 -177 98 -177 98 -168 106 c 1,14,15
 -160 115 -160 115 -147 115 c 0,16,17
 -133 115 -133 115 -123 101 c 1,18,19
 -113 90 -113 90 -113 67 c 0,20,21
 -113 33 -113 33 -137 9 c 1,22,23
 -159 -16 -159 -16 -210 -16 c 0,24,25
 -228 -16 -228 -16 -237 -12 c 2,26,-1
 -249 -6 l 1,27,-1
 -266 4 l 1,28,29
 -288 14 -288 14 -295 14 c 0,30,31
 -308 14 -308 14 -325 0 c 1,32,-1
 -356 0 l 1,33,-1
 -356 16 l 1,34,-1
 -147 193 l 1,35,-1
 -211 192 l 2,36,37
 -225 191 -225 191 -235 184 c 0,38,39
 -239 181 -239 181 -244.5 175 c 128,-1,40
 -250 169 -250 169 -255 162 c 1,41,-1
 -279 162 l 1,42,-1
 -249 249 l 1,0,-1
EndSplineSet
Validated: 1
EndChar

StartChar: braceleft
Encoding: 123 123 94
Width: 255
Flags: W
LayerCount: 2
Fore
SplineSet
-74 220 m 1,0,-1
 -157 220 l 1,1,2
 -170 137 -170 137 -198.5 43 c 128,-1,3
 -227 -51 -227 -51 -249.5 -98.5 c 128,-1,4
 -272 -146 -272 -146 -299 -178 c 1,5,6
 -323 -210 -323 -210 -362 -221 c 1,7,-1
 -381 -223 l 1,8,9
 -413 -223 -413 -223 -429 -197 c 0,10,11
 -435 -189 -435 -189 -438 -181.5 c 128,-1,12
 -441 -174 -441 -174 -444 -165 c 128,-1,13
 -447 -156 -447 -156 -447 -136 c 0,14,15
 -447 -108 -447 -108 -435 -93.5 c 128,-1,16
 -423 -79 -423 -79 -403 -69 c 1,17,18
 -395 -69 -395 -69 -389 -72 c 128,-1,19
 -383 -75 -383 -75 -376 -84 c 0,20,21
 -365 -98 -365 -98 -365 -118 c 0,22,23
 -365 -140 -365 -140 -397 -183 c 1,24,25
 -397 -190 -397 -190 -388 -190 c 0,26,27
 -337 -190 -337 -190 -306 -51 c 1,28,-1
 -299 -22 l 1,29,-1
 -286 38 l 1,30,-1
 -264 140 l 1,31,-1
 -247 220 l 1,32,-1
 -408 220 l 1,33,34
 -420 140 -420 140 -451 40 c 0,35,36
 -469 -19 -469 -19 -477 -40 c 0,37,38
 -489 -72 -489 -72 -502 -98 c 1,39,40
 -551 -206 -551 -206 -612 -221 c 1,41,-1
 -630 -223 l 1,42,43
 -662 -223 -662 -223 -679 -197 c 1,44,45
 -687 -188 -687 -188 -694 -169 c 1,46,47
 -695 -161 -695 -161 -696.5 -154 c 128,-1,48
 -698 -147 -698 -147 -698 -136 c 1,49,50
 -696 -119 -696 -119 -693.5 -108.5 c 128,-1,51
 -691 -98 -691 -98 -685 -90 c 0,52,53
 -675 -77 -675 -77 -652 -69 c 1,54,55
 -636 -69 -636 -69 -625.5 -84 c 128,-1,56
 -615 -99 -615 -99 -615 -118 c 0,57,58
 -615 -129 -615 -129 -617 -134 c 128,-1,59
 -619 -139 -619 -139 -620 -141 c 2,60,-1
 -634 -164 l 1,61,-1
 -649 -183 l 1,62,63
 -649 -190 -649 -190 -639 -190 c 0,64,65
 -622 -190 -622 -190 -608 -175 c 0,66,67
 -603 -170 -603 -170 -596.5 -160.5 c 128,-1,68
 -590 -151 -590 -151 -585 -140 c 2,69,-1
 -571 -104 l 1,70,-1
 -556 -51 l 1,71,-1
 -537 35 l 1,72,-1
 -515 140 l 1,73,-1
 -498 220 l 1,74,-1
 -555 220 l 1,75,-1
 -555 258 l 1,76,-1
 -485 258 l 1,77,78
 -471 305 -471 305 -446.5 346.5 c 128,-1,79
 -422 388 -422 388 -382 417 c 1,80,81
 -345 442 -345 442 -299 442 c 0,82,83
 -276 442 -276 442 -263 422.5 c 128,-1,84
 -250 403 -250 403 -250 376 c 0,85,86
 -250 348 -250 348 -263.5 326 c 128,-1,87
 -277 304 -277 304 -301 300 c 1,88,89
 -326 300 -326 300 -329 332 c 1,90,91
 -329 349 -329 349 -319 369 c 1,92,93
 -309 386 -309 386 -292 394 c 1,94,95
 -287 398 -287 398 -287 400 c 1,96,97
 -292 407 -292 407 -294 409 c 0,98,99
 -301 414 -301 414 -312 414 c 0,100,101
 -345 414 -345 414 -366 366.5 c 128,-1,102
 -387 319 -387 319 -399 260 c 1,103,-1
 -235 260 l 1,104,105
 -215 334 -215 334 -164.5 388 c 128,-1,106
 -114 442 -114 442 -49 442 c 0,107,108
 -37 442 -37 442 -28 437.5 c 128,-1,109
 -19 433 -19 433 -13 422 c 1,110,111
 -9 417 -9 417 -4.5 405 c 128,-1,112
 0 393 0 393 0 376 c 0,113,114
 0 348 0 348 -13 327 c 128,-1,115
 -26 306 -26 306 -50 300 c 1,116,117
 -77 300 -77 300 -80 332 c 0,118,119
 -80 341 -80 341 -77 350 c 128,-1,120
 -74 359 -74 359 -69 368 c 128,-1,121
 -64 377 -64 377 -57.5 383.5 c 128,-1,122
 -51 390 -51 390 -43 394 c 1,123,124
 -38 398 -38 398 -38 400 c 1,125,-1
 -44 409 l 1,126,127
 -51 414 -51 414 -61 414 c 0,128,129
 -117 414 -117 414 -149 258 c 1,130,-1
 -74 258 l 1,131,-1
 -74 220 l 1,0,-1
EndSplineSet
Validated: 1
EndChar

StartChar: bar
Encoding: 124 124 95
Width: 248
Flags: W
LayerCount: 2
Fore
SplineSet
-407 220 m 1,0,1
 -420 137 -420 137 -448.5 43 c 128,-1,2
 -477 -51 -477 -51 -500 -98 c 0,3,4
 -510 -120 -510 -120 -521.5 -139 c 128,-1,5
 -533 -158 -533 -158 -549 -178 c 0,6,7
 -573 -210 -573 -210 -612 -221 c 1,8,-1
 -631 -223 l 1,9,10
 -663 -223 -663 -223 -679 -197 c 0,11,12
 -685 -188 -685 -188 -688 -181 c 128,-1,13
 -691 -174 -691 -174 -694 -165 c 128,-1,14
 -697 -156 -697 -156 -697 -136 c 0,15,16
 -697 -108 -697 -108 -685 -93.5 c 128,-1,17
 -673 -79 -673 -79 -653 -69 c 1,18,19
 -645 -69 -645 -69 -639 -72 c 128,-1,20
 -633 -75 -633 -75 -626 -84 c 0,21,22
 -615 -98 -615 -98 -615 -118 c 0,23,24
 -615 -140 -615 -140 -647 -183 c 1,25,26
 -647 -190 -647 -190 -638 -190 c 0,27,28
 -589 -190 -589 -190 -556 -51 c 2,29,-1
 -549 -22 l 1,30,-1
 -536 38 l 1,31,-1
 -514 140 l 1,32,-1
 -497 220 l 1,33,-1
 -658 220 l 1,34,35
 -670 140 -670 140 -701 40 c 0,36,37
 -719 -19 -719 -19 -727 -40 c 0,38,39
 -739 -72 -739 -72 -752 -98 c 1,40,41
 -801 -206 -801 -206 -862 -221 c 1,42,-1
 -881 -223 l 1,43,44
 -913 -223 -913 -223 -929 -197 c 1,45,46
 -937 -188 -937 -188 -944 -169 c 1,47,48
 -945 -161 -945 -161 -946.5 -154 c 128,-1,49
 -948 -147 -948 -147 -948 -136 c 1,50,51
 -946 -119 -946 -119 -943.5 -108.5 c 128,-1,52
 -941 -98 -941 -98 -935 -90 c 0,53,54
 -925 -77 -925 -77 -902 -69 c 1,55,56
 -887 -69 -887 -69 -876 -84 c 128,-1,57
 -865 -99 -865 -99 -865 -118 c 0,58,59
 -865 -130 -865 -130 -869.5 -138.5 c 128,-1,60
 -874 -147 -874 -147 -875.5 -150 c 128,-1,61
 -877 -153 -877 -153 -884 -164 c 1,62,-1
 -899 -183 l 1,63,64
 -899 -190 -899 -190 -889 -190 c 0,65,66
 -872 -190 -872 -190 -859 -176.5 c 128,-1,67
 -846 -163 -846 -163 -835 -140 c 1,68,-1
 -821 -104 l 1,69,-1
 -806 -51 l 1,70,-1
 -787 35 l 1,71,-1
 -766 140 l 1,72,-1
 -748 220 l 1,73,-1
 -805 220 l 1,74,-1
 -805 258 l 1,75,-1
 -736 258 l 1,76,77
 -720 307 -720 307 -696 347.5 c 128,-1,78
 -672 388 -672 388 -632 417 c 1,79,80
 -595 442 -595 442 -549 442 c 0,81,82
 -526 442 -526 442 -513 422.5 c 128,-1,83
 -500 403 -500 403 -500 376 c 0,84,85
 -500 348 -500 348 -514 325 c 1,86,87
 -529 304 -529 304 -551 300 c 1,88,89
 -579 300 -579 300 -579 332 c 0,90,91
 -579 349 -579 349 -569 369 c 1,92,93
 -558 387 -558 387 -542 394 c 1,94,95
 -537 398 -537 398 -537 400 c 1,96,97
 -542 407 -542 407 -544 409 c 0,98,99
 -551 414 -551 414 -562 414 c 0,100,101
 -595 414 -595 414 -616 366.5 c 128,-1,102
 -637 319 -637 319 -649 260 c 1,103,-1
 -485 260 l 1,104,105
 -465 334 -465 334 -414.5 388 c 128,-1,106
 -364 442 -364 442 -299 442 c 0,107,108
 -287 442 -287 442 -278 437.5 c 128,-1,109
 -269 433 -269 433 -263 422 c 1,110,111
 -259 417 -259 417 -254.5 405 c 128,-1,112
 -250 393 -250 393 -250 376 c 0,113,114
 -250 348 -250 348 -263 327 c 128,-1,115
 -276 306 -276 306 -300 300 c 1,116,117
 -327 300 -327 300 -330 332 c 0,118,119
 -330 341 -330 341 -327 350 c 128,-1,120
 -324 359 -324 359 -319 369 c 0,121,122
 -309 386 -309 386 -293 394 c 1,123,124
 -288 398 -288 398 -288 400 c 1,125,-1
 -294 409 l 1,126,127
 -302 414 -302 414 -311 414 c 0,128,129
 -369 414 -369 414 -399 258 c 1,130,-1
 -235 258 l 1,131,132
 -213 332 -213 332 -163 390 c 0,133,134
 -116 444 -116 444 -49 444 c 0,135,136
 -35 444 -35 444 -28 438 c 1,137,138
 -20 434 -20 434 -12 421 c 0,139,140
 0 401 0 401 0 374 c 0,141,142
 0 345 0 345 -15 325 c 1,143,144
 -26 305 -26 305 -51 300 c 1,145,146
 -75 300 -75 300 -78 332 c 1,147,148
 -78 349 -78 349 -67.5 367.5 c 128,-1,149
 -57 386 -57 386 -43 394 c 1,150,151
 -37 394 -37 394 -37 400 c 1,152,153
 -41 407 -41 407 -44 409 c 0,154,155
 -51 414 -51 414 -61 414 c 0,156,157
 -117 414 -117 414 -149 258 c 1,158,-1
 -73 258 l 1,159,-1
 -73 220 l 1,160,-1
 -158 220 l 1,161,162
 -168 154 -168 154 -184 99 c 1,163,164
 -200 33 -200 33 -217 -16 c 128,-1,165
 -234 -65 -234 -65 -250 -98 c 1,166,167
 -262 -120 -262 -120 -274.5 -140.5 c 128,-1,168
 -287 -161 -287 -161 -300 -177 c 0,169,170
 -324 -209 -324 -209 -361 -221 c 1,171,-1
 -379 -223 l 1,172,173
 -412 -223 -412 -223 -428 -198 c 0,174,175
 -436 -187 -436 -187 -441 -169 c 1,176,177
 -447 -154 -447 -154 -447 -136 c 1,178,179
 -444 -108 -444 -108 -433.5 -92 c 128,-1,180
 -423 -76 -423 -76 -401 -69 c 1,181,182
 -386 -69 -386 -69 -375.5 -82.5 c 128,-1,183
 -365 -96 -365 -96 -365 -116 c 0,184,185
 -365 -125 -365 -125 -370 -140 c 1,186,-1
 -374 -147 l 1,187,-1
 -384 -162 l 2,188,189
 -390 -170 -390 -170 -392.5 -174 c 128,-1,190
 -395 -178 -395 -178 -397 -183 c 1,191,192
 -397 -190 -397 -190 -387 -190 c 0,193,194
 -359 -190 -359 -190 -339 -148 c 1,195,196
 -330 -126 -330 -126 -321.5 -102.5 c 128,-1,197
 -313 -79 -313 -79 -306 -51 c 2,198,-1
 -287 35 l 1,199,-1
 -265 134 l 1,200,-1
 -247 220 l 1,201,-1
 -407 220 l 1,0,1
EndSplineSet
Validated: 1
EndChar

StartChar: braceright
Encoding: 125 125 96
Width: 373
Flags: W
LayerCount: 2
Fore
SplineSet
10 0 m 1,0,1
 49 24 49 24 88 48 c 1,2,3
 163 89 163 89 243 131 c 128,-1,4
 323 173 323 173 324 173 c 0,5,6
 330 178 330 178 339 178 c 0,7,8
 352 178 352 178 362 167 c 128,-1,9
 372 156 372 156 372 142 c 0,10,11
 372 131 372 131 364 124 c 1,12,13
 319 107 319 107 274 90 c 0,14,15
 145 42 145 42 106 28 c 0,16,17
 14 -4 14 -4 10 0 c 1,0,1
EndSplineSet
Validated: 33
EndChar

StartChar: asciitilde
Encoding: 126 126 97
Width: 102
Flags: W
LayerCount: 2
Fore
SplineSet
102 345 m 1,0,-1
 0 345 l 1,1,-1
 0 375 l 1,2,-1
 71 375 l 1,3,-1
 71 542 l 1,4,-1
 102 542 l 1,5,-1
 102 345 l 1,0,-1
EndSplineSet
Validated: 1
EndChar

StartChar: DEL
Encoding: 127 127 98
Width: 381
Flags: W
LayerCount: 2
Fore
SplineSet
161 149 m 1,0,-1
 119 143 l 1,1,2
 133 162 133 162 167 178 c 1,3,-1
 183 189 l 1,4,-1
 183 148 l 1,5,-1
 161 149 l 1,0,-1
222 440 m 1,6,7
 242 417 242 417 242 374 c 0,8,9
 242 345 242 345 226 305 c 1,10,-1
 208 271 l 1,11,-1
 208 451 l 1,12,-1
 222 440 l 1,6,7
183 505 m 1,13,14
 143 505 143 505 104.5 488 c 128,-1,15
 66 471 66 471 39.5 438 c 128,-1,16
 13 405 13 405 13 369 c 0,17,18
 13 324 13 324 34 300 c 1,19,20
 54 274 54 274 80 274 c 1,21,22
 94 278 94 278 107.5 285 c 128,-1,23
 121 292 121 292 131 301 c 0,24,25
 152 319 152 319 152 350 c 0,26,27
 152 365 152 365 145 376 c 1,28,-1
 122 398 l 1,29,-1
 98 416 l 1,30,31
 92 427 92 427 90 434 c 1,32,33
 94 450 94 450 109.5 455 c 128,-1,34
 125 460 125 460 135 462 c 128,-1,35
 145 464 145 464 158 464 c 0,36,37
 175 464 175 464 183 462 c 1,38,-1
 183 242 l 1,39,-1
 159 222 l 1,40,-1
 119 191 l 1,41,42
 110 186 110 186 100 178 c 0,43,44
 85 165 85 165 77 159 c 2,45,-1
 52 139 l 2,46,47
 42 130 42 130 34.5 120.5 c 128,-1,48
 27 111 27 111 18 96 c 0,49,50
 -3 64 -3 64 0 31 c 2,51,-1
 2 2 l 1,52,-1
 36 2 l 1,53,54
 41 33 41 33 56 47 c 0,55,56
 61 53 61 53 71.5 59.5 c 128,-1,57
 82 66 82 66 92 66 c 0,58,59
 99 66 99 66 108.5 63.5 c 128,-1,60
 118 61 118 61 131 54 c 1,61,-1
 171 25 l 1,62,-1
 183 16 l 1,63,-1
 183 -69 l 1,64,-1
 208 -69 l 1,65,-1
 208 0 l 1,66,-1
 213 -2 l 2,67,68
 234 -11 234 -11 239 -12.5 c 128,-1,69
 244 -14 244 -14 255 -14 c 0,70,71
 299 -14 299 -14 330 30 c 0,72,73
 344 50 344 50 351 86.5 c 128,-1,74
 358 123 358 123 358 169 c 1,75,-1
 328 169 l 1,76,77
 317 107 317 107 291 107 c 0,78,79
 287 107 287 107 275 113 c 128,-1,80
 263 119 263 119 256 122 c 0,81,82
 231 136 231 136 208 143 c 1,83,-1
 208 202 l 1,84,-1
 250 222 l 2,85,86
 273 234 273 234 287 244.5 c 128,-1,87
 301 255 301 255 321 275 c 1,88,89
 349 309 349 309 349 354 c 0,90,91
 349 426 349 426 304 468 c 0,92,93
 265 505 265 505 208 505 c 1,94,-1
 208 564 l 1,95,-1
 183 564 l 1,96,-1
 183 505 l 1,13,14
EndSplineSet
Validated: 41
EndChar

StartChar: c128
Encoding: 128 128 99
Width: 360
Flags: W
LayerCount: 2
Fore
SplineSet
196 208 m 0,0,1
 209 198 209 198 218.5 171.5 c 128,-1,2
 228 145 228 145 228 116 c 0,3,4
 228 108 228 108 227.5 97.5 c 128,-1,5
 227 87 227 87 219 72.5 c 128,-1,6
 211 58 211 58 198 48.5 c 128,-1,7
 185 39 185 39 174 35 c 1,8,-1
 174 225 l 1,9,10
 182 221 182 221 186.5 216.5 c 128,-1,11
 191 212 191 212 196 208 c 0,0,1
198 443 m 0,12,13
 222 416 222 416 222 377 c 0,14,15
 222 322 222 322 193 299 c 1,16,-1
 174 287 l 1,17,-1
 174 461 l 1,18,19
 188 455 188 455 198 443 c 0,12,13
148 506 m 1,20,21
 100 502 100 502 57 473 c 0,22,23
 9 440 9 440 9 386 c 0,24,25
 9 351 9 351 27 330 c 0,26,27
 35 321 35 321 47 314.5 c 128,-1,28
 59 308 59 308 71 308 c 1,29,30
 87 310 87 310 96 314 c 128,-1,31
 105 318 105 318 116 327 c 1,32,33
 127 340 127 340 130 347 c 1,34,35
 137 358 137 358 137 372 c 0,36,37
 137 399 137 399 129 410.5 c 128,-1,38
 121 422 121 422 109 431 c 0,39,40
 104 434 104 434 99 440 c 0,41,42
 98 441 98 441 96 444 c 1,43,44
 109 468 109 468 143 468 c 2,45,-1
 148 468 l 1,46,-1
 148 279 l 1,47,48
 138 277 138 277 128 276 c 128,-1,49
 118 275 118 275 102 275 c 1,50,-1
 102 239 l 1,51,52
 126 239 126 239 148 234 c 1,53,-1
 148 29 l 1,54,-1
 143 29 l 2,55,56
 118 29 118 29 110 55 c 1,57,58
 110 64 110 64 122 82 c 0,59,60
 131 96 131 96 131 116 c 0,61,62
 131 144 131 144 115 164.5 c 128,-1,63
 99 185 99 185 66 185 c 1,64,-1
 63 186 l 1,65,-1
 61 189 l 1,66,67
 34 189 34 189 17.5 163 c 128,-1,68
 1 137 1 137 1 103 c 0,69,70
 1 81 1 81 9 67 c 128,-1,71
 17 53 17 53 24 44 c 128,-1,72
 31 35 31 35 40 28 c 0,73,74
 59 12 59 12 87 1 c 1,75,76
 114 -8 114 -8 147 -8 c 1,77,-1
 148 -61 l 1,78,-1
 174 -61 l 1,79,-1
 174 -7 l 1,80,-1
 193 -4 l 1,81,-1
 239 8 l 1,82,83
 283 26 283 26 310 59 c 128,-1,84
 337 92 337 92 337 139 c 0,85,86
 337 171 337 171 323.5 195.5 c 128,-1,87
 310 220 310 220 283 237 c 1,88,89
 268 245 268 245 253.5 251.5 c 128,-1,90
 239 258 239 258 223 259 c 1,91,92
 331 279 331 279 331 386 c 0,93,94
 331 413 331 413 318.5 433.5 c 128,-1,95
 306 454 306 454 280 473 c 1,96,97
 255 489 255 489 229.5 498 c 128,-1,98
 204 507 204 507 174 507 c 1,99,-1
 174 573 l 1,100,-1
 148 573 l 1,101,-1
 148 506 l 1,20,21
EndSplineSet
Validated: 9
EndChar

StartChar: c129
Encoding: 129 129 100
Width: 426
Flags: W
LayerCount: 2
Fore
SplineSet
193 460 m 1,0,1
 129 426 129 426 129 316 c 2,2,-1
 129 195 l 2,3,4
 129 136 129 136 148 99 c 1,5,6
 165 62 165 62 193 50 c 1,7,-1
 193 460 l 1,0,1
191 580 m 1,8,-1
 223 580 l 1,9,-1
 223 513 l 1,10,11
 274 513 274 513 320 495.5 c 128,-1,12
 366 478 366 478 395 442.5 c 128,-1,13
 424 407 424 407 424 358 c 0,14,15
 424 334 424 334 411 314 c 1,16,17
 396 294 396 294 379 285 c 1,18,-1
 358 276 l 1,19,-1
 335 273 l 1,20,21
 302 276 302 276 279 295 c 1,22,23
 259 316 259 316 252 347 c 1,24,25
 252 376 252 376 279 400 c 128,-1,26
 306 424 306 424 333 428 c 1,27,28
 352 428 352 428 352 439 c 0,29,30
 352 448 352 448 337 457 c 1,31,32
 322 468 322 468 300.5 475 c 128,-1,33
 279 482 279 482 256 482 c 0,34,35
 241 482 241 482 223 476 c 1,36,-1
 223 37 l 1,37,38
 233 35 233 35 237.5 34 c 128,-1,39
 242 33 242 33 254 33 c 0,40,41
 291 33 291 33 324 60 c 128,-1,42
 357 87 357 87 377 127 c 1,43,-1
 395 167 l 1,44,45
 400 187 400 187 400 203 c 1,46,-1
 426 203 l 1,47,48
 417 96 417 96 359 48 c 128,-1,49
 301 0 301 0 223 0 c 1,50,-1
 223 -69 l 1,51,-1
 193 -69 l 1,52,-1
 193 4 l 1,53,54
 120 17 120 17 62 81 c 0,55,56
 47 97 47 97 37 115 c 128,-1,57
 27 133 27 133 17 158 c 1,58,59
 1 203 1 203 1 256 c 0,60,61
 1 347 1 347 52.5 416 c 128,-1,62
 104 485 104 485 191 507 c 1,63,-1
 191 580 l 1,8,-1
EndSplineSet
Validated: 1
EndChar

StartChar: quotesinglbase
Encoding: 8218 8218 101
Width: 243
Flags: W
LayerCount: 2
Fore
SplineSet
243 65 m 0,0,1
 243 24 243 24 234 -11 c 128,-1,2
 225 -46 225 -46 202 -87 c 1,3,4
 152 -171 152 -171 79 -171 c 0,5,6
 42 -171 42 -171 21 -144 c 128,-1,7
 0 -117 0 -117 0 -78 c 0,8,9
 0 0 0 0 43 71 c 0,10,11
 69 114 69 114 99.5 134.5 c 128,-1,12
 130 155 130 155 166 155 c 0,13,14
 201 155 201 155 222 128 c 128,-1,15
 243 101 243 101 243 65 c 0,0,1
191 97 m 0,16,17
 191 115 191 115 183 124 c 128,-1,18
 175 133 175 133 166 136 c 1,19,20
 117 136 117 136 81 29 c 0,21,22
 52 -56 52 -56 52 -114 c 1,23,-1
 54 -128 l 1,24,25
 56 -131 56 -131 57 -134 c 128,-1,26
 58 -137 58 -137 61 -140 c 0,27,28
 68 -150 68 -150 81 -152 c 1,29,30
 126 -152 126 -152 163 -45 c 1,31,-1
 184 33 l 1,32,33
 191 65 191 65 191 97 c 0,16,17
EndSplineSet
Validated: 1
EndChar

StartChar: florin
Encoding: 402 402 102
Width: 207
Flags: W
LayerCount: 2
Fore
SplineSet
207 155 m 1,0,-1
 122 -120 l 1,1,2
 119 -125 119 -125 127 -130 c 1,3,-1
 135 -133 l 1,4,-1
 153 -135 l 1,5,-1
 164 -135 l 1,6,-1
 158 -156 l 1,7,-1
 0 -156 l 1,8,-1
 6 -135 l 1,9,-1
 21 -135 l 2,10,11
 31 -135 31 -135 42 -130 c 1,12,13
 56 -128 56 -128 62 -110 c 2,14,-1
 117 66 l 1,15,-1
 46 10 l 1,16,-1
 36 20 l 1,17,-1
 145 155 l 1,18,-1
 207 155 l 1,0,-1
EndSplineSet
Validated: 1
EndChar

StartChar: quotedblbase
Encoding: 8222 8222 103
Width: 260
Flags: W
LayerCount: 2
Fore
SplineSet
260 75 m 0,0,1
 260 35 260 35 220 11 c 1,2,-1
 150 -21 l 1,3,4
 95 -36 95 -36 54 -81 c 1,5,-1
 75 -81 l 1,6,-1
 101 -83 l 1,7,-1
 113 -89 l 1,8,-1
 130 -96 l 1,9,-1
 155 -106 l 2,10,11
 164 -110 164 -110 176 -110 c 1,12,-1
 191 -106 l 1,13,-1
 202 -98 l 1,14,15
 209 -91 209 -91 221 -72 c 1,16,-1
 238 -81 l 1,17,-1
 222 -109 l 2,18,19
 219 -114 219 -114 211.5 -126 c 128,-1,20
 204 -138 204 -138 202 -140 c 0,21,22
 174 -171 174 -171 145 -171 c 2,23,-1
 135 -171 l 1,24,-1
 125 -166 l 1,25,-1
 99 -151 l 1,26,-1
 84 -140 l 1,27,28
 66 -130 66 -130 52 -130 c 1,29,30
 40 -133 40 -133 31 -142 c 1,31,-1
 28 -147 l 1,32,-1
 23 -156 l 1,33,-1
 0 -156 l 1,34,35
 0 -116 0 -116 20 -84 c 1,36,37
 31 -70 31 -70 39 -63 c 2,38,-1
 67 -38 l 1,39,-1
 105 -17 l 1,40,-1
 126 -5 l 1,41,-1
 145 4 l 2,42,43
 169 15 169 15 184 34 c 1,44,45
 203 56 203 56 203 79 c 1,46,-1
 204 91 l 1,47,48
 204 111 204 111 192 122 c 1,49,50
 183 136 183 136 164 136 c 0,51,52
 121 136 121 136 112 92 c 1,53,-1
 115 80 l 1,54,-1
 117 64 l 1,55,56
 117 52 117 52 115 48 c 0,57,58
 108 35 108 35 92 35 c 0,59,60
 81 35 81 35 72 44 c 1,61,62
 66 53 66 53 66 63 c 0,63,64
 66 98 66 98 97.5 126.5 c 128,-1,65
 129 155 129 155 166 155 c 0,66,67
 206 155 206 155 229 142 c 0,68,69
 260 123 260 123 260 75 c 0,0,1
EndSplineSet
Validated: 1
EndChar

StartChar: ellipsis
Encoding: 8230 8230 104
Width: 255
Flags: W
LayerCount: 2
Fore
SplineSet
255 87 m 0,0,1
 255 53 255 53 228 26 c 1,2,3
 208 8 208 8 173 -7 c 1,4,5
 212 -38 212 -38 212 -71 c 0,6,7
 212 -110 212 -110 174 -142 c 0,8,9
 168 -147 168 -147 156.5 -154 c 128,-1,10
 145 -161 145 -161 136 -164 c 0,11,12
 118 -171 118 -171 94 -171 c 2,13,-1
 82 -171 l 2,14,15
 76 -171 76 -171 62 -169 c 1,16,17
 46 -165 46 -165 35 -160 c 0,18,19
 0 -145 0 -145 0 -115 c 0,20,21
 0 -70 0 -70 37 -66 c 1,22,23
 48 -66 48 -66 58 -75 c 128,-1,24
 68 -84 68 -84 71 -97 c 1,25,26
 71 -105 71 -105 60 -118 c 1,27,-1
 53 -123 l 1,28,29
 47 -129 47 -129 47 -139 c 1,30,-1
 58 -148 l 1,31,-1
 75 -152 l 1,32,33
 106 -152 106 -152 131 -115 c 1,34,35
 150 -83 150 -83 150 -45 c 1,36,37
 143 -22 143 -22 126.5 -16 c 128,-1,38
 110 -10 110 -10 84 -10 c 1,39,-1
 90 13 l 1,40,41
 141 13 141 13 167 26 c 1,42,43
 197 44 197 44 197 96 c 1,44,45
 194 119 194 119 185 127.5 c 128,-1,46
 176 136 176 136 158 136 c 1,47,-1
 138 133 l 1,48,49
 126 128 126 128 126 117 c 1,50,51
 129 107 129 107 131 103 c 2,52,-1
 135 92 l 1,53,-1
 138 82 l 1,54,-1
 135 70 l 1,55,56
 128 61 128 61 115 57 c 1,57,58
 104 55 104 55 92 62 c 128,-1,59
 80 69 80 69 79 84 c 1,60,61
 79 113 79 113 105 134 c 128,-1,62
 131 155 131 155 161 155 c 0,63,64
 202 155 202 155 229 140 c 1,65,66
 241 131 241 131 248 116.5 c 128,-1,67
 255 102 255 102 255 87 c 0,0,1
EndSplineSet
Validated: 1
EndChar

StartChar: dagger
Encoding: 8224 8224 105
Width: 259
Flags: W
LayerCount: 2
Fore
SplineSet
259 -46 m 1,0,-1
 253 -67 l 1,1,-1
 194 -67 l 1,2,-1
 178 -119 l 1,3,4
 174 -128 174 -128 187 -133 c 1,5,-1
 221 -135 l 1,6,-1
 215 -156 l 1,7,-1
 60 -156 l 1,8,-1
 66 -135 l 1,9,-1
 84 -134 l 1,10,-1
 99 -130 l 1,11,12
 112 -125 112 -125 119 -107 c 1,13,-1
 132 -67 l 1,14,-1
 0 -67 l 1,15,-1
 5 -46 l 1,16,17
 23 -31 23 -31 44 -7 c 1,18,-1
 77 36 l 2,19,20
 97 63 97 63 117 104 c 1,21,-1
 128 130 l 1,22,-1
 138 155 l 1,23,-1
 235 155 l 1,24,-1
 199 106 l 2,25,26
 191 96 191 96 177.5 83 c 128,-1,27
 164 70 164 70 150 57 c 2,28,-1
 111 20 l 1,29,-1
 35 -43 l 1,30,-1
 143 -46 l 1,31,-1
 163 26 l 1,32,-1
 243 103 l 1,33,-1
 248 103 l 1,34,-1
 204 -46 l 1,35,-1
 259 -46 l 1,0,-1
EndSplineSet
Validated: 1
EndChar

StartChar: daggerdbl
Encoding: 8225 8225 106
Width: 240
Flags: W
LayerCount: 2
Fore
SplineSet
240 155 m 1,0,1
 222 130 222 130 202 116 c 0,2,3
 173 97 173 97 151 97 c 2,4,-1
 141 97 l 1,5,-1
 119 99 l 1,6,-1
 109 103 l 1,7,-1
 93 110 l 1,8,-1
 57 2 l 1,9,-1
 75 14 l 1,10,-1
 95 23 l 1,11,-1
 117 28 l 1,12,-1
 143 31 l 1,13,14
 156 31 156 31 173 26 c 1,15,16
 182 22 182 22 186 19.5 c 128,-1,17
 190 17 190 17 197 9 c 0,18,19
 219 -12 219 -12 219 -49 c 0,20,21
 219 -97 219 -97 178 -136 c 1,22,23
 135 -171 135 -171 84 -171 c 0,24,25
 63 -171 63 -171 49.5 -168 c 128,-1,26
 36 -165 36 -165 23 -156 c 0,27,28
 0 -139 0 -139 0 -105 c 1,29,-1
 1 -91 l 1,30,31
 4 -84 4 -84 8 -77 c 1,32,33
 19 -67 19 -67 35 -63 c 1,34,35
 45 -63 45 -63 54 -72 c 1,36,-1
 58 -81 l 1,37,-1
 60 -92 l 1,38,-1
 56 -105 l 1,39,40
 54 -108 54 -108 52.5 -110.5 c 128,-1,41
 51 -113 51 -113 48 -116 c 1,42,-1
 41 -132 l 1,43,44
 41 -144 41 -144 51 -148 c 2,45,-1
 64 -152 l 1,46,-1
 79 -152 l 2,47,48
 112 -152 112 -152 138 -107 c 0,49,50
 161 -67 161 -67 161 -32 c 1,51,-1
 158 -19 l 2,52,53
 157 -14 157 -14 151 -8 c 128,-1,54
 145 -2 145 -2 137 1 c 2,55,-1
 122 5 l 1,56,-1
 105 4 l 1,57,-1
 89 1 l 1,58,-1
 72 -9 l 1,59,-1
 49 -27 l 1,60,-1
 28 -27 l 1,61,-1
 90 155 l 1,62,63
 96 153 96 153 106 150.5 c 128,-1,64
 116 148 116 148 125 146 c 1,65,-1
 158 143 l 1,66,-1
 168 143 l 1,67,-1
 191 146 l 1,68,-1
 240 155 l 1,0,1
EndSplineSet
Validated: 1
EndChar

StartChar: circumflex
Encoding: 710 710 107
Width: 214
Flags: W
LayerCount: 2
Fore
SplineSet
214 106 m 0,0,1
 214 95 214 95 212 90 c 2,2,-1
 204 76 l 2,3,4
 198 66 198 66 176 61 c 1,5,-1
 163 62 l 1,6,-1
 151 69 l 1,7,8
 145 75 145 75 145 89 c 1,9,-1
 146 100 l 1,10,-1
 154 110 l 1,11,-1
 171 126 l 1,12,13
 168 136 168 136 151 136 c 0,14,15
 106 136 106 136 82 62 c 1,16,-1
 73 31 l 1,17,-1
 67 -5 l 1,18,19
 88 13 88 13 106.5 21 c 128,-1,20
 125 29 125 29 150 29 c 1,21,22
 170 26 170 26 188 7 c 0,23,24
 202 -7 202 -7 206 -32 c 1,25,26
 206 -84 206 -84 171 -129 c 0,27,28
 155 -149 155 -149 135 -160 c 0,29,30
 127 -165 127 -165 113.5 -168 c 128,-1,31
 100 -171 100 -171 88 -171 c 0,32,33
 38 -171 38 -171 19 -143.5 c 128,-1,34
 0 -116 0 -116 0 -63 c 0,35,36
 0 -54 0 -54 0 -45 c 128,-1,37
 0 -36 0 -36 3 -25 c 1,38,39
 3 -14 3 -14 4.5 -7.5 c 128,-1,40
 6 -1 6 -1 12 14 c 1,41,42
 25 56 25 56 47 87 c 128,-1,43
 69 118 69 118 95 134 c 1,44,45
 124 155 124 155 154 155 c 0,46,47
 181 155 181 155 196 143 c 0,48,49
 203 137 203 137 208.5 127.5 c 128,-1,50
 214 118 214 118 214 106 c 0,0,1
149 -33 m 1,51,-1
 146 -23 l 1,52,-1
 140 -11 l 1,53,54
 133 -3 133 -3 120 0 c 2,55,-1
 114 1 l 1,56,57
 97 1 97 1 77 -32 c 1,58,-1
 63 -72 l 1,59,60
 58 -94 58 -94 58 -113 c 0,61,62
 58 -130 58 -130 63.5 -140.5 c 128,-1,63
 69 -151 69 -151 85 -152 c 1,64,65
 112 -152 112 -152 133 -105 c 1,66,67
 141 -83 141 -83 145 -67 c 128,-1,68
 149 -51 149 -51 149 -33 c 1,51,-1
EndSplineSet
Validated: 1
EndChar

StartChar: perthousand
Encoding: 8240 8240 108
Width: 243
Flags: W
LayerCount: 2
Fore
SplineSet
243 155 m 1,0,1
 238 117 238 117 225 88 c 1,2,3
 212 53 212 53 168 -17 c 1,4,-1
 151 -52 l 1,5,-1
 138 -87 l 1,6,7
 134 -102 134 -102 131 -120.5 c 128,-1,8
 128 -139 128 -139 128 -156 c 1,9,-1
 28 -156 l 1,10,11
 31 -134 31 -134 52 -102 c 0,12,13
 63 -85 63 -85 88 -53 c 0,14,15
 95 -44 95 -44 108 -29 c 128,-1,16
 121 -14 121 -14 138 3 c 0,17,18
 162 28 162 28 179 53 c 128,-1,19
 196 78 196 78 208 107 c 1,20,-1
 206 109 l 1,21,22
 182 85 182 85 163 77 c 0,23,24
 158 74 158 74 152.5 73 c 128,-1,25
 147 72 147 72 140 72 c 2,26,-1
 132 72 l 1,27,-1
 105 88 l 2,28,29
 92 96 92 96 75 96 c 0,30,31
 67 96 67 96 58 90 c 1,32,-1
 42 76 l 1,33,34
 32 60 32 60 21 34 c 1,35,-1
 0 34 l 1,36,-1
 38 155 l 1,37,-1
 58 155 l 1,38,39
 50 141 50 141 50 134 c 0,40,41
 50 128 50 128 52 126 c 2,42,-1
 61 120 l 1,43,-1
 85 140 l 2,44,45
 91 145 91 145 97 148 c 0,46,47
 110 155 110 155 125 155 c 0,48,49
 131 155 131 155 143 149 c 1,50,-1
 148 145 l 1,51,52
 155 141 155 141 158 134 c 1,53,54
 175 120 175 120 191 120 c 1,55,-1
 204 121 l 1,56,-1
 213 128 l 2,57,58
 215 130 215 130 218 138 c 128,-1,59
 221 146 221 146 224 155 c 1,60,-1
 243 155 l 1,0,1
EndSplineSet
Validated: 1
EndChar

StartChar: Scaron
Encoding: 352 352 109
Width: 274
Flags: W
LayerCount: 2
Fore
SplineSet
274 60 m 0,0,1
 274 44 274 44 261 27.5 c 128,-1,2
 248 11 248 11 205 -9 c 1,3,-1
 219 -29 l 1,4,-1
 229 -45 l 1,5,6
 235 -57 235 -57 236 -63 c 2,7,-1
 239 -82 l 1,8,9
 239 -128 239 -128 199 -152 c 1,10,11
 165 -171 165 -171 115 -171 c 0,12,13
 73 -171 73 -171 40 -151 c 0,14,15
 0 -126 0 -126 0 -84 c 0,16,17
 0 -52 0 -52 29 -28 c 1,18,19
 53 -10 53 -10 89 4 c 1,20,21
 82 14 82 14 77.5 21 c 128,-1,22
 73 28 73 28 68 39 c 1,23,-1
 62 57 l 1,24,-1
 61 76 l 1,25,26
 61 113 61 113 95 134 c 128,-1,27
 129 155 129 155 169 155 c 0,28,29
 190 155 190 155 207 148 c 0,30,31
 215 145 215 145 222 141 c 128,-1,32
 229 137 229 137 241 128 c 0,33,34
 258 114 258 114 265 97 c 1,35,36
 274 80 274 80 274 60 c 0,0,1
235 68 m 1,37,-1
 236 76 l 1,38,39
 236 86 236 86 232 95 c 1,40,41
 229 106 229 106 220 114 c 1,42,43
 203 136 203 136 176 136 c 0,44,45
 157 136 157 136 143 126.5 c 128,-1,46
 129 117 129 117 126 99 c 1,47,48
 126 67 126 67 160 33 c 1,49,-1
 192 3 l 1,50,51
 228 25 228 25 235 68 c 1,37,-1
175 -109 m 1,52,53
 175 -98 175 -98 167 -84 c 0,54,55
 165 -81 165 -81 156 -67 c 0,56,57
 155 -65 155 -65 149 -59 c 128,-1,58
 143 -53 143 -53 139 -49 c 2,59,-1
 101 -9 l 1,60,-1
 76 -26 l 1,61,-1
 58 -42 l 1,62,-1
 46 -63 l 1,63,64
 42 -74 42 -74 42 -91 c 0,65,66
 42 -116 42 -116 65 -136 c 1,67,-1
 89 -148 l 1,68,69
 100 -152 100 -152 115 -152 c 0,70,71
 146 -152 146 -152 161 -140 c 1,72,73
 176 -132 176 -132 176 -115 c 1,74,-1
 175 -109 l 1,52,53
EndSplineSet
Validated: 1
EndChar

StartChar: guilsinglleft
Encoding: 8249 8249 110
Width: 225
Flags: W
LayerCount: 2
Fore
SplineSet
225 44 m 0,0,1
 225 28 225 28 222 10.5 c 128,-1,2
 219 -7 219 -7 214 -25 c 0,3,4
 203 -58 203 -58 182 -91 c 1,5,6
 136 -159 136 -159 70 -171 c 1,7,-1
 62 -172 l 1,8,9
 42 -172 42 -172 20 -156 c 1,10,11
 11 -148 11 -148 5.5 -137.5 c 128,-1,12
 0 -127 0 -127 0 -112 c 2,13,-1
 0 -104 l 1,14,15
 2 -98 2 -98 4 -96 c 0,16,17
 11 -85 11 -85 27 -82 c 1,18,19
 37 -82 37 -82 45 -90 c 1,20,21
 50 -92 50 -92 53 -109 c 1,22,-1
 51 -119 l 1,23,-1
 48 -136 l 2,24,25
 45 -152 45 -152 61 -152 c 0,26,27
 91 -152 91 -152 122 -98 c 1,28,-1
 136 -63 l 1,29,30
 140 -56 140 -56 144 -42 c 128,-1,31
 148 -28 148 -28 151 -19 c 1,32,-1
 127 -32 l 1,33,-1
 114 -40 l 1,34,35
 104 -44 104 -44 95.5 -46 c 128,-1,36
 87 -48 87 -48 77 -48 c 0,37,38
 44 -48 44 -48 27 -28 c 1,39,40
 8 -10 8 -10 8 24 c 0,41,42
 8 73 8 73 40.5 114 c 128,-1,43
 73 155 73 155 131 155 c 0,44,45
 175 155 175 155 202 124 c 1,46,47
 211 111 211 111 219 89 c 1,48,49
 221 79 221 79 223 67 c 128,-1,50
 225 55 225 55 225 44 c 0,0,1
167 93 m 0,51,52
 167 108 167 108 160.5 120.5 c 128,-1,53
 154 133 154 133 140 136 c 1,54,55
 109 136 109 136 87.5 100 c 128,-1,56
 66 64 66 64 66 29 c 0,57,58
 66 11 66 11 71.5 -1.5 c 128,-1,59
 77 -14 77 -14 97 -19 c 1,60,61
 123 -22 123 -22 148 20 c 0,62,63
 156 35 156 35 161.5 53.5 c 128,-1,64
 167 72 167 72 167 93 c 0,51,52
EndSplineSet
Validated: 33
EndChar

StartChar: OE
Encoding: 338 338 111
Width: 422
Flags: W
LayerCount: 2
Fore
SplineSet
0 273 m 0,0,1
 0 331 0 331 33 390 c 0,2,3
 49 419 49 419 70.5 441 c 128,-1,4
 92 463 92 463 119 481 c 0,5,6
 174 516 174 516 235 516 c 0,7,8
 272 516 272 516 320 496 c 0,9,10
 343 487 343 487 360 475 c 128,-1,11
 377 463 377 463 394 444 c 1,12,13
 422 408 422 408 422 365 c 0,14,15
 422 326 422 326 397 300 c 1,16,17
 382 288 382 288 367.5 281.5 c 128,-1,18
 353 275 353 275 333 275 c 0,19,20
 304 275 304 275 281 293 c 1,21,22
 261 311 261 311 255 345 c 1,23,24
 255 362 255 362 259 373 c 128,-1,25
 263 384 263 384 276 397 c 1,26,27
 295 420 295 420 326 428 c 1,28,-1
 336 430 l 2,29,30
 344 432 344 432 345 434 c 0,31,32
 350 439 350 439 350 441 c 0,33,34
 343 460 343 460 313.5 472 c 128,-1,35
 284 484 284 484 259 484 c 0,36,37
 227 484 227 484 200 467 c 128,-1,38
 173 450 173 450 156 424 c 1,39,40
 130 380 130 380 130 269 c 0,41,42
 130 168 130 168 138 130 c 1,43,44
 145 106 145 106 154.5 90 c 128,-1,45
 164 74 164 74 179 61 c 0,46,47
 210 35 210 35 252 35 c 0,48,49
 286 35 286 35 317 55 c 128,-1,50
 348 75 348 75 370 113 c 128,-1,51
 392 151 392 151 399 203 c 1,52,-1
 427 203 l 1,53,54
 427 161 427 161 411.5 125.5 c 128,-1,55
 396 90 396 90 367 58 c 0,56,57
 312 0 312 0 223 0 c 0,58,59
 154 0 154 0 104 40 c 0,60,61
 79 60 79 60 59.5 85.5 c 128,-1,62
 40 111 40 111 27 144 c 1,63,64
 0 207 0 207 0 273 c 0,0,1
EndSplineSet
Validated: 1
EndChar

StartChar: c141
Encoding: 141 141 112
Width: 422
Flags: W
LayerCount: 2
Fore
SplineSet
422 243 m 0,0,1
 422 185 422 185 389 126 c 0,2,3
 373 97 373 97 351.5 75 c 128,-1,4
 330 53 330 53 303 35 c 0,5,6
 248 0 248 0 187 0 c 0,7,8
 150 0 150 0 102 20 c 0,9,10
 80 29 80 29 62.5 41 c 128,-1,11
 45 53 45 53 28 72 c 1,12,13
 0 108 0 108 0 151 c 0,14,15
 0 190 0 190 25 216 c 1,16,17
 40 228 40 228 54.5 234.5 c 128,-1,18
 69 241 69 241 89 241 c 0,19,20
 118 241 118 241 141 223 c 1,21,22
 161 205 161 205 167 171 c 1,23,24
 167 154 167 154 163 143 c 128,-1,25
 159 132 159 132 146 119 c 1,26,27
 127 96 127 96 96 88 c 1,28,-1
 86 86 l 2,29,30
 78 84 78 84 75 80.5 c 128,-1,31
 72 77 72 77 72 75 c 0,32,33
 79 56 79 56 108.5 44 c 128,-1,34
 138 32 138 32 163 32 c 0,35,36
 195 32 195 32 222 49 c 128,-1,37
 249 66 249 66 266 92 c 1,38,39
 292 136 292 136 292 247 c 0,40,41
 292 348 292 348 284 386 c 1,42,43
 277 410 277 410 267.5 426 c 128,-1,44
 258 442 258 442 243 455 c 0,45,46
 212 481 212 481 170 481 c 0,47,48
 136 481 136 481 105 461 c 128,-1,49
 74 441 74 441 52 403 c 128,-1,50
 30 365 30 365 23 313 c 1,51,-1
 -5 313 l 1,52,53
 -5 355 -5 355 10.5 390.5 c 128,-1,54
 26 426 26 426 55 458 c 0,55,56
 110 516 110 516 199 516 c 0,57,58
 268 516 268 516 318 476 c 0,59,60
 344 456 344 456 363 430.5 c 128,-1,61
 382 405 382 405 395 372 c 1,62,63
 422 309 422 309 422 243 c 0,0,1
EndSplineSet
Validated: 1
EndChar

StartChar: c142
Encoding: 142 142 113
Width: 181
Flags: W
LayerCount: 2
Fore
SplineSet
181 -169 m 1,0,-1
 106 -103 l 2,1,2
 91 -89 91 -89 76 -76 c 0,3,4
 54 -55 54 -55 47 -47 c 0,5,6
 6 -2 6 -2 6 38 c 1,7,-1
 10 62 l 1,8,9
 17 87 17 87 34 98 c 0,10,11
 40 103 40 103 50.5 106 c 128,-1,12
 61 109 61 109 71 109 c 0,13,14
 98 109 98 109 137 92 c 1,15,-1
 168 76 l 1,16,-1
 168 420 l 1,17,-1
 181 420 l 1,18,-1
 181 -169 l 1,0,-1
168 -123 m 1,19,-1
 168 54 l 1,20,21
 149 70 149 70 133 75 c 1,22,23
 118 82 118 82 104 82 c 1,24,-1
 91 80 l 1,25,-1
 83 76 l 1,26,27
 65 55 65 55 65 29 c 0,28,29
 65 -8 65 -8 100 -54 c 0,30,31
 127 -90 127 -90 168 -123 c 1,19,-1
EndSplineSet
Validated: 1
EndChar

StartChar: c143
Encoding: 143 143 114
Width: 477
Flags: W
LayerCount: 2
Fore
SplineSet
187 598 m 1,0,-1
 253 560 l 1,1,-1
 253 706 l 1,2,-1
 187 743 l 1,3,-1
 187 598 l 1,0,-1
282 700 m 1,4,-1
 282 552 l 1,5,-1
 320 527 l 1,6,7
 344 534 344 534 362 554 c 128,-1,8
 380 574 380 574 380 599 c 0,9,10
 380 619 380 619 369.5 637.5 c 128,-1,11
 359 656 359 656 346 662 c 1,12,-1
 282 700 l 1,4,-1
159 336 m 1,13,-1
 159 485 l 1,14,-1
 122 507 l 1,15,16
 111 507 111 507 102 502.5 c 128,-1,17
 93 498 93 498 83 488 c 0,18,19
 61 468 61 468 61 451 c 0,20,21
 61 425 61 425 72.5 404.5 c 128,-1,22
 84 384 84 384 100 373 c 2,23,-1
 159 336 l 1,13,-1
187 330 m 1,24,-1
 253 294 l 1,25,-1
 253 438 l 1,26,-1
 187 475 l 1,27,-1
 187 330 l 1,24,-1
282 431 m 1,28,-1
 282 285 l 1,29,-1
 320 260 l 1,30,31
 346 264 346 264 363 283 c 128,-1,32
 380 302 380 302 380 328 c 0,33,34
 380 371 380 371 344 395 c 1,35,-1
 282 431 l 1,28,-1
159 879 m 1,36,-1
 159 917 l 1,37,-1
 187 917 l 1,38,-1
 187 864 l 1,39,-1
 253 829 l 1,40,-1
 253 917 l 1,41,-1
 282 917 l 1,42,-1
 282 818 l 1,43,44
 332 797 332 797 360 777 c 1,45,46
 393 757 393 757 416 725 c 0,47,48
 427 711 427 711 434.5 693 c 128,-1,49
 442 675 442 675 442 651 c 0,50,51
 442 636 442 636 437 622 c 2,52,-1
 431 606 l 2,53,54
 424 586 424 586 413 572 c 1,55,56
 409 565 409 565 401.5 556.5 c 128,-1,57
 394 548 394 548 387 540 c 2,58,-1
 356 508 l 1,59,60
 389 490 389 490 407 469 c 1,61,62
 426 450 426 450 432 427 c 1,63,64
 442 407 442 407 442 371 c 0,65,66
 442 287 442 287 356 240 c 1,67,68
 397 212 397 212 423.5 181 c 128,-1,69
 450 150 450 150 450 107 c 0,70,71
 450 80 450 80 443 57 c 128,-1,72
 436 34 436 34 420 12 c 0,73,74
 391 -31 391 -31 343 -55 c 1,75,76
 318 -66 318 -66 292.5 -72.5 c 128,-1,77
 267 -79 267 -79 244 -79 c 0,78,79
 219 -79 219 -79 200 -75.5 c 128,-1,80
 181 -72 181 -72 149 -63 c 0,81,82
 103 -50 103 -50 73.5 -24 c 128,-1,83
 44 2 44 2 44 33 c 1,84,-1
 46 46 l 1,85,86
 54 83 54 83 88 83 c 2,87,-1
 101 83 l 1,88,89
 123 80 123 80 155 39 c 0,90,91
 184 2 184 2 205 -18 c 0,92,93
 210 -22 210 -22 216.5 -26 c 128,-1,94
 223 -30 223 -30 233.5 -33.5 c 128,-1,95
 244 -37 244 -37 250.5 -38 c 128,-1,96
 257 -39 257 -39 266 -39 c 0,97,98
 297 -39 297 -39 320.5 -25.5 c 128,-1,99
 344 -12 344 -12 357 6 c 1,100,101
 369 26 369 26 369 46 c 1,102,-1
 366 68 l 2,103,104
 365 80 365 80 357 91 c 1,105,106
 344 114 344 114 324 130 c 0,107,108
 317 136 317 136 305 143.5 c 128,-1,109
 293 151 293 151 282 156 c 1,110,-1
 282 119 l 1,111,-1
 253 119 l 1,112,-1
 253 172 l 1,113,-1
 187 204 l 1,114,-1
 187 119 l 1,115,-1
 159 119 l 1,116,-1
 159 217 l 1,117,-1
 109 243 l 2,118,119
 99 249 99 249 81.5 260 c 128,-1,120
 64 271 64 271 54 281 c 1,121,122
 31 299 31 299 17 325 c 1,123,-1
 5 354 l 1,124,125
 2 366 2 366 1.5 370 c 128,-1,126
 1 374 1 374 1 385 c 1,127,-1
 3 405 l 1,128,129
 6 418 6 418 13 434.5 c 128,-1,130
 20 451 20 451 29 463 c 0,131,132
 34 470 34 470 39 476.5 c 128,-1,133
 44 483 44 483 56 495 c 2,134,-1
 88 527 l 1,135,136
 40 556 40 556 20 585 c 1,137,138
 1 616 1 616 1 663 c 0,139,140
 1 712 1 712 24 741.5 c 128,-1,141
 47 771 47 771 90 797 c 1,142,143
 49 823 49 823 24.5 857 c 128,-1,144
 0 891 0 891 0 947 c 0,145,146
 0 998 0 998 29 1033 c 1,147,148
 59 1072 59 1072 104.5 1092.5 c 128,-1,149
 150 1113 150 1113 201 1113 c 0,150,151
 250 1113 250 1113 295.5 1098.5 c 128,-1,152
 341 1084 341 1084 370.5 1058 c 128,-1,153
 400 1032 400 1032 400 1004 c 1,154,-1
 398 989 l 1,155,156
 388 945 388 945 352 945 c 0,157,158
 329 945 329 945 317.5 956.5 c 128,-1,159
 306 968 306 968 285 999 c 0,160,161
 274 1014 274 1014 263.5 1025 c 128,-1,162
 253 1036 253 1036 239 1048 c 1,163,164
 213 1065 213 1065 174 1069 c 1,165,166
 127 1069 127 1069 101 1046 c 1,167,168
 88 1033 88 1033 79.5 1019.5 c 128,-1,169
 71 1006 71 1006 71 989 c 1,170,-1
 72 984 l 1,171,172
 72 953 72 953 101 922 c 0,173,174
 126 894 126 894 159 879 c 1,36,-1
161 604 m 1,175,-1
 161 752 l 1,176,-1
 124 775 l 1,177,178
 104 772 104 772 94 762 c 1,179,180
 89 755 89 755 85.5 749 c 128,-1,181
 82 743 82 743 79 734 c 2,182,-1
 68 704 l 1,183,184
 68 688 68 688 69.5 681 c 128,-1,185
 71 674 71 674 77 664 c 0,186,187
 88 647 88 647 100 639 c 2,188,-1
 161 604 l 1,175,-1
EndSplineSet
Validated: 1
EndChar

StartChar: c144
Encoding: 144 144 115
Width: 981
Flags: W
LayerCount: 2
Fore
SplineSet
51 64 m 1,0,-1
 130 349 l 1,1,-1
 132 358 l 1,2,-1
 133 363 l 1,3,4
 133 375 133 375 124.5 382 c 128,-1,5
 116 389 116 389 85 395 c 1,6,-1
 85 404 l 1,7,-1
 237 404 l 2,8,9
 438 404 438 404 438 238 c 0,10,11
 438 166 438 166 399 110 c 0,12,13
 380 84 380 84 353 63 c 128,-1,14
 326 42 326 42 293 28 c 0,15,16
 228 0 228 0 155 0 c 2,17,-1
 0 0 l 1,18,-1
 0 10 l 1,19,20
 22 10 22 10 35 24 c 0,21,22
 42 31 42 31 46.5 41 c 128,-1,23
 51 51 51 51 51 64 c 1,0,-1
200 374 m 1,24,-1
 110 51 l 1,25,-1
 108 40 l 1,26,27
 111 17 111 17 153 17 c 0,28,29
 213 17 213 17 263 51 c 1,30,31
 288 66 288 66 307 86 c 128,-1,32
 326 106 326 106 339 133 c 1,33,34
 353 156 353 156 359.5 185.5 c 128,-1,35
 366 215 366 215 366 249 c 0,36,37
 366 317 366 317 335 351 c 128,-1,38
 304 385 304 385 238 385 c 0,39,40
 224 385 224 385 214 383 c 128,-1,41
 204 381 204 381 200 374 c 1,24,-1
890 404 m 1,42,-1
 868 279 l 1,43,-1
 857 279 l 1,44,45
 857 303 857 303 850.5 323 c 128,-1,46
 844 343 844 343 832 358 c 1,47,48
 804 384 804 384 761 384 c 0,49,50
 733 384 733 384 709 375 c 128,-1,51
 685 366 685 366 664 345 c 1,52,53
 621 308 621 308 600 250 c 1,54,55
 587 220 587 220 581.5 195.5 c 128,-1,56
 576 171 576 171 576 141 c 256,57,58
 576 111 576 111 581.5 89 c 128,-1,59
 587 67 587 67 601 47 c 0,60,61
 626 10 626 10 677 10 c 0,62,63
 719 10 719 10 755.5 27.5 c 128,-1,64
 792 45 792 45 826 84 c 1,65,-1
 834 74 l 1,66,67
 764 -22 764 -22 663 -22 c 0,68,69
 618 -22 618 -22 580 1 c 1,70,71
 565 12 565 12 550.5 28.5 c 128,-1,72
 536 45 536 45 525 64 c 1,73,74
 506 103 506 103 506 149 c 0,75,76
 506 213 506 213 540 273 c 1,77,78
 576 331 576 331 634 371 c 1,79,80
 694 406 694 406 758 406 c 2,81,-1
 776 406 l 2,82,83
 787 406 787 406 791 404 c 1,84,-1
 827 397 l 1,85,-1
 855 389 l 1,86,-1
 880 404 l 1,87,-1
 890 404 l 1,42,-1
398 33 m 0,88,89
 398 50 398 50 406 55 c 1,90,91
 418 67 418 67 430 67 c 256,92,93
 442 67 442 67 451 55 c 1,94,95
 461 49 461 49 461 33 c 0,96,97
 461 20 461 20 451 10 c 1,98,99
 444 0 444 0 430 0 c 256,100,101
 416 0 416 0 407 8.5 c 128,-1,102
 398 17 398 17 398 33 c 0,88,89
871 28 m 1,103,104
 871 45 871 45 881 51 c 1,105,106
 890 61 890 61 904 61 c 0,107,108
 916 61 916 61 928 52 c 1,109,110
 935 43 935 43 935 28 c 0,111,112
 935 16 935 16 926 8 c 1,113,114
 918 -1 918 -1 904 -1 c 0,115,116
 889 -1 889 -1 882 8 c 1,117,118
 873 15 873 15 871 28 c 1,103,104
EndSplineSet
Validated: 1
EndChar

StartChar: quoteleft
Encoding: 8216 8216 116
Width: 904
Flags: W
LayerCount: 2
Fore
SplineSet
155 0 m 2,0,-1
 0 0 l 1,1,-1
 0 10 l 1,2,3
 22 10 22 10 35 24 c 0,4,5
 42 31 42 31 46.5 41 c 128,-1,6
 51 51 51 51 51 64 c 1,7,-1
 130 349 l 1,8,-1
 132 358 l 1,9,-1
 133 363 l 1,10,11
 133 375 133 375 124.5 382 c 128,-1,12
 116 389 116 389 85 395 c 1,13,-1
 85 404 l 1,14,-1
 237 404 l 2,15,16
 438 404 438 404 438 238 c 0,17,18
 438 166 438 166 399 110 c 0,19,20
 380 84 380 84 353 63 c 128,-1,21
 326 42 326 42 293 28 c 0,22,23
 228 0 228 0 155 0 c 2,0,-1
200 374 m 1,24,-1
 110 51 l 1,25,-1
 108 40 l 1,26,27
 111 17 111 17 153 17 c 0,28,29
 255 17 255 17 310.5 79 c 128,-1,30
 366 141 366 141 366 249 c 0,31,32
 366 317 366 317 335 351 c 128,-1,33
 304 385 304 385 238 385 c 0,34,35
 224 385 224 385 214 383 c 128,-1,36
 204 381 204 381 200 374 c 1,24,-1
815 404 m 1,37,-1
 791 285 l 1,38,-1
 781 285 l 1,39,40
 781 384 781 384 704 384 c 0,41,42
 678 384 678 384 659 366.5 c 128,-1,43
 640 349 640 349 640 323 c 256,44,45
 640 297 640 297 655 276 c 1,46,47
 669 259 669 259 674 254 c 0,48,49
 687 240 687 240 703 226 c 1,50,51
 715 212 715 212 729 195 c 128,-1,52
 743 178 743 178 751 167 c 0,53,54
 769 139 769 139 769 108 c 0,55,56
 769 91 769 91 764 74.5 c 128,-1,57
 759 58 759 58 750 43 c 1,58,59
 730 14 730 14 704 1 c 1,60,61
 682 -14 682 -14 645 -14 c 0,62,63
 629 -14 629 -14 594 -1 c 1,64,65
 576 3 576 3 565 6.5 c 128,-1,66
 554 10 554 10 552 10 c 0,67,68
 542 10 542 10 536 1 c 1,69,70
 530 -1 530 -1 528 -13 c 1,71,-1
 516 -13 l 1,72,-1
 537 122 l 1,73,-1
 552 122 l 1,74,-1
 549 105 l 1,75,76
 549 92 549 92 551 83 c 128,-1,77
 553 74 553 74 554 68 c 1,78,79
 560 52 560 52 576 36 c 1,80,81
 598 8 598 8 638 8 c 0,82,83
 674 8 674 8 692 32 c 1,84,85
 716 55 716 55 716 87 c 0,86,87
 716 117 716 117 702 135 c 1,88,89
 691 147 691 147 680 160 c 0,90,91
 677 165 677 165 668.5 173.5 c 128,-1,92
 660 182 660 182 652 191 c 1,93,94
 619 222 619 222 603 249 c 1,95,96
 587 269 587 269 587 303 c 0,97,98
 587 327 587 327 593.5 343 c 128,-1,99
 600 359 600 359 618 375 c 1,100,101
 647 404 647 404 693 404 c 0,102,103
 729 404 729 404 747 397 c 1,104,105
 763 387 763 387 778 387 c 0,106,107
 789 387 789 387 802 404 c 1,108,-1
 815 404 l 1,37,-1
398 33 m 0,109,110
 398 50 398 50 406 55 c 1,111,112
 418 67 418 67 430 67 c 256,113,114
 442 67 442 67 451 55 c 1,115,116
 461 49 461 49 461 33 c 0,117,118
 461 20 461 20 451 10 c 1,119,120
 444 0 444 0 430 0 c 256,121,122
 416 0 416 0 407 8.5 c 128,-1,123
 398 17 398 17 398 33 c 0,109,110
794 28 m 1,124,125
 794 42 794 42 806 51 c 1,126,127
 815 61 815 61 829 61 c 0,128,129
 842 61 842 61 851 52.5 c 128,-1,130
 860 44 860 44 860 28 c 0,131,132
 860 14 860 14 851 8 c 1,133,134
 842 -1 842 -1 829 -1 c 0,135,136
 813 -1 813 -1 805 8 c 1,137,138
 796 15 796 15 794 28 c 1,124,125
EndSplineSet
Validated: 1
EndChar

StartChar: quoteright
Encoding: 8217 8217 117
Width: 398
Flags: W
LayerCount: 2
Fore
SplineSet
123 -425 m 1,0,-1
 0 -425 l 1,1,-1
 0 408 l 1,2,-1
 0 426 l 1,3,-1
 123 426 l 1,4,-1
 123 -406 l 1,5,-1
 123 -425 l 1,0,-1
273 -108 m 0,6,7
 273 -89 273 -89 289 -70 c 1,8,9
 307 -54 307 -54 328 -54 c 0,10,11
 348 -54 348 -54 363.5 -70 c 128,-1,12
 379 -86 379 -86 379 -108 c 0,13,14
 379 -129 379 -129 363 -144 c 1,15,16
 348 -160 348 -160 328 -160 c 0,17,18
 305 -160 305 -160 289 -144 c 128,-1,19
 273 -128 273 -128 273 -108 c 0,6,7
273 110 m 0,20,21
 273 130 273 130 289 148 c 1,22,23
 306 163 306 163 328 163 c 0,24,25
 348 163 348 163 363 147 c 1,26,27
 379 132 379 132 379 110 c 0,28,29
 379 89 379 89 363.5 73.5 c 128,-1,30
 348 58 348 58 328 58 c 0,31,32
 306 58 306 58 289.5 73.5 c 128,-1,33
 273 89 273 89 273 110 c 0,20,21
215 -425 m 1,34,-1
 184 -425 l 1,35,-1
 184 408 l 1,36,-1
 184 426 l 1,37,-1
 215 426 l 1,38,-1
 215 -406 l 1,39,-1
 215 -425 l 1,34,-1
EndSplineSet
Validated: 1
EndChar

StartChar: quotedblleft
Encoding: 8220 8220 118
Width: 398
Flags: W
LayerCount: 2
Fore
SplineSet
0 -106 m 0,0,1
 0 -82 0 -82 16 -70 c 1,2,3
 30 -57 30 -57 53 -57 c 0,4,5
 73 -57 73 -57 88.5 -69.5 c 128,-1,6
 104 -82 104 -82 104 -106 c 0,7,8
 104 -132 104 -132 89 -149 c 1,9,10
 72 -164 72 -164 53 -164 c 0,11,12
 31 -164 31 -164 15.5 -149 c 128,-1,13
 0 -134 0 -134 0 -106 c 0,0,1
0 111 m 0,14,15
 0 134 0 134 16 146 c 1,16,17
 30 159 30 159 53 159 c 0,18,19
 73 159 73 159 88.5 147 c 128,-1,20
 104 135 104 135 104 111 c 0,21,22
 104 84 104 84 89 67 c 1,23,24
 72 52 72 52 53 52 c 0,25,26
 32 52 32 52 16 67.5 c 128,-1,27
 0 83 0 83 0 111 c 0,14,15
157 -420 m 1,28,-1
 157 412 l 1,29,-1
 157 421 l 1,30,-1
 191 421 l 1,31,-1
 191 -411 l 1,32,-1
 191 -420 l 1,33,-1
 157 -420 l 1,28,-1
249 -420 m 1,34,-1
 249 412 l 1,35,-1
 249 421 l 1,36,-1
 379 421 l 1,37,-1
 379 -411 l 1,38,-1
 379 -420 l 1,39,-1
 249 -420 l 1,34,-1
EndSplineSet
Validated: 1
EndChar

StartChar: quotedblright
Encoding: 8221 8221 119
Width: 225
Flags: W
LayerCount: 2
Fore
SplineSet
123 -430 m 1,0,-1
 0 -430 l 1,1,-1
 0 403 l 1,2,-1
 0 421 l 1,3,-1
 123 421 l 1,4,-1
 123 -411 l 1,5,-1
 123 -430 l 1,0,-1
215 -430 m 1,6,-1
 184 -430 l 1,7,-1
 184 403 l 1,8,-1
 184 421 l 1,9,-1
 215 421 l 1,10,-1
 215 -411 l 1,11,-1
 215 -430 l 1,6,-1
EndSplineSet
Validated: 1
EndChar

StartChar: bullet
Encoding: 8226 8226 120
Width: 225
Flags: W
LayerCount: 2
Fore
SplineSet
0 -421 m 0,0,-1
164 421 m 1,1,-1
 195 421 l 1,2,-1
 195 -411 l 1,3,-1
 195 -430 l 1,4,-1
 164 -430 l 1,5,-1
 164 403 l 1,6,-1
 164 421 l 1,1,-1
255 421 m 1,7,-1
 379 421 l 1,8,-1
 379 -411 l 1,9,-1
 379 -430 l 1,10,-1
 255 -430 l 1,11,-1
 255 403 l 1,12,-1
 255 421 l 1,7,-1
EndSplineSet
Validated: 1
EndChar

StartChar: endash
Encoding: 8211 8211 121
Width: 1171
Flags: W
LayerCount: 2
Fore
SplineSet
0 0 m 1,0,-1
 0 24 l 1,1,-1
 1081 24 l 1,2,-1
 1116 24 l 1,3,-1
 1116 0 l 1,4,-1
 36 0 l 1,5,-1
 0 0 l 1,0,-1
0 257 m 1,6,-1
 0 282 l 1,7,-1
 1081 282 l 1,8,-1
 1116 282 l 1,9,-1
 1116 257 l 1,10,-1
 36 257 l 1,11,-1
 0 257 l 1,6,-1
0 514 m 1,12,-1
 0 539 l 1,13,-1
 1081 539 l 1,14,-1
 1116 539 l 1,15,-1
 1116 514 l 1,16,-1
 36 514 l 1,17,-1
 0 514 l 1,12,-1
0 772 m 1,18,-1
 0 796 l 1,19,-1
 1081 796 l 1,20,-1
 1116 796 l 1,21,-1
 1116 772 l 1,22,-1
 36 772 l 1,23,-1
 0 772 l 1,18,-1
0 1029 m 1,24,-1
 0 1053 l 1,25,-1
 1081 1053 l 1,26,-1
 1116 1053 l 1,27,-1
 1116 1029 l 1,28,-1
 36 1029 l 1,29,-1
 0 1029 l 1,24,-1
EndSplineSet
Validated: 1
EndChar

StartChar: emdash
Encoding: 8212 8212 122
Width: 129
Flags: W
LayerCount: 2
Fore
SplineSet
0 421 m 1,0,-1
 123 421 l 1,1,-1
 123 -411 l 1,2,-1
 123 -430 l 1,3,-1
 0 -430 l 1,4,-1
 0 403 l 1,5,-1
 0 421 l 1,0,-1
EndSplineSet
Validated: 1
EndChar

StartChar: tilde
Encoding: 732 732 123
Width: 2
Flags: W
LayerCount: 2
Fore
SplineSet
280 261 m 1,0,-1
 280 -260 l 1,1,-1
 220 -260 l 1,2,-1
 220 261 l 1,3,-1
 280 261 l 1,0,-1
401 261 m 1,4,-1
 401 -260 l 1,5,-1
 340 -260 l 1,6,-1
 340 261 l 1,7,-1
 401 261 l 1,4,-1
EndSplineSet
Validated: 1
EndChar

StartChar: trademark
Encoding: 8482 8482 124
Width: 244
Flags: W
LayerCount: 2
Fore
SplineSet
0 359 m 1,0,-1
 233 359 l 1,1,-1
 233 -360 l 1,2,-1
 0 -360 l 1,3,-1
 0 359 l 1,0,-1
37 283 m 1,4,-1
 37 -283 l 1,5,-1
 195 -283 l 1,6,-1
 195 283 l 1,7,-1
 37 283 l 1,4,-1
EndSplineSet
Validated: 1
EndChar

StartChar: scaron
Encoding: 353 353 125
Width: 181
Flags: W
LayerCount: 2
Fore
SplineSet
181 -131 m 0,0,1
 181 -162 181 -162 171 -177 c 0,2,3
 154 -202 154 -202 107 -202 c 0,4,5
 37 -202 37 -202 16 -174 c 0,6,7
 -1 -151 -1 -151 -1 -80 c 0,8,9
 -1 -57 -1 -57 -0.5 -37 c 128,-1,10
 0 -17 0 -17 0 0 c 0,11,12
 0 21 0 21 0 41 c 128,-1,13
 0 61 0 61 -1 80 c 1,14,15
 -1 152 -1 152 15 174 c 0,16,17
 36 202 36 202 107 202 c 0,18,19
 155 202 155 202 171 178 c 0,20,21
 181 163 181 163 181 131 c 0,22,23
 181 89 181 89 155 73 c 0,24,25
 135 61 135 61 97 61 c 0,26,27
 85 61 85 61 74 61 c 128,-1,28
 63 61 63 61 53 62 c 1,29,30
 27 62 27 62 27 51 c 2,31,-1
 27 0 l 1,32,-1
 27 -51 l 2,33,34
 27 -63 27 -63 51 -63 c 0,35,36
 57 -63 57 -63 73 -62 c 128,-1,37
 89 -61 89 -61 98 -61 c 0,38,39
 136 -61 136 -61 154 -72 c 0,40,41
 181 -88 181 -88 181 -131 c 0,0,1
EndSplineSet
Validated: 1
EndChar

StartChar: guilsinglright
Encoding: 8250 8250 126
Width: 176
Flags: W
LayerCount: 2
Fore
SplineSet
33 262 m 1,0,-1
 144 262 l 1,1,-1
 144 360 l 1,2,-1
 33 360 l 1,3,-1
 33 262 l 1,0,-1
33 393 m 1,4,-1
 144 393 l 1,5,-1
 144 492 l 1,6,-1
 33 492 l 1,7,-1
 33 393 l 1,4,-1
33 524 m 1,8,-1
 144 524 l 1,9,-1
 144 623 l 1,10,-1
 33 623 l 1,11,-1
 33 524 l 1,8,-1
33 656 m 1,12,-1
 144 656 l 1,13,-1
 144 754 l 1,14,-1
 33 754 l 1,15,-1
 33 656 l 1,12,-1
33 130 m 1,16,-1
 144 130 l 1,17,-1
 144 229 l 1,18,-1
 33 229 l 1,19,-1
 33 130 l 1,16,-1
0 0 m 1,20,-1
 0 832 l 1,21,-1
 0 841 l 1,22,-1
 176 841 l 1,23,-1
 176 9 l 1,24,-1
 176 0 l 1,25,-1
 144 0 l 1,26,-1
 144 104 l 1,27,-1
 33 104 l 1,28,-1
 33 0 l 1,29,-1
 0 0 l 1,20,-1
EndSplineSet
Validated: 1
EndChar

StartChar: oe
Encoding: 339 339 127
Width: 233
Flags: W
LayerCount: 2
Fore
SplineSet
139 65 m 0,0,1
 154 72 154 72 167 72 c 0,2,3
 181 72 181 72 189 64 c 128,-1,4
 197 56 197 56 197 43 c 0,5,6
 197 35 197 35 192 25 c 1,7,8
 183 0 183 0 137.5 -31.5 c 128,-1,9
 92 -63 92 -63 56 -70 c 1,10,11
 37 -70 37 -70 30.5 -65 c 128,-1,12
 24 -60 24 -60 21 -47 c 1,13,14
 21 -15 21 -15 59 17 c 0,15,16
 88 41 88 41 139 65 c 0,0,1
209 552 m 1,17,-1
 209 68 l 1,18,-1
 198 78 l 2,19,20
 187 87 187 87 171 91.5 c 128,-1,21
 155 96 155 96 141 96 c 0,22,23
 77 96 77 96 35 50 c 0,24,25
 0 11 0 11 0 -28 c 0,26,27
 0 -96 0 -96 67 -96 c 0,28,29
 108 -96 108 -96 146 -77 c 128,-1,30
 184 -58 184 -58 204 -28 c 0,31,32
 216 -11 216 -11 220 4 c 128,-1,33
 224 19 224 19 222 34 c 1,34,-1
 222 552 l 1,35,-1
 209 552 l 1,17,-1
EndSplineSet
Validated: 9
EndChar

StartChar: c157
Encoding: 157 157 128
Width: 245
Flags: W
LayerCount: 2
Fore
SplineSet
209 552 m 1,0,-1
 209 67 l 1,1,-1
 197 77 l 2,2,3
 186 86 186 86 170 90.5 c 128,-1,4
 154 95 154 95 140 95 c 0,5,6
 76 95 76 95 35 49 c 0,7,8
 0 10 0 10 0 -29 c 0,9,10
 0 -97 0 -97 67 -97 c 0,11,12
 107 -97 107 -97 145 -78 c 128,-1,13
 183 -59 183 -59 203 -29 c 0,14,15
 215 -12 215 -12 219 3 c 128,-1,16
 223 18 223 18 221 33 c 1,17,-1
 221 552 l 1,18,-1
 209 552 l 1,0,-1
EndSplineSet
Validated: 9
EndChar

StartChar: c158
Encoding: 158 158 129
Width: 457
Flags: W
LayerCount: 2
Fore
SplineSet
356 135 m 1,0,-1
 360 133 l 1,1,2
 368 135 368 135 370 137 c 0,3,4
 391 163 391 163 401 194 c 1,5,6
 418 237 418 237 418 276 c 0,7,8
 418 335 418 335 376 389 c 1,9,10
 358 416 358 416 331 444 c 1,11,12
 269 504 269 504 222 540 c 1,13,-1
 222 550 l 1,14,-1
 209 550 l 1,15,-1
 209 68 l 1,16,-1
 198 78 l 2,17,18
 187 88 187 88 172 92 c 128,-1,19
 157 96 157 96 142 96 c 0,20,21
 77 96 77 96 35 50 c 0,22,23
 0 11 0 11 0 -28 c 0,24,25
 0 -96 0 -96 67 -96 c 0,26,27
 109 -96 109 -96 146.5 -77.5 c 128,-1,28
 184 -59 184 -59 204.5 -27 c 128,-1,29
 225 5 225 5 222 34 c 1,30,-1
 222 416 l 1,31,32
 312 416 312 416 361 367 c 0,33,34
 402 326 402 326 402 268 c 1,35,36
 401 259 401 259 401 255 c 0,37,38
 399 231 399 231 397.5 222.5 c 128,-1,39
 396 214 396 214 391 198 c 0,40,41
 380 168 380 168 369 154 c 0,42,43
 367 152 367 152 360 141 c 0,44,45
 359 139 359 139 356 135 c 1,0,-1
EndSplineSet
Validated: 9
EndChar

StartChar: Ydieresis
Encoding: 376 376 130
Width: 453
Flags: W
LayerCount: 2
Fore
SplineSet
221 725 m 1,0,-1
 209 725 l 1,1,-1
 209 66 l 1,2,3
 208 68 208 68 203.5 72.5 c 128,-1,4
 199 77 199 77 197 79 c 0,5,6
 186 88 186 88 172 92 c 128,-1,7
 158 96 158 96 142 96 c 0,8,9
 77 96 77 96 35 50 c 0,10,11
 0 11 0 11 0 -29 c 0,12,13
 0 -97 0 -97 66 -97 c 0,14,15
 108 -97 108 -97 147 -78 c 128,-1,16
 186 -59 186 -59 203 -29 c 1,17,18
 215 -12 215 -12 219 3 c 128,-1,19
 223 18 223 18 221 34 c 1,20,-1
 221 386 l 1,21,22
 245 384 245 384 255 382 c 128,-1,23
 265 380 265 380 279.5 375.5 c 128,-1,24
 294 371 294 371 305.5 367 c 128,-1,25
 317 363 317 363 324.5 358 c 128,-1,26
 332 353 332 353 345 342 c 0,27,28
 353 335 353 335 361 328 c 1,29,-1
 366 325 l 1,30,-1
 356 308 l 1,31,32
 358 306 358 306 360 306 c 0,33,34
 367 308 367 308 368 310 c 1,35,-1
 375 315 l 1,36,37
 391 293 391 293 397 273.5 c 128,-1,38
 403 254 403 254 403 231 c 0,39,40
 403 201 403 201 390 168 c 0,41,42
 386 157 386 157 379 144 c 128,-1,43
 372 131 372 131 368 124 c 1,44,45
 363 119 363 119 360.5 114.5 c 128,-1,46
 358 110 358 110 356 106 c 1,47,48
 358 103 358 103 360 103 c 0,49,50
 367 106 367 106 368 108 c 0,51,52
 380 119 380 119 387.5 132 c 128,-1,53
 395 145 395 145 402 166 c 128,-1,54
 409 187 409 187 413.5 211.5 c 128,-1,55
 418 236 418 236 418 253 c 0,56,57
 418 282 418 282 409 305 c 0,58,59
 404 318 404 318 390 340 c 1,60,-1
 401 364 l 1,61,62
 416 406 416 406 416 442 c 0,63,64
 416 483 416 483 396 523 c 128,-1,65
 376 563 376 563 330 615 c 1,66,67
 301 645 301 645 272 671 c 128,-1,68
 243 697 243 697 221 713 c 1,69,-1
 221 725 l 1,0,-1
376 360 m 2,70,71
 363 377 363 377 355 387 c 0,72,73
 351 392 351 392 328.5 415 c 128,-1,74
 306 438 306 438 273 468 c 0,75,76
 244 494 244 494 221 512 c 1,77,-1
 221 590 l 1,78,79
 244 587 244 587 255.5 584 c 128,-1,80
 267 581 267 581 282 575 c 0,81,82
 354 544 354 544 381 509 c 0,83,84
 404 479 404 479 404 437 c 0,85,86
 404 421 404 421 401 405 c 128,-1,87
 398 389 398 389 390 369 c 1,88,-1
 382 352 l 1,89,-1
 376 360 l 2,70,71
EndSplineSet
Validated: 9
EndChar

StartChar: nonbreakingspace
Encoding: 160 160 131
Width: 458
Flags: W
LayerCount: 2
Fore
SplineSet
223 827 m 1,0,-1
 209 827 l 1,1,-1
 209 68 l 1,2,-1
 199 79 l 1,3,4
 185 89 185 89 172.5 92.5 c 128,-1,5
 160 96 160 96 142 96 c 0,6,7
 77 96 77 96 35 50 c 0,8,9
 0 12 0 12 0 -27 c 0,10,11
 0 -96 0 -96 68 -96 c 0,12,13
 108 -96 108 -96 147 -76 c 128,-1,14
 186 -56 186 -56 206 -26 c 128,-1,15
 226 4 226 4 223 35 c 1,16,-1
 223 369 l 1,17,-1
 283 355 l 2,18,19
 299 351 299 351 304.5 349 c 128,-1,20
 310 347 310 347 326 338 c 1,21,22
 339 329 339 329 341 327 c 0,23,24
 352 317 352 317 363 307 c 1,25,-1
 381 287 l 1,26,-1
 369 267 l 1,27,28
 363 260 363 260 361 256.5 c 128,-1,29
 359 253 359 253 357 249 c 0,30,31
 357 247 357 247 361 245 c 1,32,33
 368 248 368 248 370 250 c 0,34,35
 376 256 376 256 380 262 c 0,36,37
 381 264 381 264 388 276 c 1,38,-1
 394 267 l 1,39,40
 398 259 398 259 400 241 c 128,-1,41
 402 223 402 223 402 205 c 0,42,43
 402 179 402 179 391 148 c 0,44,45
 387 138 387 138 384.5 132.5 c 128,-1,46
 382 127 382 127 369 104 c 1,47,48
 364 99 364 99 361.5 94.5 c 128,-1,49
 359 90 359 90 357 86 c 1,50,-1
 361 83 l 1,51,-1
 370 87 l 1,52,53
 379 98 379 98 387.5 113 c 128,-1,54
 396 128 396 128 402 144 c 0,55,56
 416 183 416 183 416 218 c 1,57,-1
 414 258 l 1,58,-1
 407 292 l 1,59,-1
 401 304 l 1,60,-1
 402 307 l 1,61,62
 416 344 416 344 416 380 c 1,63,-1
 414 421 l 1,64,-1
 407 454 l 1,65,-1
 401 466 l 1,66,-1
 402 469 l 2,67,68
 416 508 416 508 416 542 c 1,69,-1
 414 582 l 1,70,-1
 407 616 l 1,71,72
 396 637 396 637 394 640 c 0,73,74
 387 652 387 652 377.5 664 c 128,-1,75
 368 676 368 676 356 691 c 0,76,77
 341 709 341 709 331 719 c 0,78,79
 270 780 270 780 223 817 c 1,80,-1
 223 827 l 1,0,-1
377 503 m 2,81,82
 367 517 367 517 362 523 c 0,83,84
 348 541 348 541 331 558 c 0,85,86
 298 590 298 590 275 611 c 0,87,88
 246 637 246 637 223 654 c 1,89,-1
 223 692 l 1,90,91
 247 689 247 689 257.5 686.5 c 128,-1,92
 268 684 268 684 281.5 679.5 c 128,-1,93
 295 675 295 675 305 672 c 128,-1,94
 315 669 315 669 326 662 c 1,95,-1
 363 631 l 2,96,97
 382 614 382 614 394 591 c 1,98,99
 402 572 402 572 402 529 c 0,100,101
 402 505 402 505 393 478 c 1,102,-1
 377 503 l 2,81,82
357 411 m 0,103,104
 357 409 357 409 361 406 c 1,105,106
 363 407 363 407 365.5 408 c 128,-1,107
 368 409 368 409 370 412 c 0,108,109
 376 418 376 418 380 424 c 0,110,111
 381 426 381 426 388 438 c 1,112,-1
 394 429 l 1,113,114
 398 421 398 421 400 403.5 c 128,-1,115
 402 386 402 386 402 368 c 0,116,117
 402 353 402 353 400.5 344.5 c 128,-1,118
 399 336 399 336 393 317 c 1,119,-1
 377 341 l 1,120,121
 368 352 368 352 356 367 c 0,122,123
 341 385 341 385 331 395 c 0,124,125
 270 456 270 456 223 493 c 1,126,-1
 223 530 l 1,127,128
 244 526 244 526 260 522.5 c 128,-1,129
 276 519 276 519 287.5 516 c 128,-1,130
 299 513 299 513 304.5 511 c 128,-1,131
 310 509 310 509 326 500 c 1,132,-1
 363 469 l 1,133,-1
 381 450 l 1,134,-1
 369 429 l 1,135,136
 364 424 364 424 361.5 419.5 c 128,-1,137
 359 415 359 415 357 411 c 0,103,104
EndSplineSet
Validated: 9
EndChar

StartChar: exclamdown
Encoding: 161 161 132
Width: 466
Flags: W
LayerCount: 2
Fore
SplineSet
357 410 m 1,0,-1
 362 406 l 1,1,-1
 371 410 l 1,2,-1
 390 437 l 1,3,-1
 394 427 l 2,4,5
 398 419 398 419 400 401 c 128,-1,6
 402 383 402 383 402 365 c 0,7,8
 402 354 402 354 401 346 c 128,-1,9
 400 338 400 338 393 315 c 1,10,11
 390 323 390 323 384.5 330.5 c 128,-1,12
 379 338 379 338 378 340 c 2,13,-1
 332 393 l 1,14,15
 270 455 270 455 223 491 c 1,16,-1
 223 529 l 1,17,18
 237 526 237 526 251 523.5 c 128,-1,19
 265 521 265 521 284 515 c 1,20,21
 310 509 310 509 327 499 c 1,22,23
 345 485 345 485 346 484 c 0,24,25
 356 476 356 476 363 468 c 1,26,27
 369 463 369 463 373 458 c 0,28,29
 374 457 374 457 381 447 c 1,30,-1
 370 427 l 1,31,-1
 357 410 l 1,0,-1
223 988 m 1,32,-1
 210 988 l 1,33,-1
 210 66 l 1,34,35
 203 75 203 75 198 78 c 0,36,37
 186 88 186 88 172.5 91.5 c 128,-1,38
 159 95 159 95 143 95 c 0,39,40
 79 95 79 95 36 49 c 0,41,42
 0 10 0 10 0 -29 c 0,43,44
 0 -62 0 -62 18 -79 c 128,-1,45
 36 -96 36 -96 69 -96 c 0,46,47
 109 -96 109 -96 147.5 -77 c 128,-1,48
 186 -58 186 -58 205 -29 c 0,49,50
 216 -12 216 -12 220.5 3.5 c 128,-1,51
 225 19 225 19 223 33 c 1,52,-1
 223 367 l 1,53,54
 237 364 237 364 251 361.5 c 128,-1,55
 265 359 265 359 284 353.5 c 128,-1,56
 303 348 303 348 310.5 345 c 128,-1,57
 318 342 318 342 327 337 c 1,58,-1
 363 307 l 1,59,-1
 381 287 l 1,60,61
 373 272 373 272 370 265 c 1,62,-1
 357 247 l 1,63,-1
 362 243 l 1,64,-1
 371 248 l 1,65,-1
 390 275 l 1,66,-1
 394 265 l 2,67,68
 398 257 398 257 400 240 c 128,-1,69
 402 223 402 223 402 204 c 0,70,71
 402 177 402 177 391 147 c 0,72,73
 387 134 387 134 382 124 c 0,74,75
 374 110 374 110 370 103 c 1,76,77
 367 100 367 100 361 91 c 0,78,79
 360 89 360 89 357 85 c 1,80,-1
 362 82 l 1,81,-1
 371 86 l 1,82,83
 389 108 389 108 402 143 c 0,84,85
 409 161 409 161 412.5 178.5 c 128,-1,86
 416 196 416 196 416 216 c 2,87,-1
 415 256 l 1,88,-1
 407 292 l 1,89,-1
 401 303 l 1,90,91
 408 320 408 320 412 341.5 c 128,-1,92
 416 363 416 363 416 379 c 2,93,-1
 415 418 l 1,94,-1
 407 453 l 1,95,-1
 401 463 l 1,96,-1
 402 467 l 1,97,98
 416 502 416 502 416 541 c 2,99,-1
 415 580 l 1,100,-1
 407 614 l 1,101,-1
 401 625 l 1,102,-1
 402 629 l 1,103,104
 416 663 416 663 416 704 c 1,105,-1
 415 742 l 1,106,-1
 407 777 l 1,107,-1
 378 825 l 1,108,-1
 332 879 l 1,109,110
 304 907 304 907 276.5 931.5 c 128,-1,111
 249 956 249 956 223 977 c 1,112,-1
 223 988 l 1,32,-1
378 664 m 0,113,114
 359 688 359 688 332 717 c 1,115,116
 270 779 270 779 223 815 c 1,117,-1
 223 852 l 1,118,-1
 284 839 l 1,119,120
 304 833 304 833 309.5 831 c 128,-1,121
 315 829 315 829 325.5 822.5 c 128,-1,122
 336 816 336 816 345.5 808 c 128,-1,123
 355 800 355 800 363 792 c 0,124,125
 376 779 376 779 382.5 771 c 128,-1,126
 389 763 389 763 393.5 753.5 c 128,-1,127
 398 744 398 744 400 726.5 c 128,-1,128
 402 709 402 709 402 690 c 0,129,130
 402 665 402 665 393 639 c 1,131,132
 390 647 390 647 384.5 654.5 c 128,-1,133
 379 662 379 662 378 664 c 0,113,114
357 570 m 1,134,-1
 362 568 l 1,135,-1
 371 571 l 1,136,-1
 390 599 l 1,137,-1
 394 590 l 2,138,139
 398 580 398 580 400 563.5 c 128,-1,140
 402 547 402 547 402 527 c 0,141,142
 402 504 402 504 393 477 c 1,143,144
 390 484 390 484 387 489 c 0,145,146
 381 497 381 497 378 501 c 0,147,148
 367 514 367 514 357 527 c 128,-1,149
 347 540 347 540 332 555 c 0,150,151
 307 580 307 580 275.5 608.5 c 128,-1,152
 244 637 244 637 223 652 c 1,153,-1
 223 691 l 1,154,155
 237 688 237 688 251 685.5 c 128,-1,156
 265 683 265 683 284.5 677 c 128,-1,157
 304 671 304 671 309.5 669 c 128,-1,158
 315 667 315 667 327 660 c 1,159,160
 344 646 344 646 350 641.5 c 128,-1,161
 356 637 356 637 363 630 c 2,162,-1
 381 610 l 1,163,-1
 370 590 l 2,164,165
 368 588 368 588 361 576 c 0,166,167
 360 574 360 574 357 570 c 1,134,-1
EndSplineSet
Validated: 9
EndChar

StartChar: cent
Encoding: 162 162 133
Width: 324
Flags: W
LayerCount: 2
Fore
SplineSet
0 49 m 1,0,-1
 216 49 l 1,1,-1
 216 25 l 1,2,-1
 0 25 l 1,3,-1
 0 49 l 1,0,-1
0 -25 m 1,4,-1
 216 -25 l 1,5,-1
 216 -49 l 1,6,-1
 0 -49 l 1,7,-1
 0 -25 l 1,4,-1
EndSplineSet
Validated: 1
EndChar

StartChar: sterling
Encoding: 163 163 134
Width: 240
Flags: W
LayerCount: 2
Fore
SplineSet
240 -80 m 1,0,-1
 0 -80 l 1,1,-1
 0 81 l 1,2,-1
 240 81 l 1,3,-1
 240 -80 l 1,0,-1
EndSplineSet
Validated: 1
EndChar

StartChar: currency
Encoding: 164 164 135
Width: 240
Flags: W
LayerCount: 2
Fore
SplineSet
240 -80 m 1,0,-1
 0 -80 l 1,1,-1
 0 81 l 1,2,-1
 240 81 l 1,3,-1
 240 -80 l 1,0,-1
240 -290 m 1,4,-1
 212 -290 l 1,5,-1
 212 -80 l 1,6,-1
 240 -80 l 1,7,-1
 240 -290 l 1,4,-1
EndSplineSet
Validated: 5
EndChar

StartChar: yen
Encoding: 165 165 136
Width: 240
Flags: W
LayerCount: 2
Fore
SplineSet
240 80 m 1,0,-1
 212 80 l 1,1,-1
 212 290 l 1,2,-1
 240 290 l 1,3,-1
 240 80 l 1,0,-1
240 -81 m 1,4,-1
 0 -81 l 1,5,-1
 0 80 l 1,6,-1
 240 80 l 1,7,-1
 240 -81 l 1,4,-1
EndSplineSet
Validated: 5
EndChar

StartChar: brokenbar
Encoding: 166 166 137
Width: 240
Flags: W
LayerCount: 2
Fore
SplineSet
240 -80 m 1,0,-1
 0 -80 l 1,1,-1
 0 81 l 1,2,-1
 240 81 l 1,3,-1
 240 -80 l 1,0,-1
28 -290 m 1,4,-1
 0 -290 l 1,5,-1
 0 -80 l 1,6,-1
 28 -80 l 1,7,-1
 28 -290 l 1,4,-1
EndSplineSet
Validated: 5
EndChar

StartChar: section
Encoding: 167 167 138
Width: 240
Flags: W
LayerCount: 2
Fore
SplineSet
28 80 m 1,0,-1
 0 80 l 1,1,-1
 0 290 l 1,2,-1
 28 290 l 1,3,-1
 28 80 l 1,0,-1
240 -81 m 1,4,-1
 0 -81 l 1,5,-1
 0 80 l 1,6,-1
 240 80 l 1,7,-1
 240 -81 l 1,4,-1
EndSplineSet
Validated: 5
EndChar

StartChar: dieresis
Encoding: 168 168 139
Width: 639
Flags: W
LayerCount: 2
Fore
SplineSet
0 -173 m 1,0,-1
 0 173 l 1,1,-1
 36 173 l 1,2,-1
 36 -173 l 1,3,-1
 0 -173 l 1,0,-1
105 173 m 1,4,-1
 105 -173 l 1,5,-1
 66 -173 l 1,6,-1
 66 173 l 1,7,-1
 105 173 l 1,4,-1
535 -173 m 1,8,-1
 535 173 l 1,9,-1
 570 173 l 1,10,-1
 570 -173 l 1,11,-1
 535 -173 l 1,8,-1
603 -173 m 1,12,-1
 603 173 l 1,13,-1
 639 173 l 1,14,-1
 639 -173 l 1,15,-1
 603 -173 l 1,12,-1
235 21 m 0,16,17
 235 -6 235 -6 244 -30 c 0,18,19
 249 -42 249 -42 254.5 -51.5 c 128,-1,20
 260 -61 260 -61 270 -74 c 0,21,22
 300 -111 300 -111 344 -111 c 0,23,24
 374 -111 374 -111 389 -90 c 128,-1,25
 404 -69 404 -69 404 -24 c 0,26,27
 404 5 404 5 396 28 c 128,-1,28
 388 51 388 51 369 73 c 0,29,30
 339 110 339 110 294 110 c 1,31,32
 260 104 260 104 248 85 c 1,33,34
 235 69 235 69 235 21 c 0,16,17
105 0 m 0,35,36
 105 47 105 47 139 75 c 0,37,38
 156 89 156 89 177.5 100.5 c 128,-1,39
 199 112 199 112 224 118 c 0,40,41
 272 130 272 130 316 130 c 0,42,43
 328 130 328 130 339 130 c 128,-1,44
 350 130 350 130 363 128 c 2,45,-1
 411 119 l 1,46,47
 461 105 461 105 498 76 c 0,48,49
 516 63 516 63 525 43 c 1,50,51
 531 34 531 34 533 24 c 128,-1,52
 535 14 535 14 535 0 c 0,53,54
 535 -50 535 -50 500 -76 c 1,55,56
 481 -92 481 -92 461 -102.5 c 128,-1,57
 441 -113 441 -113 415 -120 c 0,58,59
 363 -133 363 -133 323 -133 c 0,60,61
 276 -133 276 -133 228 -121 c 0,62,63
 203 -115 203 -115 181.5 -105 c 128,-1,64
 160 -95 160 -95 141.5 -78.5 c 128,-1,65
 123 -62 123 -62 114 -43 c 128,-1,66
 105 -24 105 -24 105 0 c 0,35,36
EndSplineSet
Validated: 5
EndChar

StartChar: copyright
Encoding: 169 169 140
Width: 313
Flags: W
LayerCount: 2
Fore
SplineSet
0 153 m 1,0,-1
 313 153 l 1,1,-1
 313 -155 l 1,2,-1
 0 -155 l 1,3,-1
 0 153 l 1,0,-1
37 119 m 1,4,-1
 37 -122 l 1,5,-1
 278 -122 l 1,6,-1
 278 119 l 1,7,-1
 37 119 l 1,4,-1
EndSplineSet
Validated: 1
EndChar

StartChar: ordfeminine
Encoding: 170 170 141
Width: 313
Flags: W
LayerCount: 2
Fore
SplineSet
0 153 m 1,0,-1
 313 153 l 1,1,-1
 313 -155 l 1,2,-1
 0 -155 l 1,3,-1
 0 153 l 1,0,-1
EndSplineSet
Validated: 1
EndChar

StartChar: guillemotleft
Encoding: 171 171 142
Width: 314
Flags: W
LayerCount: 2
Fore
SplineSet
159 164 m 1,0,-1
 315 -124 l 1,1,-1
 0 -124 l 1,2,-1
 159 164 l 1,0,-1
159 91 m 1,3,-1
 63 -86 l 1,4,-1
 252 -86 l 1,5,-1
 159 91 l 1,3,-1
EndSplineSet
Validated: 1
EndChar

StartChar: logicalnot
Encoding: 172 172 143
Width: 314
Flags: W
LayerCount: 2
Fore
SplineSet
159 164 m 1,0,-1
 315 -124 l 1,1,-1
 0 -124 l 1,2,-1
 159 164 l 1,0,-1
EndSplineSet
Validated: 1
EndChar

StartChar: minus
Encoding: 173 173 144
Width: 314
Flags: W
LayerCount: 2
Fore
SplineSet
159 -164 m 1,0,-1
 315 124 l 1,1,-1
 0 124 l 1,2,-1
 159 -164 l 1,0,-1
159 -91 m 1,3,-1
 63 86 l 1,4,-1
 252 86 l 1,5,-1
 159 -91 l 1,3,-1
EndSplineSet
Validated: 9
EndChar

StartChar: registered
Encoding: 174 174 145
Width: 314
Flags: W
LayerCount: 2
Fore
SplineSet
159 -164 m 1,0,-1
 315 124 l 1,1,-1
 0 124 l 1,2,-1
 159 -164 l 1,0,-1
EndSplineSet
Validated: 9
EndChar

StartChar: macron
Encoding: 175 175 146
Width: 314
Flags: W
LayerCount: 2
Fore
SplineSet
314 -96 m 1,0,-1
 0 0 l 1,1,-1
 314 94 l 1,2,-1
 314 -96 l 1,0,-1
277 -62 m 1,3,-1
 277 60 l 1,4,-1
 75 0 l 1,5,-1
 277 -62 l 1,3,-1
EndSplineSet
Validated: 1
EndChar

StartChar: degree
Encoding: 176 176 147
Width: 314
Flags: W
LayerCount: 2
Fore
SplineSet
314 -96 m 1,0,-1
 0 0 l 1,1,-1
 314 94 l 1,2,-1
 314 -96 l 1,0,-1
EndSplineSet
Validated: 1
EndChar

StartChar: plusminus
Encoding: 177 177 148
Width: 314
Flags: W
LayerCount: 2
Fore
SplineSet
314 0 m 1,0,-1
 0 -96 l 1,1,-1
 0 94 l 1,2,-1
 314 0 l 1,0,-1
239 0 m 1,3,-1
 37 60 l 1,4,-1
 37 -62 l 1,5,-1
 239 0 l 1,3,-1
EndSplineSet
Validated: 1
EndChar

StartChar: twosuperior
Encoding: 178 178 149
Width: 314
Flags: W
LayerCount: 2
Fore
SplineSet
314 0 m 1,0,-1
 0 -96 l 1,1,-1
 0 94 l 1,2,-1
 314 0 l 1,0,-1
EndSplineSet
Validated: 1
EndChar

StartChar: threesuperior
Encoding: 179 179 150
Width: 157
Flags: W
LayerCount: 2
Fore
SplineSet
157 -131 m 1,0,-1
 0 -131 l 1,1,-1
 0 131 l 1,2,-1
 157 131 l 1,3,-1
 157 -131 l 1,0,-1
136 -94 m 1,4,-1
 136 94 l 1,5,-1
 21 94 l 1,6,-1
 21 -94 l 1,7,-1
 136 -94 l 1,4,-1
EndSplineSet
Validated: 1
EndChar

StartChar: acute
Encoding: 180 180 151
Width: 157
Flags: W
LayerCount: 2
Fore
SplineSet
0 131 m 1,0,-1
 157 131 l 1,1,-1
 157 -131 l 1,2,-1
 0 -131 l 1,3,-1
 0 131 l 1,0,-1
EndSplineSet
Validated: 1
EndChar

StartChar: mu
Encoding: 181 181 152
Width: 313
Flags: W
LayerCount: 2
Fore
SplineSet
0 -85 m 1,0,-1
 313 146 l 1,1,-1
 313 84 l 1,2,-1
 0 -146 l 1,3,-1
 0 -85 l 1,0,-1
EndSplineSet
Validated: 1
EndChar

StartChar: paragraph
Encoding: 182 182 153
Width: 313
Flags: W
LayerCount: 2
Fore
SplineSet
314 8 m 0,0,1
 314 -58 314 -58 270 -105.5 c 128,-1,2
 226 -153 226 -153 161 -153 c 0,3,4
 95 -153 95 -153 47.5 -109 c 128,-1,5
 0 -65 0 -65 0 0 c 0,6,7
 0 66 0 66 44 113.5 c 128,-1,8
 88 161 88 161 153 161 c 0,9,10
 219 161 219 161 266.5 117 c 128,-1,11
 314 73 314 73 314 8 c 0,0,1
298 8 m 0,12,13
 298 66 298 66 255.5 105.5 c 128,-1,14
 213 145 213 145 153 145 c 0,15,16
 95 145 95 145 55.5 102.5 c 128,-1,17
 16 60 16 60 16 0 c 0,18,19
 16 -58 16 -58 58.5 -97.5 c 128,-1,20
 101 -137 101 -137 161 -137 c 0,21,22
 219 -137 219 -137 258.5 -94.5 c 128,-1,23
 298 -52 298 -52 298 8 c 0,12,13
170 4 m 1,24,-1
 257 -82 l 1,25,-1
 249 -92 l 1,26,-1
 160 -6 l 1,27,-1
 73 -92 l 1,28,-1
 64 -82 l 1,29,-1
 150 3 l 1,30,-1
 58 92 l 1,31,-1
 69 103 l 1,32,-1
 160 13 l 1,33,-1
 249 101 l 1,34,-1
 259 92 l 1,35,-1
 209 43 l 1,36,-1
 170 4 l 1,24,-1
EndSplineSet
Validated: 1
EndChar

StartChar: periodcentered
Encoding: 8729 8729 154
Width: 315
Flags: W
LayerCount: 2
Fore
SplineSet
0 93 m 1,0,-1
 315 93 l 1,1,2
 310 21 310 21 298 -15 c 0,3,4
 261 -124 261 -124 166 -124 c 0,5,6
 62 -124 62 -124 21 -16 c 0,7,8
 8 20 8 20 0 93 c 1,0,-1
EndSplineSet
Validated: 1
EndChar

StartChar: cedilla
Encoding: 184 184 155
Width: 682
Flags: W
LayerCount: 2
Fore
SplineSet
43 0 m 1,0,-1
 32 0 l 1,1,-1
 2 257 l 1,2,3
 3 266 3 266 2 271 c 128,-1,4
 1 276 1 276 0 281 c 1,5,6
 0 298 0 298 12 312.5 c 128,-1,7
 24 327 24 327 38 324 c 1,8,9
 54 324 54 324 63 312 c 1,10,11
 73 302 73 302 73 276 c 1,12,-1
 72 257 l 1,13,-1
 43 0 l 1,0,-1
EndSplineSet
Validated: 1
EndChar

StartChar: onesuperior
Encoding: 185 185 156
Width: 682
Flags: W
LayerCount: 2
Fore
SplineSet
73 48 m 1,0,1
 73 22 73 22 63 12 c 1,2,3
 54 0 54 0 38 0 c 1,4,5
 24 -3 24 -3 12 11.5 c 128,-1,6
 0 26 0 26 0 43 c 1,7,8
 1 55 1 55 2 67 c 2,9,-1
 32 324 l 1,10,-1
 43 324 l 1,11,-1
 72 67 l 1,12,-1
 73 48 l 1,0,1
EndSplineSet
Validated: 1
EndChar

StartChar: ordmasculine
Encoding: 186 186 157
Width: 143
Flags: W
LayerCount: 2
Fore
SplineSet
143 308 m 0,0,1
 143 255 143 255 109 213 c 1,2,3
 73 173 73 173 19 165 c 1,4,-1
 -20 165 l 1,5,6
 -72 171 -72 171 -109 213 c 1,7,8
 -126 234 -126 234 -135.5 257.5 c 128,-1,9
 -145 281 -145 281 -145 308 c 0,10,11
 -145 366 -145 366 -104 408.5 c 128,-1,12
 -63 451 -63 451 0 451 c 0,13,14
 62 451 62 451 102.5 409 c 128,-1,15
 143 367 143 367 143 308 c 0,0,1
19 0 m 1,16,-1
 -20 0 l 1,17,-1
 -20 286 l 1,18,-1
 19 286 l 1,19,-1
 19 0 l 1,16,-1
105 308 m 0,20,21
 105 350 105 350 75 383 c 1,22,23
 43 413 43 413 0 413 c 0,24,25
 -45 413 -45 413 -75.5 383 c 128,-1,26
 -106 353 -106 353 -106 308 c 256,27,28
 -106 263 -106 263 -75 233 c 1,29,30
 -46 203 -46 203 0 203 c 0,31,32
 45 203 45 203 75 234 c 128,-1,33
 105 265 105 265 105 308 c 0,20,21
EndSplineSet
Validated: 5
EndChar

StartChar: guillemotright
Encoding: 187 187 158
Width: 1171
Flags: W
LayerCount: 2
Fore
SplineSet
148 -272 m 1,0,-1
 -4 0 l 1,1,-1
 136 257 l 1,2,-1
 -4 514 l 1,3,-1
 156 772 l 1,4,-1
 22 1029 l 1,5,-1
 75 1029 l 1,6,-1
 209 772 l 1,7,-1
 49 514 l 1,8,-1
 189 257 l 1,9,-1
 49 0 l 1,10,-1
 201 -272 l 1,11,-1
 148 -272 l 1,0,-1
17 926 m 1,12,-1
 2 1103 l 1,13,-1
 145 1000 l 1,14,-1
 127 989 l 1,15,-1
 60 1012 l 1,16,-1
 51 1006 l 1,17,-1
 35 937 l 1,18,-1
 17 926 l 1,12,-1
201 -170 m 1,19,-1
 217 -347 l 1,20,-1
 74 -244 l 1,21,-1
 91 -232 l 1,22,-1
 158 -256 l 1,23,-1
 168 -249 l 1,24,-1
 183 -180 l 1,25,-1
 201 -170 l 1,19,-1
EndSplineSet
Validated: 5
EndChar

StartChar: onequarter
Encoding: 188 188 159
Width: 367
Flags: W
LayerCount: 2
Fore
SplineSet
-3 7 m 1,0,-1
 367 7 l 1,1,-1
 367 -7 l 1,2,-1
 -3 -7 l 1,3,-1
 -3 7 l 1,0,-1
EndSplineSet
Validated: 1
EndChar

StartChar: onehalf
Encoding: 189 189 160
Width: 326
Flags: W
LayerCount: 2
Fore
SplineSet
-326 -124 m 1,0,-1
 -326 -41 l 1,1,-1
 0 125 l 1,2,-1
 0 39 l 1,3,-1
 -326 -124 l 1,0,-1
EndSplineSet
Validated: 1
EndChar

StartChar: threequarters
Encoding: 190 190 161
Width: 326
Flags: W
LayerCount: 2
Fore
SplineSet
-326 -193 m 1,0,-1
 -326 -110 l 1,1,-1
 0 56 l 1,2,-1
 0 -30 l 1,3,-1
 -326 -193 l 1,0,-1
-326 -57 m 1,4,-1
 -326 27 l 1,5,-1
 0 193 l 1,6,-1
 0 110 l 1,7,-1
 -326 -57 l 1,4,-1
EndSplineSet
Validated: 1
EndChar

StartChar: questiondown
Encoding: 191 191 162
Width: 324
Flags: W
LayerCount: 2
Fore
SplineSet
0 175 m 1,0,-1
 -324 11 l 1,1,-1
 -324 95 l 1,2,-1
 0 258 l 1,3,-1
 0 175 l 1,0,-1
0 40 m 1,4,-1
 -324 -124 l 1,5,-1
 -324 -40 l 1,6,-1
 0 124 l 1,7,-1
 0 40 l 1,4,-1
0 -95 m 1,8,-1
 -324 -258 l 1,9,-1
 -324 -175 l 1,10,-1
 0 -11 l 1,11,-1
 0 -95 l 1,8,-1
EndSplineSet
Validated: 1
EndChar

StartChar: Agrave
Encoding: 192 192 163
Width: 326
Flags: W
LayerCount: 2
Fore
SplineSet
1 -124 m 1,0,-1
 1 -41 l 1,1,-1
 327 125 l 1,2,-1
 327 39 l 1,3,-1
 1 -124 l 1,0,-1
EndSplineSet
Validated: 1
EndChar

StartChar: Aacute
Encoding: 193 193 164
Width: 326
Flags: W
LayerCount: 2
Fore
SplineSet
0 -193 m 1,0,-1
 0 -110 l 1,1,-1
 326 56 l 1,2,-1
 326 -30 l 1,3,-1
 0 -193 l 1,0,-1
0 -57 m 1,4,-1
 0 27 l 1,5,-1
 326 193 l 1,6,-1
 326 110 l 1,7,-1
 0 -57 l 1,4,-1
EndSplineSet
Validated: 1
EndChar

StartChar: Acircumflex
Encoding: 194 194 165
Width: 324
Flags: W
LayerCount: 2
Fore
SplineSet
324 175 m 1,0,-1
 0 11 l 1,1,-1
 0 95 l 1,2,-1
 324 258 l 1,3,-1
 324 175 l 1,0,-1
324 40 m 1,4,-1
 0 -124 l 1,5,-1
 0 -40 l 1,6,-1
 324 124 l 1,7,-1
 324 40 l 1,4,-1
324 -95 m 1,8,-1
 0 -258 l 1,9,-1
 0 -175 l 1,10,-1
 324 -11 l 1,11,-1
 324 -95 l 1,8,-1
EndSplineSet
Validated: 1
EndChar

StartChar: Atilde
Encoding: 195 195 166
Width: 280
Flags: W
LayerCount: 2
Fore
SplineSet
-454 200 m 1,0,-1
 -454 382 l 1,1,-1
 -437 382 l 1,2,-1
 -437 205 l 1,3,-1
 -393 220 l 1,4,-1
 -393 123 l 1,5,-1
 -437 108 l 1,6,-1
 -437 -70 l 1,7,-1
 -393 -57 l 1,8,-1
 -393 -155 l 1,9,-1
 -437 -169 l 1,10,-1
 -437 -336 l 1,11,-1
 -454 -336 l 1,12,-1
 -454 -174 l 1,13,-1
 -530 -198 l 1,14,-1
 -530 -364 l 1,15,-1
 -547 -364 l 1,16,-1
 -547 -204 l 1,17,-1
 -590 -218 l 1,18,-1
 -590 -121 l 1,19,-1
 -547 -106 l 1,20,-1
 -547 73 l 1,21,-1
 -590 58 l 1,22,-1
 -590 157 l 1,23,-1
 -547 171 l 1,24,-1
 -547 353 l 1,25,-1
 -530 353 l 1,26,-1
 -530 177 l 1,27,-1
 -454 200 l 1,0,-1
-530 78 m 1,28,-1
 -530 -101 l 1,29,-1
 -454 -77 l 1,30,-1
 -454 103 l 1,31,-1
 -530 78 l 1,28,-1
-600 -291 m 1,32,-1
 -606 -301 l 1,33,34
 -647 -277 -647 -277 -673 -250 c 1,35,36
 -703 -222 -703 -222 -725 -186 c 0,37,38
 -770 -112 -770 -112 -770 -30 c 0,39,40
 -770 -9 -770 -9 -767 14.5 c 128,-1,41
 -764 38 -764 38 -759 60 c 1,42,43
 -744 109 -744 109 -726 143 c 1,44,45
 -672 234 -672 234 -608 264 c 1,46,-1
 -600 255 l 1,47,48
 -671 205 -671 205 -700 127 c 0,49,50
 -725 59 -725 59 -725 -32 c 0,51,52
 -725 -111 -725 -111 -694 -180 c 128,-1,53
 -663 -249 -663 -249 -600 -291 c 1,32,-1
-219 -24 m 0,54,55
 -219 -106 -219 -106 -264 -180 c 0,56,57
 -286 -216 -286 -216 -315.5 -244.5 c 128,-1,58
 -345 -273 -345 -273 -383 -295 c 1,59,-1
 -389 -285 l 1,60,61
 -326 -243 -326 -243 -295 -174 c 128,-1,62
 -264 -105 -264 -105 -264 -26 c 0,63,64
 -264 65 -264 65 -289 133 c 0,65,66
 -318 211 -318 211 -389 261 c 1,67,-1
 -381 270 l 1,68,69
 -317 240 -317 240 -263 149 c 0,70,71
 -254 133 -254 133 -245.5 111 c 128,-1,72
 -237 89 -237 89 -231 66 c 0,73,74
 -219 22 -219 22 -219 -24 c 0,54,55
EndSplineSet
Validated: 1
EndChar

StartChar: Adieresis
Encoding: 196 196 167
Width: 157
Flags: W
LayerCount: 2
Fore
SplineSet
-570 -202 m 1,0,-1
 -570 377 l 1,1,-1
 -552 377 l 1,2,-1
 -552 172 l 1,3,-1
 -413 196 l 1,4,-1
 -413 -377 l 1,5,-1
 -430 -377 l 1,6,-1
 -430 -177 l 1,7,-1
 -570 -202 l 1,0,-1
-552 -108 m 1,8,-1
 -430 -89 l 1,9,-1
 -430 100 l 1,10,-1
 -552 80 l 1,11,-1
 -552 -108 l 1,8,-1
-600 -273 m 1,12,-1
 -606 -283 l 1,13,14
 -647 -259 -647 -259 -673 -232 c 1,15,16
 -703 -204 -703 -204 -725 -168 c 0,17,18
 -770 -94 -770 -94 -770 -12 c 0,19,20
 -770 9 -770 9 -767 32.5 c 128,-1,21
 -764 56 -764 56 -759 78 c 1,22,23
 -744 127 -744 127 -726 161 c 1,24,25
 -672 252 -672 252 -608 282 c 1,26,-1
 -600 273 l 1,27,28
 -671 223 -671 223 -700 145 c 0,29,30
 -725 77 -725 77 -725 -14 c 0,31,32
 -725 -93 -725 -93 -694 -162 c 128,-1,33
 -663 -231 -663 -231 -600 -273 c 1,12,-1
-212 -12 m 0,34,35
 -212 -94 -212 -94 -257 -168 c 0,36,37
 -279 -204 -279 -204 -308.5 -232.5 c 128,-1,38
 -338 -261 -338 -261 -376 -283 c 1,39,-1
 -382 -273 l 1,40,41
 -319 -231 -319 -231 -288 -162 c 128,-1,42
 -257 -93 -257 -93 -257 -14 c 0,43,44
 -257 77 -257 77 -282 145 c 0,45,46
 -311 223 -311 223 -382 273 c 1,47,-1
 -374 282 l 1,48,49
 -310 252 -310 252 -256 161 c 0,50,51
 -247 145 -247 145 -238.5 123 c 128,-1,52
 -230 101 -230 101 -224 78 c 0,53,54
 -212 34 -212 34 -212 -12 c 0,34,35
EndSplineSet
Validated: 1
EndChar

